<?xml version="1.0" encoding="utf-8"?>
<svg xmlns="http://www.w3.org/2000/svg" xmlns:xlink="http://www.w3.org/1999/xlink" width="600" height="400" viewBox="0 0 2400 1600">
<defs>
  <clipPath id="clip480">
    <rect x="0" y="0" width="2400" height="1600"/>
  </clipPath>
</defs>
<path clip-path="url(#clip480)" d="M0 1600 L2400 1600 L2400 0 L0 0  Z" fill="#ffffff" fill-rule="evenodd" fill-opacity="1"/>
<defs>
  <clipPath id="clip481">
    <rect x="480" y="0" width="1681" height="1600"/>
  </clipPath>
</defs>
<path clip-path="url(#clip480)" d="M219.866 1423.18 L2352.76 1423.18 L2352.76 47.2441 L219.866 47.2441  Z" fill="#ffffff" fill-rule="evenodd" fill-opacity="1"/>
<defs>
  <clipPath id="clip482">
    <rect x="219" y="47" width="2134" height="1377"/>
  </clipPath>
</defs>
<polyline clip-path="url(#clip482)" style="stroke:#000000; stroke-linecap:round; stroke-linejoin:round; stroke-width:2; stroke-opacity:0.1; fill:none" points="280.231,1423.18 280.231,47.2441 "/>
<polyline clip-path="url(#clip482)" style="stroke:#000000; stroke-linecap:round; stroke-linejoin:round; stroke-width:2; stroke-opacity:0.1; fill:none" points="855.134,1423.18 855.134,47.2441 "/>
<polyline clip-path="url(#clip482)" style="stroke:#000000; stroke-linecap:round; stroke-linejoin:round; stroke-width:2; stroke-opacity:0.1; fill:none" points="1430.04,1423.18 1430.04,47.2441 "/>
<polyline clip-path="url(#clip482)" style="stroke:#000000; stroke-linecap:round; stroke-linejoin:round; stroke-width:2; stroke-opacity:0.1; fill:none" points="2004.94,1423.18 2004.94,47.2441 "/>
<polyline clip-path="url(#clip480)" style="stroke:#000000; stroke-linecap:round; stroke-linejoin:round; stroke-width:4; stroke-opacity:1; fill:none" points="219.866,1423.18 2352.76,1423.18 "/>
<polyline clip-path="url(#clip480)" style="stroke:#000000; stroke-linecap:round; stroke-linejoin:round; stroke-width:4; stroke-opacity:1; fill:none" points="280.231,1423.18 280.231,1404.28 "/>
<polyline clip-path="url(#clip480)" style="stroke:#000000; stroke-linecap:round; stroke-linejoin:round; stroke-width:4; stroke-opacity:1; fill:none" points="855.134,1423.18 855.134,1404.28 "/>
<polyline clip-path="url(#clip480)" style="stroke:#000000; stroke-linecap:round; stroke-linejoin:round; stroke-width:4; stroke-opacity:1; fill:none" points="1430.04,1423.18 1430.04,1404.28 "/>
<polyline clip-path="url(#clip480)" style="stroke:#000000; stroke-linecap:round; stroke-linejoin:round; stroke-width:4; stroke-opacity:1; fill:none" points="2004.94,1423.18 2004.94,1404.28 "/>
<path clip-path="url(#clip480)" d="M280.231 1454.1 Q276.62 1454.1 274.791 1457.66 Q272.986 1461.2 272.986 1468.33 Q272.986 1475.44 274.791 1479.01 Q276.62 1482.55 280.231 1482.55 Q283.865 1482.55 285.671 1479.01 Q287.5 1475.44 287.5 1468.33 Q287.5 1461.2 285.671 1457.66 Q283.865 1454.1 280.231 1454.1 M280.231 1450.39 Q286.041 1450.39 289.097 1455 Q292.175 1459.58 292.175 1468.33 Q292.175 1477.06 289.097 1481.67 Q286.041 1486.25 280.231 1486.25 Q274.421 1486.25 271.342 1481.67 Q268.287 1477.06 268.287 1468.33 Q268.287 1459.58 271.342 1455 Q274.421 1450.39 280.231 1450.39 Z" fill="#000000" fill-rule="nonzero" fill-opacity="1" /><path clip-path="url(#clip480)" d="M849.787 1481.64 L866.106 1481.64 L866.106 1485.58 L844.162 1485.58 L844.162 1481.64 Q846.824 1478.89 851.407 1474.26 Q856.014 1469.61 857.194 1468.27 Q859.439 1465.74 860.319 1464.01 Q861.222 1462.25 861.222 1460.56 Q861.222 1457.8 859.277 1456.07 Q857.356 1454.33 854.254 1454.33 Q852.055 1454.33 849.602 1455.09 Q847.171 1455.86 844.393 1457.41 L844.393 1452.69 Q847.217 1451.55 849.671 1450.97 Q852.125 1450.39 854.162 1450.39 Q859.532 1450.39 862.726 1453.08 Q865.921 1455.77 865.921 1460.26 Q865.921 1462.39 865.111 1464.31 Q864.324 1466.2 862.217 1468.8 Q861.639 1469.47 858.537 1472.69 Q855.435 1475.88 849.787 1481.64 Z" fill="#000000" fill-rule="nonzero" fill-opacity="1" /><path clip-path="url(#clip480)" d="M1433.05 1455.09 L1421.24 1473.54 L1433.05 1473.54 L1433.05 1455.09 M1431.82 1451.02 L1437.7 1451.02 L1437.7 1473.54 L1442.63 1473.54 L1442.63 1477.43 L1437.7 1477.43 L1437.7 1485.58 L1433.05 1485.58 L1433.05 1477.43 L1417.44 1477.43 L1417.44 1472.92 L1431.82 1451.02 Z" fill="#000000" fill-rule="nonzero" fill-opacity="1" /><path clip-path="url(#clip480)" d="M2005.34 1466.44 Q2002.2 1466.44 2000.34 1468.59 Q1998.52 1470.74 1998.52 1474.49 Q1998.52 1478.22 2000.34 1480.39 Q2002.2 1482.55 2005.34 1482.55 Q2008.49 1482.55 2010.32 1480.39 Q2012.17 1478.22 2012.17 1474.49 Q2012.17 1470.74 2010.32 1468.59 Q2008.49 1466.44 2005.34 1466.44 M2014.63 1451.78 L2014.63 1456.04 Q2012.87 1455.21 2011.06 1454.77 Q2009.28 1454.33 2007.52 1454.33 Q2002.89 1454.33 2000.44 1457.45 Q1998.01 1460.58 1997.66 1466.9 Q1999.03 1464.89 2001.09 1463.82 Q2003.15 1462.73 2005.62 1462.73 Q2010.83 1462.73 2013.84 1465.9 Q2016.87 1469.05 2016.87 1474.49 Q2016.87 1479.82 2013.72 1483.03 Q2010.58 1486.25 2005.34 1486.25 Q1999.35 1486.25 1996.18 1481.67 Q1993.01 1477.06 1993.01 1468.33 Q1993.01 1460.14 1996.9 1455.28 Q2000.78 1450.39 2007.34 1450.39 Q2009.09 1450.39 2010.88 1450.74 Q2012.68 1451.09 2014.63 1451.78 Z" fill="#000000" fill-rule="nonzero" fill-opacity="1" /><path clip-path="url(#clip480)" d="M1154.03 1520.52 L1160.46 1520.52 L1160.46 1568.04 L1154.03 1568.04 L1154.03 1520.52 Z" fill="#000000" fill-rule="nonzero" fill-opacity="1" /><path clip-path="url(#clip480)" d="M1178.79 1522.27 L1178.79 1532.4 L1190.86 1532.4 L1190.86 1536.95 L1178.79 1536.95 L1178.79 1556.3 Q1178.79 1560.66 1179.97 1561.9 Q1181.18 1563.14 1184.84 1563.14 L1190.86 1563.14 L1190.86 1568.04 L1184.84 1568.04 Q1178.06 1568.04 1175.48 1565.53 Q1172.91 1562.98 1172.91 1556.3 L1172.91 1536.95 L1168.61 1536.95 L1168.61 1532.4 L1172.91 1532.4 L1172.91 1522.27 L1178.79 1522.27 Z" fill="#000000" fill-rule="nonzero" fill-opacity="1" /><path clip-path="url(#clip480)" d="M1229.05 1548.76 L1229.05 1551.62 L1202.12 1551.62 Q1202.51 1557.67 1205.75 1560.85 Q1209.03 1564 1214.86 1564 Q1218.23 1564 1221.38 1563.17 Q1224.56 1562.35 1227.68 1560.69 L1227.68 1566.23 Q1224.53 1567.57 1221.22 1568.27 Q1217.91 1568.97 1214.51 1568.97 Q1205.98 1568.97 1200.98 1564 Q1196.01 1559.04 1196.01 1550.57 Q1196.01 1541.82 1200.72 1536.69 Q1205.47 1531.54 1213.49 1531.54 Q1220.68 1531.54 1224.85 1536.18 Q1229.05 1540.8 1229.05 1548.76 M1223.2 1547.04 Q1223.13 1542.23 1220.49 1539.37 Q1217.88 1536.5 1213.55 1536.5 Q1208.65 1536.5 1205.69 1539.27 Q1202.76 1542.04 1202.32 1547.07 L1223.2 1547.04 Z" fill="#000000" fill-rule="nonzero" fill-opacity="1" /><path clip-path="url(#clip480)" d="M1259.32 1537.87 Q1258.33 1537.3 1257.16 1537.04 Q1256.01 1536.76 1254.61 1536.76 Q1249.64 1536.76 1246.97 1540 Q1244.33 1543.22 1244.33 1549.27 L1244.33 1568.04 L1238.44 1568.04 L1238.44 1532.4 L1244.33 1532.4 L1244.33 1537.93 Q1246.18 1534.69 1249.14 1533.13 Q1252.1 1531.54 1256.33 1531.54 Q1256.93 1531.54 1257.67 1531.63 Q1258.4 1531.7 1259.29 1531.85 L1259.32 1537.87 Z" fill="#000000" fill-rule="nonzero" fill-opacity="1" /><path clip-path="url(#clip480)" d="M1281.66 1550.12 Q1274.57 1550.12 1271.83 1551.75 Q1269.09 1553.37 1269.09 1557.29 Q1269.09 1560.4 1271.13 1562.25 Q1273.2 1564.07 1276.73 1564.07 Q1281.6 1564.07 1284.53 1560.63 Q1287.49 1557.16 1287.49 1551.43 L1287.49 1550.12 L1281.66 1550.12 M1293.35 1547.71 L1293.35 1568.04 L1287.49 1568.04 L1287.49 1562.63 Q1285.48 1565.88 1282.49 1567.44 Q1279.5 1568.97 1275.17 1568.97 Q1269.7 1568.97 1266.45 1565.91 Q1263.24 1562.82 1263.24 1557.67 Q1263.24 1551.65 1267.25 1548.6 Q1271.29 1545.54 1279.28 1545.54 L1287.49 1545.54 L1287.49 1544.97 Q1287.49 1540.93 1284.82 1538.73 Q1282.17 1536.5 1277.37 1536.5 Q1274.31 1536.5 1271.42 1537.23 Q1268.52 1537.97 1265.85 1539.43 L1265.85 1534.02 Q1269.06 1532.78 1272.08 1532.17 Q1275.11 1531.54 1277.97 1531.54 Q1285.71 1531.54 1289.53 1535.55 Q1293.35 1539.56 1293.35 1547.71 Z" fill="#000000" fill-rule="nonzero" fill-opacity="1" /><path clip-path="url(#clip480)" d="M1311.2 1522.27 L1311.2 1532.4 L1323.26 1532.4 L1323.26 1536.95 L1311.2 1536.95 L1311.2 1556.3 Q1311.2 1560.66 1312.38 1561.9 Q1313.59 1563.14 1317.25 1563.14 L1323.26 1563.14 L1323.26 1568.04 L1317.25 1568.04 Q1310.47 1568.04 1307.89 1565.53 Q1305.31 1562.98 1305.31 1556.3 L1305.31 1536.95 L1301.02 1536.95 L1301.02 1532.4 L1305.31 1532.4 L1305.31 1522.27 L1311.2 1522.27 Z" fill="#000000" fill-rule="nonzero" fill-opacity="1" /><path clip-path="url(#clip480)" d="M1330.97 1532.4 L1336.82 1532.4 L1336.82 1568.04 L1330.97 1568.04 L1330.97 1532.4 M1330.97 1518.52 L1336.82 1518.52 L1336.82 1525.93 L1330.97 1525.93 L1330.97 1518.52 Z" fill="#000000" fill-rule="nonzero" fill-opacity="1" /><path clip-path="url(#clip480)" d="M1362.89 1536.5 Q1358.18 1536.5 1355.44 1540.19 Q1352.71 1543.85 1352.71 1550.25 Q1352.71 1556.65 1355.41 1560.34 Q1358.15 1564 1362.89 1564 Q1367.57 1564 1370.31 1560.31 Q1373.04 1556.62 1373.04 1550.25 Q1373.04 1543.92 1370.31 1540.23 Q1367.57 1536.5 1362.89 1536.5 M1362.89 1531.54 Q1370.53 1531.54 1374.89 1536.5 Q1379.25 1541.47 1379.25 1550.25 Q1379.25 1559 1374.89 1564 Q1370.53 1568.97 1362.89 1568.97 Q1355.22 1568.97 1350.86 1564 Q1346.53 1559 1346.53 1550.25 Q1346.53 1541.47 1350.86 1536.5 Q1355.22 1531.54 1362.89 1531.54 Z" fill="#000000" fill-rule="nonzero" fill-opacity="1" /><path clip-path="url(#clip480)" d="M1418.59 1546.53 L1418.59 1568.04 L1412.73 1568.04 L1412.73 1546.72 Q1412.73 1541.66 1410.76 1539.14 Q1408.79 1536.63 1404.84 1536.63 Q1400.1 1536.63 1397.36 1539.65 Q1394.62 1542.68 1394.62 1547.9 L1394.62 1568.04 L1388.74 1568.04 L1388.74 1532.4 L1394.62 1532.4 L1394.62 1537.93 Q1396.72 1534.72 1399.56 1533.13 Q1402.42 1531.54 1406.15 1531.54 Q1412.29 1531.54 1415.44 1535.36 Q1418.59 1539.14 1418.59 1546.53 Z" fill="#000000" fill-rule="nonzero" fill-opacity="1" /><polyline clip-path="url(#clip482)" style="stroke:#000000; stroke-linecap:round; stroke-linejoin:round; stroke-width:2; stroke-opacity:0.1; fill:none" points="219.866,1145.43 2352.76,1145.43 "/>
<polyline clip-path="url(#clip482)" style="stroke:#000000; stroke-linecap:round; stroke-linejoin:round; stroke-width:2; stroke-opacity:0.1; fill:none" points="219.866,792.349 2352.76,792.349 "/>
<polyline clip-path="url(#clip482)" style="stroke:#000000; stroke-linecap:round; stroke-linejoin:round; stroke-width:2; stroke-opacity:0.1; fill:none" points="219.866,439.267 2352.76,439.267 "/>
<polyline clip-path="url(#clip482)" style="stroke:#000000; stroke-linecap:round; stroke-linejoin:round; stroke-width:2; stroke-opacity:0.1; fill:none" points="219.866,86.1857 2352.76,86.1857 "/>
<polyline clip-path="url(#clip480)" style="stroke:#000000; stroke-linecap:round; stroke-linejoin:round; stroke-width:4; stroke-opacity:1; fill:none" points="219.866,1423.18 219.866,47.2441 "/>
<polyline clip-path="url(#clip480)" style="stroke:#000000; stroke-linecap:round; stroke-linejoin:round; stroke-width:4; stroke-opacity:1; fill:none" points="219.866,1145.43 238.764,1145.43 "/>
<polyline clip-path="url(#clip480)" style="stroke:#000000; stroke-linecap:round; stroke-linejoin:round; stroke-width:4; stroke-opacity:1; fill:none" points="219.866,792.349 238.764,792.349 "/>
<polyline clip-path="url(#clip480)" style="stroke:#000000; stroke-linecap:round; stroke-linejoin:round; stroke-width:4; stroke-opacity:1; fill:none" points="219.866,439.267 238.764,439.267 "/>
<polyline clip-path="url(#clip480)" style="stroke:#000000; stroke-linecap:round; stroke-linejoin:round; stroke-width:4; stroke-opacity:1; fill:none" points="219.866,86.1857 238.764,86.1857 "/>
<path clip-path="url(#clip480)" d="M126.205 1131.23 Q122.593 1131.23 120.765 1134.79 Q118.959 1138.34 118.959 1145.47 Q118.959 1152.57 120.765 1156.14 Q122.593 1159.68 126.205 1159.68 Q129.839 1159.68 131.644 1156.14 Q133.473 1152.57 133.473 1145.47 Q133.473 1138.34 131.644 1134.79 Q129.839 1131.23 126.205 1131.23 M126.205 1127.53 Q132.015 1127.53 135.07 1132.13 Q138.149 1136.72 138.149 1145.47 Q138.149 1154.19 135.07 1158.8 Q132.015 1163.38 126.205 1163.38 Q120.394 1163.38 117.316 1158.8 Q114.26 1154.19 114.26 1145.47 Q114.26 1136.72 117.316 1132.13 Q120.394 1127.53 126.205 1127.53 Z" fill="#000000" fill-rule="nonzero" fill-opacity="1" /><path clip-path="url(#clip480)" d="M146.366 1156.83 L151.251 1156.83 L151.251 1162.71 L146.366 1162.71 L146.366 1156.83 Z" fill="#000000" fill-rule="nonzero" fill-opacity="1" /><path clip-path="url(#clip480)" d="M174.283 1132.22 L162.477 1150.67 L174.283 1150.67 L174.283 1132.22 M173.056 1128.15 L178.936 1128.15 L178.936 1150.67 L183.866 1150.67 L183.866 1154.56 L178.936 1154.56 L178.936 1162.71 L174.283 1162.71 L174.283 1154.56 L158.681 1154.56 L158.681 1150.05 L173.056 1128.15 Z" fill="#000000" fill-rule="nonzero" fill-opacity="1" /><path clip-path="url(#clip480)" d="M126.529 778.148 Q122.918 778.148 121.089 781.712 Q119.283 785.254 119.283 792.384 Q119.283 799.49 121.089 803.055 Q122.918 806.597 126.529 806.597 Q130.163 806.597 131.968 803.055 Q133.797 799.49 133.797 792.384 Q133.797 785.254 131.968 781.712 Q130.163 778.148 126.529 778.148 M126.529 774.444 Q132.339 774.444 135.394 779.05 Q138.473 783.634 138.473 792.384 Q138.473 801.11 135.394 805.717 Q132.339 810.3 126.529 810.3 Q120.718 810.3 117.64 805.717 Q114.584 801.11 114.584 792.384 Q114.584 783.634 117.64 779.05 Q120.718 774.444 126.529 774.444 Z" fill="#000000" fill-rule="nonzero" fill-opacity="1" /><path clip-path="url(#clip480)" d="M146.691 803.749 L151.575 803.749 L151.575 809.629 L146.691 809.629 L146.691 803.749 Z" fill="#000000" fill-rule="nonzero" fill-opacity="1" /><path clip-path="url(#clip480)" d="M172.339 790.486 Q169.19 790.486 167.339 792.638 Q165.51 794.791 165.51 798.541 Q165.51 802.268 167.339 804.444 Q169.19 806.597 172.339 806.597 Q175.487 806.597 177.315 804.444 Q179.167 802.268 179.167 798.541 Q179.167 794.791 177.315 792.638 Q175.487 790.486 172.339 790.486 M181.621 775.833 L181.621 780.092 Q179.862 779.259 178.056 778.819 Q176.274 778.379 174.514 778.379 Q169.885 778.379 167.431 781.504 Q165.001 784.629 164.653 790.949 Q166.019 788.935 168.079 787.87 Q170.139 786.782 172.616 786.782 Q177.825 786.782 180.834 789.953 Q183.866 793.101 183.866 798.541 Q183.866 803.865 180.718 807.083 Q177.57 810.3 172.339 810.3 Q166.343 810.3 163.172 805.717 Q160.001 801.11 160.001 792.384 Q160.001 784.189 163.89 779.328 Q167.778 774.444 174.329 774.444 Q176.089 774.444 177.871 774.791 Q179.676 775.138 181.621 775.833 Z" fill="#000000" fill-rule="nonzero" fill-opacity="1" /><path clip-path="url(#clip480)" d="M126.783 425.066 Q123.172 425.066 121.343 428.631 Q119.538 432.172 119.538 439.302 Q119.538 446.408 121.343 449.973 Q123.172 453.515 126.783 453.515 Q130.417 453.515 132.223 449.973 Q134.052 446.408 134.052 439.302 Q134.052 432.172 132.223 428.631 Q130.417 425.066 126.783 425.066 M126.783 421.362 Q132.593 421.362 135.649 425.969 Q138.728 430.552 138.728 439.302 Q138.728 448.029 135.649 452.635 Q132.593 457.219 126.783 457.219 Q120.973 457.219 117.894 452.635 Q114.839 448.029 114.839 439.302 Q114.839 430.552 117.894 425.969 Q120.973 421.362 126.783 421.362 Z" fill="#000000" fill-rule="nonzero" fill-opacity="1" /><path clip-path="url(#clip480)" d="M146.945 450.668 L151.829 450.668 L151.829 456.547 L146.945 456.547 L146.945 450.668 Z" fill="#000000" fill-rule="nonzero" fill-opacity="1" /><path clip-path="url(#clip480)" d="M172.014 440.135 Q168.681 440.135 166.76 441.918 Q164.862 443.7 164.862 446.825 Q164.862 449.95 166.76 451.733 Q168.681 453.515 172.014 453.515 Q175.348 453.515 177.269 451.733 Q179.19 449.927 179.19 446.825 Q179.19 443.7 177.269 441.918 Q175.371 440.135 172.014 440.135 M167.339 438.145 Q164.329 437.404 162.64 435.344 Q160.973 433.284 160.973 430.321 Q160.973 426.177 163.913 423.77 Q166.876 421.362 172.014 421.362 Q177.176 421.362 180.116 423.77 Q183.056 426.177 183.056 430.321 Q183.056 433.284 181.366 435.344 Q179.7 437.404 176.714 438.145 Q180.093 438.932 181.968 441.223 Q183.866 443.515 183.866 446.825 Q183.866 451.848 180.788 454.533 Q177.732 457.219 172.014 457.219 Q166.297 457.219 163.218 454.533 Q160.163 451.848 160.163 446.825 Q160.163 443.515 162.061 441.223 Q163.959 438.932 167.339 438.145 M165.626 430.76 Q165.626 433.446 167.292 434.95 Q168.982 436.455 172.014 436.455 Q175.024 436.455 176.714 434.95 Q178.426 433.446 178.426 430.76 Q178.426 428.075 176.714 426.571 Q175.024 425.066 172.014 425.066 Q168.982 425.066 167.292 426.571 Q165.626 428.075 165.626 430.76 Z" fill="#000000" fill-rule="nonzero" fill-opacity="1" /><path clip-path="url(#clip480)" d="M117.501 99.5305 L125.14 99.5305 L125.14 73.1649 L116.83 74.8316 L116.83 70.5723 L125.093 68.9057 L129.769 68.9057 L129.769 99.5305 L137.408 99.5305 L137.408 103.466 L117.501 103.466 L117.501 99.5305 Z" fill="#000000" fill-rule="nonzero" fill-opacity="1" /><path clip-path="url(#clip480)" d="M146.853 97.5861 L151.737 97.5861 L151.737 103.466 L146.853 103.466 L146.853 97.5861 Z" fill="#000000" fill-rule="nonzero" fill-opacity="1" /><path clip-path="url(#clip480)" d="M171.922 71.9844 Q168.311 71.9844 166.482 75.5492 Q164.677 79.0908 164.677 86.2204 Q164.677 93.3268 166.482 96.8916 Q168.311 100.433 171.922 100.433 Q175.556 100.433 177.362 96.8916 Q179.19 93.3268 179.19 86.2204 Q179.19 79.0908 177.362 75.5492 Q175.556 71.9844 171.922 71.9844 M171.922 68.2807 Q177.732 68.2807 180.788 72.8871 Q183.866 77.4704 183.866 86.2204 Q183.866 94.9472 180.788 99.5537 Q177.732 104.137 171.922 104.137 Q166.112 104.137 163.033 99.5537 Q159.978 94.9472 159.978 86.2204 Q159.978 77.4704 163.033 72.8871 Q166.112 68.2807 171.922 68.2807 Z" fill="#000000" fill-rule="nonzero" fill-opacity="1" /><path clip-path="url(#clip480)" d="M41.3104 970.679 L58.7206 970.679 L58.7206 960.367 Q58.7206 955.179 56.5881 952.696 Q54.4238 950.182 49.9996 950.182 Q45.5436 950.182 43.4429 952.696 Q41.3104 955.179 41.3104 960.367 L41.3104 970.679 M21.7677 970.679 L36.0905 970.679 L36.0905 961.163 Q36.0905 956.452 34.34 954.16 Q32.5576 951.837 28.9291 951.837 Q25.3325 951.837 23.5501 954.16 Q21.7677 956.452 21.7677 961.163 L21.7677 970.679 M16.4842 977.109 L16.4842 960.685 Q16.4842 953.333 19.5397 949.354 Q22.5952 945.376 28.2289 945.376 Q32.5894 945.376 35.1675 947.413 Q37.7456 949.45 38.3822 953.397 Q39.4007 948.654 42.6472 946.044 Q45.8619 943.402 50.6998 943.402 Q57.0655 943.402 60.5348 947.731 Q64.0042 952.06 64.0042 960.049 L64.0042 977.109 L16.4842 977.109 Z" fill="#000000" fill-rule="nonzero" fill-opacity="1" /><path clip-path="url(#clip480)" d="M46.0847 916.444 Q46.0847 923.541 47.7079 926.279 Q49.3312 929.016 53.2461 929.016 Q56.3653 929.016 58.2114 926.979 Q60.0256 924.91 60.0256 921.377 Q60.0256 916.507 56.5881 913.579 Q53.1188 910.619 47.3897 910.619 L46.0847 910.619 L46.0847 916.444 M43.6657 904.763 L64.0042 904.763 L64.0042 910.619 L58.5933 910.619 Q61.8398 912.624 63.3994 915.616 Q64.9272 918.608 64.9272 922.937 Q64.9272 928.411 61.8716 931.658 Q58.7843 934.872 53.6281 934.872 Q47.6125 934.872 44.5569 930.862 Q41.5014 926.82 41.5014 918.831 L41.5014 910.619 L40.9285 910.619 Q36.8862 910.619 34.6901 913.293 Q32.4621 915.934 32.4621 920.74 Q32.4621 923.796 33.1941 926.692 Q33.9262 929.589 35.3903 932.262 L29.9795 932.262 Q28.7381 929.048 28.1334 926.024 Q27.4968 923 27.4968 920.136 Q27.4968 912.401 31.5072 908.582 Q35.5176 904.763 43.6657 904.763 Z" fill="#000000" fill-rule="nonzero" fill-opacity="1" /><path clip-path="url(#clip480)" d="M29.7248 867.046 L35.1993 867.046 Q33.8307 869.528 33.1623 872.043 Q32.4621 874.525 32.4621 877.072 Q32.4621 882.769 36.0905 885.92 Q39.6872 889.071 46.212 889.071 Q52.7369 889.071 56.3653 885.92 Q59.9619 882.769 59.9619 877.072 Q59.9619 874.525 59.2935 872.043 Q58.5933 869.528 57.2247 867.046 L62.6355 867.046 Q63.7814 869.497 64.3543 872.138 Q64.9272 874.748 64.9272 877.708 Q64.9272 885.761 59.8664 890.503 Q54.8057 895.246 46.212 895.246 Q37.491 895.246 32.4939 890.472 Q27.4968 885.665 27.4968 877.326 Q27.4968 874.621 28.0697 872.043 Q28.6108 869.465 29.7248 867.046 Z" fill="#000000" fill-rule="nonzero" fill-opacity="1" /><path clip-path="url(#clip480)" d="M14.479 857.083 L14.479 851.195 L43.7294 851.195 L28.3562 833.721 L28.3562 826.242 L45.0344 845.148 L64.0042 825.446 L64.0042 833.085 L46.5939 851.195 L64.0042 851.195 L64.0042 857.083 L14.479 857.083 Z" fill="#000000" fill-rule="nonzero" fill-opacity="1" /><path clip-path="url(#clip480)" d="M16.4842 825.446 L16.4842 785.246 L21.895 785.246 L21.895 802.116 L64.0042 802.116 L64.0042 808.577 L21.895 808.577 L21.895 825.446 L16.4842 825.446 Z" fill="#000000" fill-rule="nonzero" fill-opacity="1" /><path clip-path="url(#clip480)" d="M33.8307 768.218 Q33.2578 769.205 33.0032 770.382 Q32.7167 771.528 32.7167 772.929 Q32.7167 777.894 35.9632 780.568 Q39.1779 783.209 45.2253 783.209 L64.0042 783.209 L64.0042 789.098 L28.3562 789.098 L28.3562 783.209 L33.8944 783.209 Q30.6479 781.363 29.0883 778.403 Q27.4968 775.443 27.4968 771.21 Q27.4968 770.605 27.5923 769.873 Q27.656 769.141 27.8151 768.25 L33.8307 768.218 Z" fill="#000000" fill-rule="nonzero" fill-opacity="1" /><path clip-path="url(#clip480)" d="M46.0847 745.875 Q46.0847 752.972 47.7079 755.71 Q49.3312 758.447 53.2461 758.447 Q56.3653 758.447 58.2114 756.41 Q60.0256 754.341 60.0256 750.808 Q60.0256 745.938 56.5881 743.01 Q53.1188 740.05 47.3897 740.05 L46.0847 740.05 L46.0847 745.875 M43.6657 734.193 L64.0042 734.193 L64.0042 740.05 L58.5933 740.05 Q61.8398 742.055 63.3994 745.047 Q64.9272 748.039 64.9272 752.368 Q64.9272 757.842 61.8716 761.089 Q58.7843 764.303 53.6281 764.303 Q47.6125 764.303 44.5569 760.293 Q41.5014 756.251 41.5014 748.262 L41.5014 740.05 L40.9285 740.05 Q36.8862 740.05 34.6901 742.724 Q32.4621 745.365 32.4621 750.171 Q32.4621 753.227 33.1941 756.123 Q33.9262 759.02 35.3903 761.693 L29.9795 761.693 Q28.7381 758.479 28.1334 755.455 Q27.4968 752.431 27.4968 749.567 Q27.4968 741.832 31.5072 738.013 Q35.5176 734.193 43.6657 734.193 Z" fill="#000000" fill-rule="nonzero" fill-opacity="1" /><path clip-path="url(#clip480)" d="M29.7248 696.477 L35.1993 696.477 Q33.8307 698.959 33.1623 701.474 Q32.4621 703.956 32.4621 706.503 Q32.4621 712.2 36.0905 715.351 Q39.6872 718.502 46.212 718.502 Q52.7369 718.502 56.3653 715.351 Q59.9619 712.2 59.9619 706.503 Q59.9619 703.956 59.2935 701.474 Q58.5933 698.959 57.2247 696.477 L62.6355 696.477 Q63.7814 698.927 64.3543 701.569 Q64.9272 704.179 64.9272 707.139 Q64.9272 715.192 59.8664 719.934 Q54.8057 724.677 46.212 724.677 Q37.491 724.677 32.4939 719.902 Q27.4968 715.096 27.4968 706.757 Q27.4968 704.052 28.0697 701.474 Q28.6108 698.896 29.7248 696.477 Z" fill="#000000" fill-rule="nonzero" fill-opacity="1" /><path clip-path="url(#clip480)" d="M14.479 686.514 L14.479 680.626 L43.7294 680.626 L28.3562 663.152 L28.3562 655.672 L45.0344 674.579 L64.0042 654.877 L64.0042 662.516 L46.5939 680.626 L64.0042 680.626 L64.0042 686.514 L14.479 686.514 Z" fill="#000000" fill-rule="nonzero" fill-opacity="1" /><path clip-path="url(#clip480)" d="M28.3562 648.543 L28.3562 642.686 L64.0042 642.686 L64.0042 648.543 L28.3562 648.543 M14.479 648.543 L14.479 642.686 L21.895 642.686 L21.895 648.543 L14.479 648.543 Z" fill="#000000" fill-rule="nonzero" fill-opacity="1" /><path clip-path="url(#clip480)" d="M42.4881 600.8 L64.0042 600.8 L64.0042 606.657 L42.679 606.657 Q37.6183 606.657 35.1038 608.63 Q32.5894 610.603 32.5894 614.55 Q32.5894 619.292 35.6131 622.03 Q38.6368 624.767 43.8567 624.767 L64.0042 624.767 L64.0042 630.655 L28.3562 630.655 L28.3562 624.767 L33.8944 624.767 Q30.6797 622.666 29.0883 619.834 Q27.4968 616.969 27.4968 613.245 Q27.4968 607.102 31.3163 603.951 Q35.1038 600.8 42.4881 600.8 Z" fill="#000000" fill-rule="nonzero" fill-opacity="1" /><path clip-path="url(#clip480)" d="M45.7664 565.661 Q39.4007 565.661 35.8996 568.303 Q32.3984 570.913 32.3984 575.656 Q32.3984 580.366 35.8996 583.008 Q39.4007 585.618 45.7664 585.618 Q52.1003 585.618 55.6014 583.008 Q59.1026 580.366 59.1026 575.656 Q59.1026 570.913 55.6014 568.303 Q52.1003 565.661 45.7664 565.661 M59.58 559.805 Q68.683 559.805 73.1071 563.847 Q77.5631 567.889 77.5631 576.228 Q77.5631 579.316 77.0857 582.053 Q76.6401 584.79 75.6852 587.368 L69.9879 587.368 Q71.3884 584.79 72.0568 582.276 Q72.7252 579.761 72.7252 577.151 Q72.7252 571.391 69.7015 568.526 Q66.7096 565.661 60.6303 565.661 L57.7339 565.661 Q60.885 567.476 62.4446 570.308 Q64.0042 573.141 64.0042 577.088 Q64.0042 583.644 59.0071 587.655 Q54.01 591.665 45.7664 591.665 Q37.491 591.665 32.4939 587.655 Q27.4968 583.644 27.4968 577.088 Q27.4968 573.141 29.0564 570.308 Q30.616 567.476 33.7671 565.661 L28.3562 565.661 L28.3562 559.805 L59.58 559.805 Z" fill="#000000" fill-rule="nonzero" fill-opacity="1" /><path clip-path="url(#clip480)" d="M47.4215 506.238 L40.0691 507.638 Q32.5257 509.07 32.5257 514.736 Q32.5257 519.001 36.0269 520.942 Q40.4192 523.393 46.212 523.393 Q53.2143 523.393 56.5563 521.006 Q59.9619 518.587 59.9619 514.736 Q59.9619 510.471 53.1825 508.179 L47.4215 506.238 M37.682 502.959 L28.3562 499.808 L28.3562 494.588 L47.6761 501.113 L54.6466 499.84 Q56.2062 499.554 57.5111 498.44 Q59.0389 497.135 59.0389 496.116 L59.0389 493.315 L64.0042 493.315 L64.0042 496.816 Q64.0042 499.808 61.3306 502.482 Q59.9938 503.787 57.1929 504.328 Q60.7258 505.792 63.4949 508.784 Q64.7999 510.184 64.7999 514.736 Q64.7999 522.215 59.9619 525.844 Q54.9649 529.568 46.212 529.568 Q36.8544 529.568 32.4621 525.526 Q27.5605 521.038 27.5605 514.736 Q27.5605 504.837 37.682 502.959 Z" fill="#000000" fill-rule="nonzero" fill-opacity="1" /><polyline clip-path="url(#clip482)" style="stroke:#0000ff; stroke-linecap:round; stroke-linejoin:round; stroke-width:4; stroke-opacity:1; fill:none" points="280.231,86.1857 567.683,1384.12 855.134,1384.12 1142.59,1384.12 1430.04,1384.12 1717.49,1384.12 2004.94,1384.12 2292.39,1384.12 "/>
<path clip-path="url(#clip482)" d="M264.231 70.1857 L264.231 102.186 L296.231 102.186 L296.231 70.1857 L264.231 70.1857 Z" fill="#0000ff" fill-rule="evenodd" fill-opacity="1" stroke="none"/>
<path clip-path="url(#clip482)" d="M551.683 1368.12 L551.683 1400.12 L583.683 1400.12 L583.683 1368.12 L551.683 1368.12 Z" fill="#0000ff" fill-rule="evenodd" fill-opacity="1" stroke="none"/>
<path clip-path="url(#clip482)" d="M839.134 1368.12 L839.134 1400.12 L871.134 1400.12 L871.134 1368.12 L839.134 1368.12 Z" fill="#0000ff" fill-rule="evenodd" fill-opacity="1" stroke="none"/>
<path clip-path="url(#clip482)" d="M1126.59 1368.12 L1126.59 1400.12 L1158.59 1400.12 L1158.59 1368.12 L1126.59 1368.12 Z" fill="#0000ff" fill-rule="evenodd" fill-opacity="1" stroke="none"/>
<path clip-path="url(#clip482)" d="M1414.04 1368.12 L1414.04 1400.12 L1446.04 1400.12 L1446.04 1368.12 L1414.04 1368.12 Z" fill="#0000ff" fill-rule="evenodd" fill-opacity="1" stroke="none"/>
<path clip-path="url(#clip482)" d="M1701.49 1368.12 L1701.49 1400.12 L1733.49 1400.12 L1733.49 1368.12 L1701.49 1368.12 Z" fill="#0000ff" fill-rule="evenodd" fill-opacity="1" stroke="none"/>
<path clip-path="url(#clip482)" d="M1988.94 1368.12 L1988.94 1400.12 L2020.94 1400.12 L2020.94 1368.12 L1988.94 1368.12 Z" fill="#0000ff" fill-rule="evenodd" fill-opacity="1" stroke="none"/>
<path clip-path="url(#clip482)" d="M2276.39 1368.12 L2276.39 1400.12 L2308.39 1400.12 L2308.39 1368.12 L2276.39 1368.12 Z" fill="#0000ff" fill-rule="evenodd" fill-opacity="1" stroke="none"/>
<polyline clip-path="url(#clip482)" style="stroke:#ff0000; stroke-linecap:round; stroke-linejoin:round; stroke-width:4; stroke-opacity:1; fill:none" points="280.231,1384.24 2292.39,1384.24 "/>
</svg>
