<?xml version="1.0" encoding="utf-8"?>
<svg xmlns="http://www.w3.org/2000/svg" xmlns:xlink="http://www.w3.org/1999/xlink" width="600" height="400" viewBox="0 0 2400 1600">
<defs>
  <clipPath id="clip420">
    <rect x="0" y="0" width="2400" height="1600"/>
  </clipPath>
</defs>
<path clip-path="url(#clip420)" d="M0 1600 L2400 1600 L2400 0 L0 0  Z" fill="#ffffff" fill-rule="evenodd" fill-opacity="1"/>
<defs>
  <clipPath id="clip421">
    <rect x="480" y="0" width="1681" height="1600"/>
  </clipPath>
</defs>
<path clip-path="url(#clip420)" d="M338.292 623.18 L1197.13 623.18 L1197.13 47.2441 L338.292 47.2441  Z" fill="#ffffff" fill-rule="evenodd" fill-opacity="1"/>
<defs>
  <clipPath id="clip422">
    <rect x="338" y="47" width="860" height="577"/>
  </clipPath>
</defs>
<polyline clip-path="url(#clip422)" style="stroke:#000000; stroke-linecap:round; stroke-linejoin:round; stroke-width:2; stroke-opacity:0.1; fill:none" points="338.292,623.18 338.292,47.2441 "/>
<polyline clip-path="url(#clip422)" style="stroke:#000000; stroke-linecap:round; stroke-linejoin:round; stroke-width:2; stroke-opacity:0.1; fill:none" points="624.571,623.18 624.571,47.2441 "/>
<polyline clip-path="url(#clip422)" style="stroke:#000000; stroke-linecap:round; stroke-linejoin:round; stroke-width:2; stroke-opacity:0.1; fill:none" points="910.851,623.18 910.851,47.2441 "/>
<polyline clip-path="url(#clip422)" style="stroke:#000000; stroke-linecap:round; stroke-linejoin:round; stroke-width:2; stroke-opacity:0.1; fill:none" points="1197.13,623.18 1197.13,47.2441 "/>
<polyline clip-path="url(#clip420)" style="stroke:#000000; stroke-linecap:round; stroke-linejoin:round; stroke-width:4; stroke-opacity:1; fill:none" points="338.292,623.18 1197.13,623.18 "/>
<polyline clip-path="url(#clip420)" style="stroke:#000000; stroke-linecap:round; stroke-linejoin:round; stroke-width:4; stroke-opacity:1; fill:none" points="338.292,623.18 338.292,604.282 "/>
<polyline clip-path="url(#clip420)" style="stroke:#000000; stroke-linecap:round; stroke-linejoin:round; stroke-width:4; stroke-opacity:1; fill:none" points="624.571,623.18 624.571,604.282 "/>
<polyline clip-path="url(#clip420)" style="stroke:#000000; stroke-linecap:round; stroke-linejoin:round; stroke-width:4; stroke-opacity:1; fill:none" points="910.851,623.18 910.851,604.282 "/>
<polyline clip-path="url(#clip420)" style="stroke:#000000; stroke-linecap:round; stroke-linejoin:round; stroke-width:4; stroke-opacity:1; fill:none" points="1197.13,623.18 1197.13,604.282 "/>
<path clip-path="url(#clip420)" d="M308.049 668.751 L337.724 668.751 L337.724 672.686 L308.049 672.686 L308.049 668.751 Z" fill="#000000" fill-rule="nonzero" fill-opacity="1" /><path clip-path="url(#clip420)" d="M348.627 681.645 L356.266 681.645 L356.266 655.279 L347.956 656.946 L347.956 652.687 L356.22 651.02 L360.896 651.02 L360.896 681.645 L368.534 681.645 L368.534 685.58 L348.627 685.58 L348.627 681.645 Z" fill="#000000" fill-rule="nonzero" fill-opacity="1" /><path clip-path="url(#clip420)" d="M624.571 654.099 Q620.96 654.099 619.131 657.663 Q617.326 661.205 617.326 668.335 Q617.326 675.441 619.131 679.006 Q620.96 682.547 624.571 682.547 Q628.206 682.547 630.011 679.006 Q631.84 675.441 631.84 668.335 Q631.84 661.205 630.011 657.663 Q628.206 654.099 624.571 654.099 M624.571 650.395 Q630.381 650.395 633.437 655.001 Q636.516 659.585 636.516 668.335 Q636.516 677.061 633.437 681.668 Q630.381 686.251 624.571 686.251 Q618.761 686.251 615.682 681.668 Q612.627 677.061 612.627 668.335 Q612.627 659.585 615.682 655.001 Q618.761 650.395 624.571 650.395 Z" fill="#000000" fill-rule="nonzero" fill-opacity="1" /><path clip-path="url(#clip420)" d="M901.233 681.645 L908.872 681.645 L908.872 655.279 L900.562 656.946 L900.562 652.687 L908.826 651.02 L913.501 651.02 L913.501 681.645 L921.14 681.645 L921.14 685.58 L901.233 685.58 L901.233 681.645 Z" fill="#000000" fill-rule="nonzero" fill-opacity="1" /><path clip-path="url(#clip420)" d="M1191.78 681.645 L1208.1 681.645 L1208.1 685.58 L1186.16 685.58 L1186.16 681.645 Q1188.82 678.89 1193.4 674.26 Q1198.01 669.608 1199.19 668.265 Q1201.44 665.742 1202.32 664.006 Q1203.22 662.247 1203.22 660.557 Q1203.22 657.802 1201.27 656.066 Q1199.35 654.33 1196.25 654.33 Q1194.05 654.33 1191.6 655.094 Q1189.17 655.858 1186.39 657.409 L1186.39 652.687 Q1189.21 651.552 1191.67 650.974 Q1194.12 650.395 1196.16 650.395 Q1201.53 650.395 1204.72 653.08 Q1207.92 655.765 1207.92 660.256 Q1207.92 662.386 1207.11 664.307 Q1206.32 666.205 1204.21 668.798 Q1203.64 669.469 1200.53 672.686 Q1197.43 675.881 1191.78 681.645 Z" fill="#000000" fill-rule="nonzero" fill-opacity="1" /><path clip-path="url(#clip420)" d="M772.915 751.461 L771.515 744.109 Q770.082 736.565 764.417 736.565 Q760.152 736.565 758.21 740.067 Q755.759 744.459 755.759 750.252 Q755.759 757.254 758.147 760.596 Q760.566 764.002 764.417 764.002 Q768.682 764.002 770.974 757.222 L772.915 751.461 M776.193 741.722 L779.344 732.396 L784.564 732.396 L778.039 751.716 L779.313 758.686 Q779.599 760.246 780.713 761.551 Q782.018 763.079 783.037 763.079 L785.837 763.079 L785.837 768.044 L782.336 768.044 Q779.344 768.044 776.671 765.37 Q775.366 764.033 774.825 761.233 Q773.361 764.766 770.369 767.535 Q768.968 768.84 764.417 768.84 Q756.937 768.84 753.309 764.002 Q749.585 759.005 749.585 750.252 Q749.585 740.894 753.627 736.502 Q758.115 731.6 764.417 731.6 Q774.316 731.6 776.193 741.722 Z" fill="#000000" fill-rule="nonzero" fill-opacity="1" /><polyline clip-path="url(#clip422)" style="stroke:#000000; stroke-linecap:round; stroke-linejoin:round; stroke-width:2; stroke-opacity:0.1; fill:none" points="338.292,609.91 1197.13,609.91 "/>
<polyline clip-path="url(#clip422)" style="stroke:#000000; stroke-linecap:round; stroke-linejoin:round; stroke-width:2; stroke-opacity:0.1; fill:none" points="338.292,492.114 1197.13,492.114 "/>
<polyline clip-path="url(#clip422)" style="stroke:#000000; stroke-linecap:round; stroke-linejoin:round; stroke-width:2; stroke-opacity:0.1; fill:none" points="338.292,374.319 1197.13,374.319 "/>
<polyline clip-path="url(#clip422)" style="stroke:#000000; stroke-linecap:round; stroke-linejoin:round; stroke-width:2; stroke-opacity:0.1; fill:none" points="338.292,256.523 1197.13,256.523 "/>
<polyline clip-path="url(#clip422)" style="stroke:#000000; stroke-linecap:round; stroke-linejoin:round; stroke-width:2; stroke-opacity:0.1; fill:none" points="338.292,138.728 1197.13,138.728 "/>
<polyline clip-path="url(#clip420)" style="stroke:#000000; stroke-linecap:round; stroke-linejoin:round; stroke-width:4; stroke-opacity:1; fill:none" points="338.292,623.18 338.292,47.2441 "/>
<polyline clip-path="url(#clip420)" style="stroke:#000000; stroke-linecap:round; stroke-linejoin:round; stroke-width:4; stroke-opacity:1; fill:none" points="338.292,609.91 357.189,609.91 "/>
<polyline clip-path="url(#clip420)" style="stroke:#000000; stroke-linecap:round; stroke-linejoin:round; stroke-width:4; stroke-opacity:1; fill:none" points="338.292,492.114 357.189,492.114 "/>
<polyline clip-path="url(#clip420)" style="stroke:#000000; stroke-linecap:round; stroke-linejoin:round; stroke-width:4; stroke-opacity:1; fill:none" points="338.292,374.319 357.189,374.319 "/>
<polyline clip-path="url(#clip420)" style="stroke:#000000; stroke-linecap:round; stroke-linejoin:round; stroke-width:4; stroke-opacity:1; fill:none" points="338.292,256.523 357.189,256.523 "/>
<polyline clip-path="url(#clip420)" style="stroke:#000000; stroke-linecap:round; stroke-linejoin:round; stroke-width:4; stroke-opacity:1; fill:none" points="338.292,138.728 357.189,138.728 "/>
<path clip-path="url(#clip420)" d="M290.347 595.708 Q286.736 595.708 284.907 599.273 Q283.102 602.815 283.102 609.944 Q283.102 617.051 284.907 620.616 Q286.736 624.157 290.347 624.157 Q293.981 624.157 295.787 620.616 Q297.616 617.051 297.616 609.944 Q297.616 602.815 295.787 599.273 Q293.981 595.708 290.347 595.708 M290.347 592.005 Q296.157 592.005 299.213 596.611 Q302.292 601.195 302.292 609.944 Q302.292 618.671 299.213 623.278 Q296.157 627.861 290.347 627.861 Q284.537 627.861 281.458 623.278 Q278.403 618.671 278.403 609.944 Q278.403 601.195 281.458 596.611 Q284.537 592.005 290.347 592.005 Z" fill="#000000" fill-rule="nonzero" fill-opacity="1" /><path clip-path="url(#clip420)" d="M117.825 511.907 L125.464 511.907 L125.464 485.541 L117.154 487.208 L117.154 482.949 L125.418 481.282 L130.093 481.282 L130.093 511.907 L137.732 511.907 L137.732 515.842 L117.825 515.842 L117.825 511.907 Z" fill="#000000" fill-rule="nonzero" fill-opacity="1" /><path clip-path="url(#clip420)" d="M147.177 509.962 L152.061 509.962 L152.061 515.842 L147.177 515.842 L147.177 509.962 Z" fill="#000000" fill-rule="nonzero" fill-opacity="1" /><path clip-path="url(#clip420)" d="M172.246 484.361 Q168.635 484.361 166.806 487.925 Q165.001 491.467 165.001 498.597 Q165.001 505.703 166.806 509.268 Q168.635 512.81 172.246 512.81 Q175.88 512.81 177.686 509.268 Q179.514 505.703 179.514 498.597 Q179.514 491.467 177.686 487.925 Q175.88 484.361 172.246 484.361 M172.246 480.657 Q178.056 480.657 181.112 485.263 Q184.19 489.847 184.19 498.597 Q184.19 507.323 181.112 511.93 Q178.056 516.513 172.246 516.513 Q166.436 516.513 163.357 511.93 Q160.302 507.323 160.302 498.597 Q160.302 489.847 163.357 485.263 Q166.436 480.657 172.246 480.657 Z" fill="#000000" fill-rule="nonzero" fill-opacity="1" /><path clip-path="url(#clip420)" d="M220.579 490.379 L210 501.004 L220.579 511.583 L217.824 514.384 L207.199 503.759 L196.575 514.384 L193.843 511.583 L204.399 501.004 L193.843 490.379 L196.575 487.578 L207.199 498.203 L217.824 487.578 L220.579 490.379 Z" fill="#000000" fill-rule="nonzero" fill-opacity="1" /><path clip-path="url(#clip420)" d="M232.94 511.907 L240.579 511.907 L240.579 485.541 L232.269 487.208 L232.269 482.949 L240.533 481.282 L245.209 481.282 L245.209 511.907 L252.847 511.907 L252.847 515.842 L232.94 515.842 L232.94 511.907 Z" fill="#000000" fill-rule="nonzero" fill-opacity="1" /><path clip-path="url(#clip420)" d="M272.292 484.361 Q268.681 484.361 266.852 487.925 Q265.046 491.467 265.046 498.597 Q265.046 505.703 266.852 509.268 Q268.681 512.81 272.292 512.81 Q275.926 512.81 277.732 509.268 Q279.56 505.703 279.56 498.597 Q279.56 491.467 277.732 487.925 Q275.926 484.361 272.292 484.361 M272.292 480.657 Q278.102 480.657 281.157 485.263 Q284.236 489.847 284.236 498.597 Q284.236 507.323 281.157 511.93 Q278.102 516.513 272.292 516.513 Q266.482 516.513 263.403 511.93 Q260.347 507.323 260.347 498.597 Q260.347 489.847 263.403 485.263 Q266.482 480.657 272.292 480.657 Z" fill="#000000" fill-rule="nonzero" fill-opacity="1" /><path clip-path="url(#clip420)" d="M284.236 460.352 L302.292 460.352 L302.292 461.969 L292.098 488.432 L288.129 488.432 L297.721 463.549 L284.236 463.549 L284.236 460.352 Z" fill="#000000" fill-rule="nonzero" fill-opacity="1" /><path clip-path="url(#clip420)" d="M121.043 394.111 L137.362 394.111 L137.362 398.046 L115.418 398.046 L115.418 394.111 Q118.08 391.357 122.663 386.727 Q127.269 382.074 128.45 380.732 Q130.695 378.209 131.575 376.472 Q132.478 374.713 132.478 373.023 Q132.478 370.269 130.533 368.533 Q128.612 366.797 125.51 366.797 Q123.311 366.797 120.857 367.56 Q118.427 368.324 115.649 369.875 L115.649 365.153 Q118.473 364.019 120.927 363.44 Q123.38 362.861 125.418 362.861 Q130.788 362.861 133.982 365.547 Q137.177 368.232 137.177 372.723 Q137.177 374.852 136.367 376.773 Q135.579 378.672 133.473 381.264 Q132.894 381.935 129.792 385.153 Q126.691 388.347 121.043 394.111 Z" fill="#000000" fill-rule="nonzero" fill-opacity="1" /><path clip-path="url(#clip420)" d="M147.177 392.167 L152.061 392.167 L152.061 398.046 L147.177 398.046 L147.177 392.167 Z" fill="#000000" fill-rule="nonzero" fill-opacity="1" /><path clip-path="url(#clip420)" d="M172.246 366.565 Q168.635 366.565 166.806 370.13 Q165.001 373.672 165.001 380.801 Q165.001 387.908 166.806 391.472 Q168.635 395.014 172.246 395.014 Q175.88 395.014 177.686 391.472 Q179.514 387.908 179.514 380.801 Q179.514 373.672 177.686 370.13 Q175.88 366.565 172.246 366.565 M172.246 362.861 Q178.056 362.861 181.112 367.468 Q184.19 372.051 184.19 380.801 Q184.19 389.528 181.112 394.134 Q178.056 398.718 172.246 398.718 Q166.436 398.718 163.357 394.134 Q160.302 389.528 160.302 380.801 Q160.302 372.051 163.357 367.468 Q166.436 362.861 172.246 362.861 Z" fill="#000000" fill-rule="nonzero" fill-opacity="1" /><path clip-path="url(#clip420)" d="M220.579 372.584 L210 383.209 L220.579 393.787 L217.824 396.588 L207.199 385.963 L196.575 396.588 L193.843 393.787 L204.399 383.209 L193.843 372.584 L196.575 369.783 L207.199 380.408 L217.824 369.783 L220.579 372.584 Z" fill="#000000" fill-rule="nonzero" fill-opacity="1" /><path clip-path="url(#clip420)" d="M232.94 394.111 L240.579 394.111 L240.579 367.746 L232.269 369.412 L232.269 365.153 L240.533 363.486 L245.209 363.486 L245.209 394.111 L252.847 394.111 L252.847 398.046 L232.94 398.046 L232.94 394.111 Z" fill="#000000" fill-rule="nonzero" fill-opacity="1" /><path clip-path="url(#clip420)" d="M272.292 366.565 Q268.681 366.565 266.852 370.13 Q265.046 373.672 265.046 380.801 Q265.046 387.908 266.852 391.472 Q268.681 395.014 272.292 395.014 Q275.926 395.014 277.732 391.472 Q279.56 387.908 279.56 380.801 Q279.56 373.672 277.732 370.13 Q275.926 366.565 272.292 366.565 M272.292 362.861 Q278.102 362.861 281.157 367.468 Q284.236 372.051 284.236 380.801 Q284.236 389.528 281.157 394.134 Q278.102 398.718 272.292 398.718 Q266.482 398.718 263.403 394.134 Q260.347 389.528 260.347 380.801 Q260.347 372.051 263.403 367.468 Q266.482 362.861 272.292 362.861 Z" fill="#000000" fill-rule="nonzero" fill-opacity="1" /><path clip-path="url(#clip420)" d="M284.236 342.556 L302.292 342.556 L302.292 344.174 L292.098 370.636 L288.129 370.636 L297.721 345.753 L284.236 345.753 L284.236 342.556 Z" fill="#000000" fill-rule="nonzero" fill-opacity="1" /><path clip-path="url(#clip420)" d="M131.181 261.617 Q134.538 262.334 136.413 264.603 Q138.311 266.871 138.311 270.205 Q138.311 275.32 134.792 278.121 Q131.274 280.922 124.793 280.922 Q122.617 280.922 120.302 280.482 Q118.01 280.066 115.556 279.209 L115.556 274.695 Q117.501 275.83 119.816 276.408 Q122.13 276.987 124.654 276.987 Q129.052 276.987 131.343 275.251 Q133.658 273.515 133.658 270.205 Q133.658 267.149 131.505 265.436 Q129.376 263.7 125.556 263.7 L121.529 263.7 L121.529 259.858 L125.742 259.858 Q129.191 259.858 131.019 258.492 Q132.848 257.103 132.848 254.51 Q132.848 251.848 130.95 250.436 Q129.075 249.001 125.556 249.001 Q123.635 249.001 121.436 249.418 Q119.237 249.834 116.598 250.714 L116.598 246.547 Q119.26 245.807 121.575 245.436 Q123.913 245.066 125.973 245.066 Q131.297 245.066 134.399 247.497 Q137.501 249.904 137.501 254.024 Q137.501 256.895 135.857 258.885 Q134.214 260.853 131.181 261.617 Z" fill="#000000" fill-rule="nonzero" fill-opacity="1" /><path clip-path="url(#clip420)" d="M147.177 274.371 L152.061 274.371 L152.061 280.251 L147.177 280.251 L147.177 274.371 Z" fill="#000000" fill-rule="nonzero" fill-opacity="1" /><path clip-path="url(#clip420)" d="M172.246 248.77 Q168.635 248.77 166.806 252.334 Q165.001 255.876 165.001 263.006 Q165.001 270.112 166.806 273.677 Q168.635 277.219 172.246 277.219 Q175.88 277.219 177.686 273.677 Q179.514 270.112 179.514 263.006 Q179.514 255.876 177.686 252.334 Q175.88 248.77 172.246 248.77 M172.246 245.066 Q178.056 245.066 181.112 249.672 Q184.19 254.256 184.19 263.006 Q184.19 271.733 181.112 276.339 Q178.056 280.922 172.246 280.922 Q166.436 280.922 163.357 276.339 Q160.302 271.733 160.302 263.006 Q160.302 254.256 163.357 249.672 Q166.436 245.066 172.246 245.066 Z" fill="#000000" fill-rule="nonzero" fill-opacity="1" /><path clip-path="url(#clip420)" d="M220.579 254.788 L210 265.413 L220.579 275.992 L217.824 278.793 L207.199 268.168 L196.575 278.793 L193.843 275.992 L204.399 265.413 L193.843 254.788 L196.575 251.987 L207.199 262.612 L217.824 251.987 L220.579 254.788 Z" fill="#000000" fill-rule="nonzero" fill-opacity="1" /><path clip-path="url(#clip420)" d="M232.94 276.316 L240.579 276.316 L240.579 249.95 L232.269 251.617 L232.269 247.358 L240.533 245.691 L245.209 245.691 L245.209 276.316 L252.847 276.316 L252.847 280.251 L232.94 280.251 L232.94 276.316 Z" fill="#000000" fill-rule="nonzero" fill-opacity="1" /><path clip-path="url(#clip420)" d="M272.292 248.77 Q268.681 248.77 266.852 252.334 Q265.046 255.876 265.046 263.006 Q265.046 270.112 266.852 273.677 Q268.681 277.219 272.292 277.219 Q275.926 277.219 277.732 273.677 Q279.56 270.112 279.56 263.006 Q279.56 255.876 277.732 252.334 Q275.926 248.77 272.292 248.77 M272.292 245.066 Q278.102 245.066 281.157 249.672 Q284.236 254.256 284.236 263.006 Q284.236 271.733 281.157 276.339 Q278.102 280.922 272.292 280.922 Q266.482 280.922 263.403 276.339 Q260.347 271.733 260.347 263.006 Q260.347 254.256 263.403 249.672 Q266.482 245.066 272.292 245.066 Z" fill="#000000" fill-rule="nonzero" fill-opacity="1" /><path clip-path="url(#clip420)" d="M284.236 224.761 L302.292 224.761 L302.292 226.378 L292.098 252.841 L288.129 252.841 L297.721 227.958 L284.236 227.958 L284.236 224.761 Z" fill="#000000" fill-rule="nonzero" fill-opacity="1" /><path clip-path="url(#clip420)" d="M129.862 131.97 L118.056 150.419 L129.862 150.419 L129.862 131.97 M128.635 127.896 L134.515 127.896 L134.515 150.419 L139.445 150.419 L139.445 154.307 L134.515 154.307 L134.515 162.456 L129.862 162.456 L129.862 154.307 L114.26 154.307 L114.26 149.794 L128.635 127.896 Z" fill="#000000" fill-rule="nonzero" fill-opacity="1" /><path clip-path="url(#clip420)" d="M147.177 156.576 L152.061 156.576 L152.061 162.456 L147.177 162.456 L147.177 156.576 Z" fill="#000000" fill-rule="nonzero" fill-opacity="1" /><path clip-path="url(#clip420)" d="M172.246 130.974 Q168.635 130.974 166.806 134.539 Q165.001 138.081 165.001 145.21 Q165.001 152.317 166.806 155.881 Q168.635 159.423 172.246 159.423 Q175.88 159.423 177.686 155.881 Q179.514 152.317 179.514 145.21 Q179.514 138.081 177.686 134.539 Q175.88 130.974 172.246 130.974 M172.246 127.271 Q178.056 127.271 181.112 131.877 Q184.19 136.46 184.19 145.21 Q184.19 153.937 181.112 158.544 Q178.056 163.127 172.246 163.127 Q166.436 163.127 163.357 158.544 Q160.302 153.937 160.302 145.21 Q160.302 136.46 163.357 131.877 Q166.436 127.271 172.246 127.271 Z" fill="#000000" fill-rule="nonzero" fill-opacity="1" /><path clip-path="url(#clip420)" d="M220.579 136.993 L210 147.618 L220.579 158.196 L217.824 160.997 L207.199 150.372 L196.575 160.997 L193.843 158.196 L204.399 147.618 L193.843 136.993 L196.575 134.192 L207.199 144.817 L217.824 134.192 L220.579 136.993 Z" fill="#000000" fill-rule="nonzero" fill-opacity="1" /><path clip-path="url(#clip420)" d="M232.94 158.52 L240.579 158.52 L240.579 132.155 L232.269 133.821 L232.269 129.562 L240.533 127.896 L245.209 127.896 L245.209 158.52 L252.847 158.52 L252.847 162.456 L232.94 162.456 L232.94 158.52 Z" fill="#000000" fill-rule="nonzero" fill-opacity="1" /><path clip-path="url(#clip420)" d="M272.292 130.974 Q268.681 130.974 266.852 134.539 Q265.046 138.081 265.046 145.21 Q265.046 152.317 266.852 155.881 Q268.681 159.423 272.292 159.423 Q275.926 159.423 277.732 155.881 Q279.56 152.317 279.56 145.21 Q279.56 138.081 277.732 134.539 Q275.926 130.974 272.292 130.974 M272.292 127.271 Q278.102 127.271 281.157 131.877 Q284.236 136.46 284.236 145.21 Q284.236 153.937 281.157 158.544 Q278.102 163.127 272.292 163.127 Q266.482 163.127 263.403 158.544 Q260.347 153.937 260.347 145.21 Q260.347 136.46 263.403 131.877 Q266.482 127.271 272.292 127.271 Z" fill="#000000" fill-rule="nonzero" fill-opacity="1" /><path clip-path="url(#clip420)" d="M284.236 106.965 L302.292 106.965 L302.292 108.583 L292.098 135.045 L288.129 135.045 L297.721 110.162 L284.236 110.162 L284.236 106.965 Z" fill="#000000" fill-rule="nonzero" fill-opacity="1" /><path clip-path="url(#clip420)" d="M42.4881 367.168 L64.0042 367.168 L64.0042 373.024 L42.679 373.024 Q37.6183 373.024 35.1038 374.998 Q32.5894 376.971 32.5894 380.918 Q32.5894 385.66 35.6131 388.397 Q38.6368 391.135 43.8567 391.135 L64.0042 391.135 L64.0042 397.023 L14.479 397.023 L14.479 391.135 L33.8944 391.135 Q30.6797 389.034 29.0883 386.201 Q27.4968 383.337 27.4968 379.613 Q27.4968 373.47 31.3163 370.319 Q35.1038 367.168 42.4881 367.168 Z" fill="#000000" fill-rule="nonzero" fill-opacity="1" /><path clip-path="url(#clip420)" d="M14.5426 341.419 Q21.8632 345.684 29.0246 347.752 Q36.186 349.821 43.5384 349.821 Q50.8908 349.821 58.1159 347.752 Q65.3091 345.652 72.5979 341.419 L72.5979 346.511 Q65.1182 351.285 57.8931 353.673 Q50.668 356.028 43.5384 356.028 Q36.4406 356.028 29.2474 353.673 Q22.0542 351.317 14.5426 346.511 L14.5426 341.419 Z" fill="#000000" fill-rule="nonzero" fill-opacity="1" /><path clip-path="url(#clip420)" d="M47.4215 309.272 L40.0691 310.672 Q32.5257 312.104 32.5257 317.77 Q32.5257 322.035 36.0269 323.976 Q40.4192 326.427 46.212 326.427 Q53.2143 326.427 56.5563 324.04 Q59.9619 321.621 59.9619 317.77 Q59.9619 313.505 53.1825 311.213 L47.4215 309.272 M37.682 305.993 L28.3562 302.842 L28.3562 297.622 L47.6761 304.147 L54.6466 302.874 Q56.2062 302.588 57.5111 301.474 Q59.0389 300.169 59.0389 299.15 L59.0389 296.349 L64.0042 296.349 L64.0042 299.85 Q64.0042 302.842 61.3306 305.516 Q59.9938 306.821 57.1929 307.362 Q60.7258 308.826 63.4949 311.818 Q64.7999 313.218 64.7999 317.77 Q64.7999 325.25 59.9619 328.878 Q54.9649 332.602 46.212 332.602 Q36.8544 332.602 32.4621 328.56 Q27.5605 324.072 27.5605 317.77 Q27.5605 307.871 37.682 305.993 Z" fill="#000000" fill-rule="nonzero" fill-opacity="1" /><path clip-path="url(#clip420)" d="M14.5426 288.01 L14.5426 282.918 Q22.0542 278.143 29.2474 275.788 Q36.4406 273.401 43.5384 273.401 Q50.668 273.401 57.8931 275.788 Q65.1182 278.143 72.5979 282.918 L72.5979 288.01 Q65.3091 283.777 58.1159 281.708 Q50.8908 279.608 43.5384 279.608 Q36.186 279.608 29.0246 281.708 Q21.8632 283.777 14.5426 288.01 Z" fill="#000000" fill-rule="nonzero" fill-opacity="1" /><polyline clip-path="url(#clip422)" style="stroke:#009af9; stroke-linecap:round; stroke-linejoin:round; stroke-width:4; stroke-opacity:1; fill:none" points="338.292,318.17 339.689,320.394 341.087,322.609 342.485,324.816 343.883,327.015 356.808,346.936 369.734,366.121 382.659,384.571 395.585,402.286 411.12,422.606 426.655,441.863 439.79,457.316 452.925,472.01 467.193,487.111 481.461,501.316 494.615,513.619 507.769,525.159 521.872,536.686 535.974,547.337 552.313,558.583 568.652,568.653 583.172,576.616 597.693,583.65 610.425,589.054 623.158,593.744 637.041,598.043 650.923,601.493 664.888,604.106 678.853,605.86 694.293,606.799 709.732,606.686 724.423,605.603 739.114,603.569 754.389,600.446 769.664,596.294 782.522,592.002 795.38,586.982 811.078,579.866 826.777,571.665 841.157,563.2 855.538,553.824 868.82,544.357 882.102,534.112 895.556,522.943 909.01,510.978 924.088,496.621 939.166,481.264 952.829,466.483 966.492,450.881 982.136,432.01 997.779,412.061 1012.26,392.63 1026.75,372.275 1041.03,351.305 1055.31,329.437 1069.17,307.346 1083.04,284.41 1097.25,260.019 1111.46,234.739 1127.04,206.022 1142.61,176.238 1153.92,153.936 1165.23,131.07 1176.54,107.643 1187.85,83.6517 1190.17,78.6604 1192.49,73.6453 1194.81,68.6066 1197.13,63.5442 "/>
<path clip-path="url(#clip422)" d="M700.358 590.88 L696.598 601.696 L685.142 601.936 L694.278 608.864 L690.95 619.824 L700.358 613.28 L709.766 619.824 L706.438 608.864 L715.574 601.936 L704.118 601.696 L700.358 590.88 Z" fill="#ff0000" fill-rule="evenodd" fill-opacity="1" stroke="none"/>
<circle clip-path="url(#clip422)" cx="624.571" cy="594.22" r="14.4" fill="#008000" fill-rule="evenodd" fill-opacity="1" stroke="none"/>
<path clip-path="url(#clip420)" d="M1493.92 623.18 L2352.76 623.18 L2352.76 47.2441 L1493.92 47.2441  Z" fill="#ffffff" fill-rule="evenodd" fill-opacity="1"/>
<defs>
  <clipPath id="clip423">
    <rect x="1493" y="47" width="860" height="577"/>
  </clipPath>
</defs>
<polyline clip-path="url(#clip423)" style="stroke:#000000; stroke-linecap:round; stroke-linejoin:round; stroke-width:2; stroke-opacity:0.1; fill:none" points="1518.22,623.18 1518.22,47.2441 "/>
<polyline clip-path="url(#clip423)" style="stroke:#000000; stroke-linecap:round; stroke-linejoin:round; stroke-width:2; stroke-opacity:0.1; fill:none" points="1749.72,623.18 1749.72,47.2441 "/>
<polyline clip-path="url(#clip423)" style="stroke:#000000; stroke-linecap:round; stroke-linejoin:round; stroke-width:2; stroke-opacity:0.1; fill:none" points="1981.21,623.18 1981.21,47.2441 "/>
<polyline clip-path="url(#clip423)" style="stroke:#000000; stroke-linecap:round; stroke-linejoin:round; stroke-width:2; stroke-opacity:0.1; fill:none" points="2212.7,623.18 2212.7,47.2441 "/>
<polyline clip-path="url(#clip420)" style="stroke:#000000; stroke-linecap:round; stroke-linejoin:round; stroke-width:4; stroke-opacity:1; fill:none" points="1493.92,623.18 2352.76,623.18 "/>
<polyline clip-path="url(#clip420)" style="stroke:#000000; stroke-linecap:round; stroke-linejoin:round; stroke-width:4; stroke-opacity:1; fill:none" points="1518.22,623.18 1518.22,604.282 "/>
<polyline clip-path="url(#clip420)" style="stroke:#000000; stroke-linecap:round; stroke-linejoin:round; stroke-width:4; stroke-opacity:1; fill:none" points="1749.72,623.18 1749.72,604.282 "/>
<polyline clip-path="url(#clip420)" style="stroke:#000000; stroke-linecap:round; stroke-linejoin:round; stroke-width:4; stroke-opacity:1; fill:none" points="1981.21,623.18 1981.21,604.282 "/>
<polyline clip-path="url(#clip420)" style="stroke:#000000; stroke-linecap:round; stroke-linejoin:round; stroke-width:4; stroke-opacity:1; fill:none" points="2212.7,623.18 2212.7,604.282 "/>
<path clip-path="url(#clip420)" d="M1518.22 654.099 Q1514.61 654.099 1512.78 657.663 Q1510.98 661.205 1510.98 668.335 Q1510.98 675.441 1512.78 679.006 Q1514.61 682.547 1518.22 682.547 Q1521.86 682.547 1523.66 679.006 Q1525.49 675.441 1525.49 668.335 Q1525.49 661.205 1523.66 657.663 Q1521.86 654.099 1518.22 654.099 M1518.22 650.395 Q1524.03 650.395 1527.09 655.001 Q1530.17 659.585 1530.17 668.335 Q1530.17 677.061 1527.09 681.668 Q1524.03 686.251 1518.22 686.251 Q1512.41 686.251 1509.33 681.668 Q1506.28 677.061 1506.28 668.335 Q1506.28 659.585 1509.33 655.001 Q1512.41 650.395 1518.22 650.395 Z" fill="#000000" fill-rule="nonzero" fill-opacity="1" /><path clip-path="url(#clip420)" d="M1744.37 681.645 L1760.69 681.645 L1760.69 685.58 L1738.74 685.58 L1738.74 681.645 Q1741.41 678.89 1745.99 674.26 Q1750.6 669.608 1751.78 668.265 Q1754.02 665.742 1754.9 664.006 Q1755.8 662.247 1755.8 660.557 Q1755.8 657.802 1753.86 656.066 Q1751.94 654.33 1748.84 654.33 Q1746.64 654.33 1744.18 655.094 Q1741.75 655.858 1738.98 657.409 L1738.98 652.687 Q1741.8 651.552 1744.25 650.974 Q1746.71 650.395 1748.74 650.395 Q1754.11 650.395 1757.31 653.08 Q1760.5 655.765 1760.5 660.256 Q1760.5 662.386 1759.69 664.307 Q1758.91 666.205 1756.8 668.798 Q1756.22 669.469 1753.12 672.686 Q1750.02 675.881 1744.37 681.645 Z" fill="#000000" fill-rule="nonzero" fill-opacity="1" /><path clip-path="url(#clip420)" d="M1984.22 655.094 L1972.41 673.543 L1984.22 673.543 L1984.22 655.094 M1982.99 651.02 L1988.87 651.02 L1988.87 673.543 L1993.8 673.543 L1993.8 677.432 L1988.87 677.432 L1988.87 685.58 L1984.22 685.58 L1984.22 677.432 L1968.62 677.432 L1968.62 672.918 L1982.99 651.02 Z" fill="#000000" fill-rule="nonzero" fill-opacity="1" /><path clip-path="url(#clip420)" d="M2213.11 666.436 Q2209.96 666.436 2208.11 668.589 Q2206.28 670.742 2206.28 674.492 Q2206.28 678.219 2208.11 680.395 Q2209.96 682.547 2213.11 682.547 Q2216.26 682.547 2218.08 680.395 Q2219.94 678.219 2219.94 674.492 Q2219.94 670.742 2218.08 668.589 Q2216.26 666.436 2213.11 666.436 M2222.39 651.784 L2222.39 656.043 Q2220.63 655.21 2218.83 654.77 Q2217.04 654.33 2215.28 654.33 Q2210.65 654.33 2208.2 657.455 Q2205.77 660.58 2205.42 666.899 Q2206.79 664.886 2208.85 663.821 Q2210.91 662.733 2213.39 662.733 Q2218.59 662.733 2221.6 665.904 Q2224.64 669.052 2224.64 674.492 Q2224.64 679.816 2221.49 683.034 Q2218.34 686.251 2213.11 686.251 Q2207.11 686.251 2203.94 681.668 Q2200.77 677.061 2200.77 668.335 Q2200.77 660.14 2204.66 655.279 Q2208.55 650.395 2215.1 650.395 Q2216.86 650.395 2218.64 650.742 Q2220.45 651.089 2222.39 651.784 Z" fill="#000000" fill-rule="nonzero" fill-opacity="1" /><path clip-path="url(#clip420)" d="M1791.49 732.396 L1797.34 732.396 L1797.34 768.044 L1791.49 768.044 L1791.49 732.396 M1791.49 718.519 L1797.34 718.519 L1797.34 725.935 L1791.49 725.935 L1791.49 718.519 Z" fill="#000000" fill-rule="nonzero" fill-opacity="1" /><path clip-path="url(#clip420)" d="M1815.39 722.274 L1815.39 732.396 L1827.45 732.396 L1827.45 736.947 L1815.39 736.947 L1815.39 756.299 Q1815.39 760.66 1816.57 761.901 Q1817.78 763.142 1821.44 763.142 L1827.45 763.142 L1827.45 768.044 L1821.44 768.044 Q1814.66 768.044 1812.08 765.529 Q1809.5 762.983 1809.5 756.299 L1809.5 736.947 L1805.2 736.947 L1805.2 732.396 L1809.5 732.396 L1809.5 722.274 L1815.39 722.274 Z" fill="#000000" fill-rule="nonzero" fill-opacity="1" /><path clip-path="url(#clip420)" d="M1865.65 748.756 L1865.65 751.62 L1838.72 751.62 Q1839.1 757.668 1842.35 760.851 Q1845.63 764.002 1851.45 764.002 Q1854.83 764.002 1857.98 763.174 Q1861.16 762.347 1864.28 760.691 L1864.28 766.23 Q1861.13 767.566 1857.82 768.267 Q1854.51 768.967 1851.1 768.967 Q1842.57 768.967 1837.57 764.002 Q1832.61 759.036 1832.61 750.57 Q1832.61 741.817 1837.32 736.693 Q1842.06 731.537 1850.08 731.537 Q1857.28 731.537 1861.45 736.183 Q1865.65 740.799 1865.65 748.756 M1859.79 747.037 Q1859.73 742.231 1857.09 739.366 Q1854.48 736.502 1850.15 736.502 Q1845.25 736.502 1842.28 739.271 Q1839.36 742.04 1838.91 747.069 L1859.79 747.037 Z" fill="#000000" fill-rule="nonzero" fill-opacity="1" /><path clip-path="url(#clip420)" d="M1895.92 737.87 Q1894.93 737.297 1893.75 737.043 Q1892.61 736.756 1891.21 736.756 Q1886.24 736.756 1883.57 740.003 Q1880.92 743.218 1880.92 749.265 L1880.92 768.044 L1875.04 768.044 L1875.04 732.396 L1880.92 732.396 L1880.92 737.934 Q1882.77 734.688 1885.73 733.128 Q1888.69 731.537 1892.92 731.537 Q1893.53 731.537 1894.26 731.632 Q1894.99 731.696 1895.88 731.855 L1895.92 737.87 Z" fill="#000000" fill-rule="nonzero" fill-opacity="1" /><path clip-path="url(#clip420)" d="M1918.26 750.124 Q1911.16 750.124 1908.42 751.748 Q1905.69 753.371 1905.69 757.286 Q1905.69 760.405 1907.72 762.251 Q1909.79 764.065 1913.33 764.065 Q1918.2 764.065 1921.12 760.628 Q1924.08 757.158 1924.08 751.429 L1924.08 750.124 L1918.26 750.124 M1929.94 747.705 L1929.94 768.044 L1924.08 768.044 L1924.08 762.633 Q1922.08 765.88 1919.09 767.439 Q1916.1 768.967 1911.77 768.967 Q1906.29 768.967 1903.05 765.911 Q1899.83 762.824 1899.83 757.668 Q1899.83 751.652 1903.84 748.597 Q1907.88 745.541 1915.87 745.541 L1924.08 745.541 L1924.08 744.968 Q1924.08 740.926 1921.41 738.73 Q1918.77 736.502 1913.96 736.502 Q1910.91 736.502 1908.01 737.234 Q1905.11 737.966 1902.44 739.43 L1902.44 734.019 Q1905.66 732.778 1908.68 732.173 Q1911.7 731.537 1914.57 731.537 Q1922.3 731.537 1926.12 735.547 Q1929.94 739.557 1929.94 747.705 Z" fill="#000000" fill-rule="nonzero" fill-opacity="1" /><path clip-path="url(#clip420)" d="M1947.8 722.274 L1947.8 732.396 L1959.86 732.396 L1959.86 736.947 L1947.8 736.947 L1947.8 756.299 Q1947.8 760.66 1948.97 761.901 Q1950.18 763.142 1953.84 763.142 L1959.86 763.142 L1959.86 768.044 L1953.84 768.044 Q1947.06 768.044 1944.49 765.529 Q1941.91 762.983 1941.91 756.299 L1941.91 736.947 L1937.61 736.947 L1937.61 732.396 L1941.91 732.396 L1941.91 722.274 L1947.8 722.274 Z" fill="#000000" fill-rule="nonzero" fill-opacity="1" /><path clip-path="url(#clip420)" d="M1967.56 732.396 L1973.42 732.396 L1973.42 768.044 L1967.56 768.044 L1967.56 732.396 M1967.56 718.519 L1973.42 718.519 L1973.42 725.935 L1967.56 725.935 L1967.56 718.519 Z" fill="#000000" fill-rule="nonzero" fill-opacity="1" /><path clip-path="url(#clip420)" d="M1999.49 736.502 Q1994.78 736.502 1992.04 740.194 Q1989.3 743.854 1989.3 750.252 Q1989.3 756.649 1992.01 760.341 Q1994.74 764.002 1999.49 764.002 Q2004.16 764.002 2006.9 760.31 Q2009.64 756.617 2009.64 750.252 Q2009.64 743.918 2006.9 740.226 Q2004.16 736.502 1999.49 736.502 M1999.49 731.537 Q2007.12 731.537 2011.49 736.502 Q2015.85 741.467 2015.85 750.252 Q2015.85 759.005 2011.49 764.002 Q2007.12 768.967 1999.49 768.967 Q1991.82 768.967 1987.45 764.002 Q1983.13 759.005 1983.13 750.252 Q1983.13 741.467 1987.45 736.502 Q1991.82 731.537 1999.49 731.537 Z" fill="#000000" fill-rule="nonzero" fill-opacity="1" /><path clip-path="url(#clip420)" d="M2055.19 746.528 L2055.19 768.044 L2049.33 768.044 L2049.33 746.719 Q2049.33 741.658 2047.36 739.144 Q2045.38 736.629 2041.44 736.629 Q2036.69 736.629 2033.96 739.653 Q2031.22 742.677 2031.22 747.896 L2031.22 768.044 L2025.33 768.044 L2025.33 732.396 L2031.22 732.396 L2031.22 737.934 Q2033.32 734.719 2036.15 733.128 Q2039.02 731.537 2042.74 731.537 Q2048.88 731.537 2052.04 735.356 Q2055.19 739.144 2055.19 746.528 Z" fill="#000000" fill-rule="nonzero" fill-opacity="1" /><polyline clip-path="url(#clip423)" style="stroke:#000000; stroke-linecap:round; stroke-linejoin:round; stroke-width:2; stroke-opacity:0.1; fill:none" points="1493.92,606.88 2352.76,606.88 "/>
<polyline clip-path="url(#clip423)" style="stroke:#000000; stroke-linecap:round; stroke-linejoin:round; stroke-width:2; stroke-opacity:0.1; fill:none" points="1493.92,504.259 2352.76,504.259 "/>
<polyline clip-path="url(#clip423)" style="stroke:#000000; stroke-linecap:round; stroke-linejoin:round; stroke-width:2; stroke-opacity:0.1; fill:none" points="1493.92,401.638 2352.76,401.638 "/>
<polyline clip-path="url(#clip423)" style="stroke:#000000; stroke-linecap:round; stroke-linejoin:round; stroke-width:2; stroke-opacity:0.1; fill:none" points="1493.92,299.017 2352.76,299.017 "/>
<polyline clip-path="url(#clip423)" style="stroke:#000000; stroke-linecap:round; stroke-linejoin:round; stroke-width:2; stroke-opacity:0.1; fill:none" points="1493.92,196.396 2352.76,196.396 "/>
<polyline clip-path="url(#clip423)" style="stroke:#000000; stroke-linecap:round; stroke-linejoin:round; stroke-width:2; stroke-opacity:0.1; fill:none" points="1493.92,93.7753 2352.76,93.7753 "/>
<polyline clip-path="url(#clip420)" style="stroke:#000000; stroke-linecap:round; stroke-linejoin:round; stroke-width:4; stroke-opacity:1; fill:none" points="1493.92,623.18 1493.92,47.2441 "/>
<polyline clip-path="url(#clip420)" style="stroke:#000000; stroke-linecap:round; stroke-linejoin:round; stroke-width:4; stroke-opacity:1; fill:none" points="1493.92,606.88 1512.81,606.88 "/>
<polyline clip-path="url(#clip420)" style="stroke:#000000; stroke-linecap:round; stroke-linejoin:round; stroke-width:4; stroke-opacity:1; fill:none" points="1493.92,504.259 1512.81,504.259 "/>
<polyline clip-path="url(#clip420)" style="stroke:#000000; stroke-linecap:round; stroke-linejoin:round; stroke-width:4; stroke-opacity:1; fill:none" points="1493.92,401.638 1512.81,401.638 "/>
<polyline clip-path="url(#clip420)" style="stroke:#000000; stroke-linecap:round; stroke-linejoin:round; stroke-width:4; stroke-opacity:1; fill:none" points="1493.92,299.017 1512.81,299.017 "/>
<polyline clip-path="url(#clip420)" style="stroke:#000000; stroke-linecap:round; stroke-linejoin:round; stroke-width:4; stroke-opacity:1; fill:none" points="1493.92,196.396 1512.81,196.396 "/>
<polyline clip-path="url(#clip420)" style="stroke:#000000; stroke-linecap:round; stroke-linejoin:round; stroke-width:4; stroke-opacity:1; fill:none" points="1493.92,93.7753 1512.81,93.7753 "/>
<path clip-path="url(#clip420)" d="M1370.58 592.678 Q1366.97 592.678 1365.14 596.243 Q1363.33 599.785 1363.33 606.914 Q1363.33 614.021 1365.14 617.586 Q1366.97 621.127 1370.58 621.127 Q1374.21 621.127 1376.02 617.586 Q1377.85 614.021 1377.85 606.914 Q1377.85 599.785 1376.02 596.243 Q1374.21 592.678 1370.58 592.678 M1370.58 588.975 Q1376.39 588.975 1379.44 593.581 Q1382.52 598.165 1382.52 606.914 Q1382.52 615.641 1379.44 620.248 Q1376.39 624.831 1370.58 624.831 Q1364.77 624.831 1361.69 620.248 Q1358.63 615.641 1358.63 606.914 Q1358.63 598.165 1361.69 593.581 Q1364.77 588.975 1370.58 588.975 Z" fill="#000000" fill-rule="nonzero" fill-opacity="1" /><path clip-path="url(#clip420)" d="M1390.74 618.28 L1395.63 618.28 L1395.63 624.16 L1390.74 624.16 L1390.74 618.28 Z" fill="#000000" fill-rule="nonzero" fill-opacity="1" /><path clip-path="url(#clip420)" d="M1415.81 592.678 Q1412.2 592.678 1410.37 596.243 Q1408.57 599.785 1408.57 606.914 Q1408.57 614.021 1410.37 617.586 Q1412.2 621.127 1415.81 621.127 Q1419.44 621.127 1421.25 617.586 Q1423.08 614.021 1423.08 606.914 Q1423.08 599.785 1421.25 596.243 Q1419.44 592.678 1415.81 592.678 M1415.81 588.975 Q1421.62 588.975 1424.68 593.581 Q1427.75 598.165 1427.75 606.914 Q1427.75 615.641 1424.68 620.248 Q1421.62 624.831 1415.81 624.831 Q1410 624.831 1406.92 620.248 Q1403.87 615.641 1403.87 606.914 Q1403.87 598.165 1406.92 593.581 Q1410 588.975 1415.81 588.975 Z" fill="#000000" fill-rule="nonzero" fill-opacity="1" /><path clip-path="url(#clip420)" d="M1445.97 592.678 Q1442.36 592.678 1440.53 596.243 Q1438.73 599.785 1438.73 606.914 Q1438.73 614.021 1440.53 617.586 Q1442.36 621.127 1445.97 621.127 Q1449.61 621.127 1451.41 617.586 Q1453.24 614.021 1453.24 606.914 Q1453.24 599.785 1451.41 596.243 Q1449.61 592.678 1445.97 592.678 M1445.97 588.975 Q1451.78 588.975 1454.84 593.581 Q1457.92 598.165 1457.92 606.914 Q1457.92 615.641 1454.84 620.248 Q1451.78 624.831 1445.97 624.831 Q1440.16 624.831 1437.08 620.248 Q1434.03 615.641 1434.03 606.914 Q1434.03 598.165 1437.08 593.581 Q1440.16 588.975 1445.97 588.975 Z" fill="#000000" fill-rule="nonzero" fill-opacity="1" /><path clip-path="url(#clip420)" d="M1371.57 490.058 Q1367.96 490.058 1366.13 493.622 Q1364.33 497.164 1364.33 504.294 Q1364.33 511.4 1366.13 514.965 Q1367.96 518.506 1371.57 518.506 Q1375.21 518.506 1377.01 514.965 Q1378.84 511.4 1378.84 504.294 Q1378.84 497.164 1377.01 493.622 Q1375.21 490.058 1371.57 490.058 M1371.57 486.354 Q1377.38 486.354 1380.44 490.96 Q1383.52 495.544 1383.52 504.294 Q1383.52 513.02 1380.44 517.627 Q1377.38 522.21 1371.57 522.21 Q1365.76 522.21 1362.69 517.627 Q1359.63 513.02 1359.63 504.294 Q1359.63 495.544 1362.69 490.96 Q1365.76 486.354 1371.57 486.354 Z" fill="#000000" fill-rule="nonzero" fill-opacity="1" /><path clip-path="url(#clip420)" d="M1391.74 515.659 L1396.62 515.659 L1396.62 521.539 L1391.74 521.539 L1391.74 515.659 Z" fill="#000000" fill-rule="nonzero" fill-opacity="1" /><path clip-path="url(#clip420)" d="M1416.81 490.058 Q1413.19 490.058 1411.37 493.622 Q1409.56 497.164 1409.56 504.294 Q1409.56 511.4 1411.37 514.965 Q1413.19 518.506 1416.81 518.506 Q1420.44 518.506 1422.25 514.965 Q1424.07 511.4 1424.07 504.294 Q1424.07 497.164 1422.25 493.622 Q1420.44 490.058 1416.81 490.058 M1416.81 486.354 Q1422.62 486.354 1425.67 490.96 Q1428.75 495.544 1428.75 504.294 Q1428.75 513.02 1425.67 517.627 Q1422.62 522.21 1416.81 522.21 Q1411 522.21 1407.92 517.627 Q1404.86 513.02 1404.86 504.294 Q1404.86 495.544 1407.92 490.96 Q1411 486.354 1416.81 486.354 Z" fill="#000000" fill-rule="nonzero" fill-opacity="1" /><path clip-path="url(#clip420)" d="M1437.01 486.979 L1455.37 486.979 L1455.37 490.914 L1441.3 490.914 L1441.3 499.386 Q1442.32 499.039 1443.33 498.877 Q1444.35 498.692 1445.37 498.692 Q1451.16 498.692 1454.54 501.863 Q1457.92 505.034 1457.92 510.451 Q1457.92 516.03 1454.44 519.131 Q1450.97 522.21 1444.65 522.21 Q1442.48 522.21 1440.21 521.84 Q1437.96 521.469 1435.56 520.729 L1435.56 516.03 Q1437.64 517.164 1439.86 517.719 Q1442.08 518.275 1444.56 518.275 Q1448.56 518.275 1450.9 516.169 Q1453.24 514.062 1453.24 510.451 Q1453.24 506.84 1450.9 504.733 Q1448.56 502.627 1444.56 502.627 Q1442.69 502.627 1440.81 503.044 Q1438.96 503.46 1437.01 504.34 L1437.01 486.979 Z" fill="#000000" fill-rule="nonzero" fill-opacity="1" /><path clip-path="url(#clip420)" d="M1370.58 387.437 Q1366.97 387.437 1365.14 391.001 Q1363.33 394.543 1363.33 401.673 Q1363.33 408.779 1365.14 412.344 Q1366.97 415.886 1370.58 415.886 Q1374.21 415.886 1376.02 412.344 Q1377.85 408.779 1377.85 401.673 Q1377.85 394.543 1376.02 391.001 Q1374.21 387.437 1370.58 387.437 M1370.58 383.733 Q1376.39 383.733 1379.44 388.339 Q1382.52 392.923 1382.52 401.673 Q1382.52 410.399 1379.44 415.006 Q1376.39 419.589 1370.58 419.589 Q1364.77 419.589 1361.69 415.006 Q1358.63 410.399 1358.63 401.673 Q1358.63 392.923 1361.69 388.339 Q1364.77 383.733 1370.58 383.733 Z" fill="#000000" fill-rule="nonzero" fill-opacity="1" /><path clip-path="url(#clip420)" d="M1390.74 413.038 L1395.63 413.038 L1395.63 418.918 L1390.74 418.918 L1390.74 413.038 Z" fill="#000000" fill-rule="nonzero" fill-opacity="1" /><path clip-path="url(#clip420)" d="M1406.62 414.983 L1414.26 414.983 L1414.26 388.617 L1405.95 390.284 L1405.95 386.025 L1414.21 384.358 L1418.89 384.358 L1418.89 414.983 L1426.53 414.983 L1426.53 418.918 L1406.62 418.918 L1406.62 414.983 Z" fill="#000000" fill-rule="nonzero" fill-opacity="1" /><path clip-path="url(#clip420)" d="M1445.97 387.437 Q1442.36 387.437 1440.53 391.001 Q1438.73 394.543 1438.73 401.673 Q1438.73 408.779 1440.53 412.344 Q1442.36 415.886 1445.97 415.886 Q1449.61 415.886 1451.41 412.344 Q1453.24 408.779 1453.24 401.673 Q1453.24 394.543 1451.41 391.001 Q1449.61 387.437 1445.97 387.437 M1445.97 383.733 Q1451.78 383.733 1454.84 388.339 Q1457.92 392.923 1457.92 401.673 Q1457.92 410.399 1454.84 415.006 Q1451.78 419.589 1445.97 419.589 Q1440.16 419.589 1437.08 415.006 Q1434.03 410.399 1434.03 401.673 Q1434.03 392.923 1437.08 388.339 Q1440.16 383.733 1445.97 383.733 Z" fill="#000000" fill-rule="nonzero" fill-opacity="1" /><path clip-path="url(#clip420)" d="M1371.57 284.816 Q1367.96 284.816 1366.13 288.381 Q1364.33 291.922 1364.33 299.052 Q1364.33 306.158 1366.13 309.723 Q1367.96 313.265 1371.57 313.265 Q1375.21 313.265 1377.01 309.723 Q1378.84 306.158 1378.84 299.052 Q1378.84 291.922 1377.01 288.381 Q1375.21 284.816 1371.57 284.816 M1371.57 281.112 Q1377.38 281.112 1380.44 285.719 Q1383.52 290.302 1383.52 299.052 Q1383.52 307.779 1380.44 312.385 Q1377.38 316.968 1371.57 316.968 Q1365.76 316.968 1362.69 312.385 Q1359.63 307.779 1359.63 299.052 Q1359.63 290.302 1362.69 285.719 Q1365.76 281.112 1371.57 281.112 Z" fill="#000000" fill-rule="nonzero" fill-opacity="1" /><path clip-path="url(#clip420)" d="M1391.74 310.417 L1396.62 310.417 L1396.62 316.297 L1391.74 316.297 L1391.74 310.417 Z" fill="#000000" fill-rule="nonzero" fill-opacity="1" /><path clip-path="url(#clip420)" d="M1407.62 312.362 L1415.25 312.362 L1415.25 285.996 L1406.94 287.663 L1406.94 283.404 L1415.21 281.737 L1419.88 281.737 L1419.88 312.362 L1427.52 312.362 L1427.52 316.297 L1407.62 316.297 L1407.62 312.362 Z" fill="#000000" fill-rule="nonzero" fill-opacity="1" /><path clip-path="url(#clip420)" d="M1437.01 281.737 L1455.37 281.737 L1455.37 285.672 L1441.3 285.672 L1441.3 294.144 Q1442.32 293.797 1443.33 293.635 Q1444.35 293.45 1445.37 293.45 Q1451.16 293.45 1454.54 296.621 Q1457.92 299.793 1457.92 305.209 Q1457.92 310.788 1454.44 313.89 Q1450.97 316.968 1444.65 316.968 Q1442.48 316.968 1440.21 316.598 Q1437.96 316.228 1435.56 315.487 L1435.56 310.788 Q1437.64 311.922 1439.86 312.478 Q1442.08 313.033 1444.56 313.033 Q1448.56 313.033 1450.9 310.927 Q1453.24 308.82 1453.24 305.209 Q1453.24 301.598 1450.9 299.492 Q1448.56 297.385 1444.56 297.385 Q1442.69 297.385 1440.81 297.802 Q1438.96 298.218 1437.01 299.098 L1437.01 281.737 Z" fill="#000000" fill-rule="nonzero" fill-opacity="1" /><path clip-path="url(#clip420)" d="M1370.58 182.195 Q1366.97 182.195 1365.14 185.76 Q1363.33 189.301 1363.33 196.431 Q1363.33 203.537 1365.14 207.102 Q1366.97 210.644 1370.58 210.644 Q1374.21 210.644 1376.02 207.102 Q1377.85 203.537 1377.85 196.431 Q1377.85 189.301 1376.02 185.76 Q1374.21 182.195 1370.58 182.195 M1370.58 178.491 Q1376.39 178.491 1379.44 183.098 Q1382.52 187.681 1382.52 196.431 Q1382.52 205.158 1379.44 209.764 Q1376.39 214.347 1370.58 214.347 Q1364.77 214.347 1361.69 209.764 Q1358.63 205.158 1358.63 196.431 Q1358.63 187.681 1361.69 183.098 Q1364.77 178.491 1370.58 178.491 Z" fill="#000000" fill-rule="nonzero" fill-opacity="1" /><path clip-path="url(#clip420)" d="M1390.74 207.797 L1395.63 207.797 L1395.63 213.676 L1390.74 213.676 L1390.74 207.797 Z" fill="#000000" fill-rule="nonzero" fill-opacity="1" /><path clip-path="url(#clip420)" d="M1409.84 209.741 L1426.16 209.741 L1426.16 213.676 L1404.21 213.676 L1404.21 209.741 Q1406.88 206.986 1411.46 202.357 Q1416.07 197.704 1417.25 196.361 Q1419.49 193.838 1420.37 192.102 Q1421.27 190.343 1421.27 188.653 Q1421.27 185.899 1419.33 184.162 Q1417.41 182.426 1414.31 182.426 Q1412.11 182.426 1409.65 183.19 Q1407.22 183.954 1404.44 185.505 L1404.44 180.783 Q1407.27 179.649 1409.72 179.07 Q1412.18 178.491 1414.21 178.491 Q1419.58 178.491 1422.78 181.176 Q1425.97 183.862 1425.97 188.352 Q1425.97 190.482 1425.16 192.403 Q1424.38 194.301 1422.27 196.894 Q1421.69 197.565 1418.59 200.783 Q1415.49 203.977 1409.84 209.741 Z" fill="#000000" fill-rule="nonzero" fill-opacity="1" /><path clip-path="url(#clip420)" d="M1445.97 182.195 Q1442.36 182.195 1440.53 185.76 Q1438.73 189.301 1438.73 196.431 Q1438.73 203.537 1440.53 207.102 Q1442.36 210.644 1445.97 210.644 Q1449.61 210.644 1451.41 207.102 Q1453.24 203.537 1453.24 196.431 Q1453.24 189.301 1451.41 185.76 Q1449.61 182.195 1445.97 182.195 M1445.97 178.491 Q1451.78 178.491 1454.84 183.098 Q1457.92 187.681 1457.92 196.431 Q1457.92 205.158 1454.84 209.764 Q1451.78 214.347 1445.97 214.347 Q1440.16 214.347 1437.08 209.764 Q1434.03 205.158 1434.03 196.431 Q1434.03 187.681 1437.08 183.098 Q1440.16 178.491 1445.97 178.491 Z" fill="#000000" fill-rule="nonzero" fill-opacity="1" /><path clip-path="url(#clip420)" d="M1371.57 79.5739 Q1367.96 79.5739 1366.13 83.1387 Q1364.33 86.6804 1364.33 93.81 Q1364.33 100.916 1366.13 104.481 Q1367.96 108.023 1371.57 108.023 Q1375.21 108.023 1377.01 104.481 Q1378.84 100.916 1378.84 93.81 Q1378.84 86.6804 1377.01 83.1387 Q1375.21 79.5739 1371.57 79.5739 M1371.57 75.8703 Q1377.38 75.8703 1380.44 80.4767 Q1383.52 85.06 1383.52 93.81 Q1383.52 102.537 1380.44 107.143 Q1377.38 111.727 1371.57 111.727 Q1365.76 111.727 1362.69 107.143 Q1359.63 102.537 1359.63 93.81 Q1359.63 85.06 1362.69 80.4767 Q1365.76 75.8703 1371.57 75.8703 Z" fill="#000000" fill-rule="nonzero" fill-opacity="1" /><path clip-path="url(#clip420)" d="M1391.74 105.176 L1396.62 105.176 L1396.62 111.055 L1391.74 111.055 L1391.74 105.176 Z" fill="#000000" fill-rule="nonzero" fill-opacity="1" /><path clip-path="url(#clip420)" d="M1410.83 107.12 L1427.15 107.12 L1427.15 111.055 L1405.21 111.055 L1405.21 107.12 Q1407.87 104.365 1412.45 99.7359 Q1417.06 95.0831 1418.24 93.7405 Q1420.49 91.2174 1421.37 89.4813 Q1422.27 87.722 1422.27 86.0322 Q1422.27 83.2776 1420.32 81.5415 Q1418.4 79.8054 1415.3 79.8054 Q1413.1 79.8054 1410.65 80.5693 Q1408.22 81.3332 1405.44 82.8841 L1405.44 78.1619 Q1408.26 77.0277 1410.72 76.449 Q1413.17 75.8703 1415.21 75.8703 Q1420.58 75.8703 1423.77 78.5554 Q1426.97 81.2406 1426.97 85.7313 Q1426.97 87.8609 1426.16 89.7822 Q1425.37 91.6804 1423.26 94.2729 Q1422.69 94.9442 1419.58 98.1618 Q1416.48 101.356 1410.83 107.12 Z" fill="#000000" fill-rule="nonzero" fill-opacity="1" /><path clip-path="url(#clip420)" d="M1437.01 76.4953 L1455.37 76.4953 L1455.37 80.4304 L1441.3 80.4304 L1441.3 88.9026 Q1442.32 88.5554 1443.33 88.3933 Q1444.35 88.2082 1445.37 88.2082 Q1451.16 88.2082 1454.54 91.3794 Q1457.92 94.5507 1457.92 99.9674 Q1457.92 105.546 1454.44 108.648 Q1450.97 111.727 1444.65 111.727 Q1442.48 111.727 1440.21 111.356 Q1437.96 110.986 1435.56 110.245 L1435.56 105.546 Q1437.64 106.68 1439.86 107.236 Q1442.08 107.791 1444.56 107.791 Q1448.56 107.791 1450.9 105.685 Q1453.24 103.578 1453.24 99.9674 Q1453.24 96.3563 1450.9 94.2498 Q1448.56 92.1433 1444.56 92.1433 Q1442.69 92.1433 1440.81 92.56 Q1438.96 92.9766 1437.01 93.8563 L1437.01 76.4953 Z" fill="#000000" fill-rule="nonzero" fill-opacity="1" /><path clip-path="url(#clip420)" d="M1291.8 330.008 L1284.44 331.408 Q1276.9 332.841 1276.9 338.506 Q1276.9 342.771 1280.4 344.713 Q1284.79 347.164 1290.59 347.164 Q1297.59 347.164 1300.93 344.776 Q1304.34 342.357 1304.34 338.506 Q1304.34 334.241 1297.56 331.95 L1291.8 330.008 M1282.06 326.73 L1272.73 323.579 L1272.73 318.359 L1292.05 324.884 L1299.02 323.61 Q1300.58 323.324 1301.89 322.21 Q1303.41 320.905 1303.41 319.887 L1303.41 317.086 L1308.38 317.086 L1308.38 320.587 Q1308.38 323.579 1305.71 326.252 Q1304.37 327.557 1301.57 328.098 Q1305.1 329.562 1307.87 332.554 Q1309.17 333.955 1309.17 338.506 Q1309.17 345.986 1304.34 349.614 Q1299.34 353.338 1290.59 353.338 Q1281.23 353.338 1276.84 349.296 Q1271.94 344.808 1271.94 338.506 Q1271.94 328.608 1282.06 326.73 Z" fill="#000000" fill-rule="nonzero" fill-opacity="1" /><polyline clip-path="url(#clip423)" style="stroke:#008000; stroke-linecap:round; stroke-linejoin:round; stroke-width:4; stroke-opacity:1; fill:none" points="1518.22,606.88 1633.97,64.898 1749.72,63.5486 1865.46,63.5442 1981.21,63.5442 2096.96,63.5442 2212.7,63.5442 2328.45,63.5442 "/>
<circle clip-path="url(#clip423)" cx="1518.22" cy="606.88" r="14.4" fill="#008000" fill-rule="evenodd" fill-opacity="1" stroke="none"/>
<circle clip-path="url(#clip423)" cx="1633.97" cy="64.898" r="14.4" fill="#008000" fill-rule="evenodd" fill-opacity="1" stroke="none"/>
<circle clip-path="url(#clip423)" cx="1749.72" cy="63.5486" r="14.4" fill="#008000" fill-rule="evenodd" fill-opacity="1" stroke="none"/>
<circle clip-path="url(#clip423)" cx="1865.46" cy="63.5442" r="14.4" fill="#008000" fill-rule="evenodd" fill-opacity="1" stroke="none"/>
<circle clip-path="url(#clip423)" cx="1981.21" cy="63.5442" r="14.4" fill="#008000" fill-rule="evenodd" fill-opacity="1" stroke="none"/>
<circle clip-path="url(#clip423)" cx="2096.96" cy="63.5442" r="14.4" fill="#008000" fill-rule="evenodd" fill-opacity="1" stroke="none"/>
<circle clip-path="url(#clip423)" cx="2212.7" cy="63.5442" r="14.4" fill="#008000" fill-rule="evenodd" fill-opacity="1" stroke="none"/>
<circle clip-path="url(#clip423)" cx="2328.45" cy="63.5442" r="14.4" fill="#008000" fill-rule="evenodd" fill-opacity="1" stroke="none"/>
<path clip-path="url(#clip420)" d="M338.292 1423.18 L1197.13 1423.18 L1197.13 847.244 L338.292 847.244  Z" fill="#ffffff" fill-rule="evenodd" fill-opacity="1"/>
<defs>
  <clipPath id="clip424">
    <rect x="338" y="847" width="860" height="577"/>
  </clipPath>
</defs>
<polyline clip-path="url(#clip424)" style="stroke:#000000; stroke-linecap:round; stroke-linejoin:round; stroke-width:2; stroke-opacity:0.1; fill:none" points="362.598,1423.18 362.598,847.244 "/>
<polyline clip-path="url(#clip424)" style="stroke:#000000; stroke-linecap:round; stroke-linejoin:round; stroke-width:2; stroke-opacity:0.1; fill:none" points="594.091,1423.18 594.091,847.244 "/>
<polyline clip-path="url(#clip424)" style="stroke:#000000; stroke-linecap:round; stroke-linejoin:round; stroke-width:2; stroke-opacity:0.1; fill:none" points="825.584,1423.18 825.584,847.244 "/>
<polyline clip-path="url(#clip424)" style="stroke:#000000; stroke-linecap:round; stroke-linejoin:round; stroke-width:2; stroke-opacity:0.1; fill:none" points="1057.08,1423.18 1057.08,847.244 "/>
<polyline clip-path="url(#clip420)" style="stroke:#000000; stroke-linecap:round; stroke-linejoin:round; stroke-width:4; stroke-opacity:1; fill:none" points="338.292,1423.18 1197.13,1423.18 "/>
<polyline clip-path="url(#clip420)" style="stroke:#000000; stroke-linecap:round; stroke-linejoin:round; stroke-width:4; stroke-opacity:1; fill:none" points="362.598,1423.18 362.598,1404.28 "/>
<polyline clip-path="url(#clip420)" style="stroke:#000000; stroke-linecap:round; stroke-linejoin:round; stroke-width:4; stroke-opacity:1; fill:none" points="594.091,1423.18 594.091,1404.28 "/>
<polyline clip-path="url(#clip420)" style="stroke:#000000; stroke-linecap:round; stroke-linejoin:round; stroke-width:4; stroke-opacity:1; fill:none" points="825.584,1423.18 825.584,1404.28 "/>
<polyline clip-path="url(#clip420)" style="stroke:#000000; stroke-linecap:round; stroke-linejoin:round; stroke-width:4; stroke-opacity:1; fill:none" points="1057.08,1423.18 1057.08,1404.28 "/>
<path clip-path="url(#clip420)" d="M362.598 1454.1 Q358.987 1454.1 357.159 1457.66 Q355.353 1461.2 355.353 1468.33 Q355.353 1475.44 357.159 1479.01 Q358.987 1482.55 362.598 1482.55 Q366.233 1482.55 368.038 1479.01 Q369.867 1475.44 369.867 1468.33 Q369.867 1461.2 368.038 1457.66 Q366.233 1454.1 362.598 1454.1 M362.598 1450.39 Q368.408 1450.39 371.464 1455 Q374.543 1459.58 374.543 1468.33 Q374.543 1477.06 371.464 1481.67 Q368.408 1486.25 362.598 1486.25 Q356.788 1486.25 353.709 1481.67 Q350.654 1477.06 350.654 1468.33 Q350.654 1459.58 353.709 1455 Q356.788 1450.39 362.598 1450.39 Z" fill="#000000" fill-rule="nonzero" fill-opacity="1" /><path clip-path="url(#clip420)" d="M588.744 1481.64 L605.064 1481.64 L605.064 1485.58 L583.119 1485.58 L583.119 1481.64 Q585.781 1478.89 590.365 1474.26 Q594.971 1469.61 596.152 1468.27 Q598.397 1465.74 599.277 1464.01 Q600.179 1462.25 600.179 1460.56 Q600.179 1457.8 598.235 1456.07 Q596.314 1454.33 593.212 1454.33 Q591.013 1454.33 588.559 1455.09 Q586.128 1455.86 583.351 1457.41 L583.351 1452.69 Q586.175 1451.55 588.628 1450.97 Q591.082 1450.39 593.119 1450.39 Q598.489 1450.39 601.684 1453.08 Q604.878 1455.77 604.878 1460.26 Q604.878 1462.39 604.068 1464.31 Q603.281 1466.2 601.175 1468.8 Q600.596 1469.47 597.494 1472.69 Q594.392 1475.88 588.744 1481.64 Z" fill="#000000" fill-rule="nonzero" fill-opacity="1" /><path clip-path="url(#clip420)" d="M828.594 1455.09 L816.788 1473.54 L828.594 1473.54 L828.594 1455.09 M827.367 1451.02 L833.246 1451.02 L833.246 1473.54 L838.177 1473.54 L838.177 1477.43 L833.246 1477.43 L833.246 1485.58 L828.594 1485.58 L828.594 1477.43 L812.992 1477.43 L812.992 1472.92 L827.367 1451.02 Z" fill="#000000" fill-rule="nonzero" fill-opacity="1" /><path clip-path="url(#clip420)" d="M1057.48 1466.44 Q1054.33 1466.44 1052.48 1468.59 Q1050.65 1470.74 1050.65 1474.49 Q1050.65 1478.22 1052.48 1480.39 Q1054.33 1482.55 1057.48 1482.55 Q1060.63 1482.55 1062.46 1480.39 Q1064.31 1478.22 1064.31 1474.49 Q1064.31 1470.74 1062.46 1468.59 Q1060.63 1466.44 1057.48 1466.44 M1066.76 1451.78 L1066.76 1456.04 Q1065.01 1455.21 1063.2 1454.77 Q1061.42 1454.33 1059.66 1454.33 Q1055.03 1454.33 1052.58 1457.45 Q1050.14 1460.58 1049.8 1466.9 Q1051.16 1464.89 1053.22 1463.82 Q1055.28 1462.73 1057.76 1462.73 Q1062.97 1462.73 1065.98 1465.9 Q1069.01 1469.05 1069.01 1474.49 Q1069.01 1479.82 1065.86 1483.03 Q1062.71 1486.25 1057.48 1486.25 Q1051.49 1486.25 1048.32 1481.67 Q1045.14 1477.06 1045.14 1468.33 Q1045.14 1460.14 1049.03 1455.28 Q1052.92 1450.39 1059.47 1450.39 Q1061.23 1450.39 1063.01 1450.74 Q1064.82 1451.09 1066.76 1451.78 Z" fill="#000000" fill-rule="nonzero" fill-opacity="1" /><path clip-path="url(#clip420)" d="M635.861 1532.4 L641.718 1532.4 L641.718 1568.04 L635.861 1568.04 L635.861 1532.4 M635.861 1518.52 L641.718 1518.52 L641.718 1525.93 L635.861 1525.93 L635.861 1518.52 Z" fill="#000000" fill-rule="nonzero" fill-opacity="1" /><path clip-path="url(#clip420)" d="M659.765 1522.27 L659.765 1532.4 L671.828 1532.4 L671.828 1536.95 L659.765 1536.95 L659.765 1556.3 Q659.765 1560.66 660.942 1561.9 Q662.152 1563.14 665.812 1563.14 L671.828 1563.14 L671.828 1568.04 L665.812 1568.04 Q659.033 1568.04 656.454 1565.53 Q653.876 1562.98 653.876 1556.3 L653.876 1536.95 L649.58 1536.95 L649.58 1532.4 L653.876 1532.4 L653.876 1522.27 L659.765 1522.27 Z" fill="#000000" fill-rule="nonzero" fill-opacity="1" /><path clip-path="url(#clip420)" d="M710.022 1548.76 L710.022 1551.62 L683.095 1551.62 Q683.477 1557.67 686.723 1560.85 Q690.002 1564 695.826 1564 Q699.2 1564 702.351 1563.17 Q705.534 1562.35 708.653 1560.69 L708.653 1566.23 Q705.502 1567.57 702.192 1568.27 Q698.882 1568.97 695.476 1568.97 Q686.946 1568.97 681.949 1564 Q676.984 1559.04 676.984 1550.57 Q676.984 1541.82 681.695 1536.69 Q686.437 1531.54 694.458 1531.54 Q701.651 1531.54 705.821 1536.18 Q710.022 1540.8 710.022 1548.76 M704.165 1547.04 Q704.102 1542.23 701.46 1539.37 Q698.85 1536.5 694.521 1536.5 Q689.62 1536.5 686.66 1539.27 Q683.732 1542.04 683.286 1547.07 L704.165 1547.04 Z" fill="#000000" fill-rule="nonzero" fill-opacity="1" /><path clip-path="url(#clip420)" d="M740.291 1537.87 Q739.304 1537.3 738.126 1537.04 Q736.981 1536.76 735.58 1536.76 Q730.615 1536.76 727.941 1540 Q725.3 1543.22 725.3 1549.27 L725.3 1568.04 L719.411 1568.04 L719.411 1532.4 L725.3 1532.4 L725.3 1537.93 Q727.146 1534.69 730.106 1533.13 Q733.066 1531.54 737.299 1531.54 Q737.904 1531.54 738.636 1531.63 Q739.368 1531.7 740.259 1531.85 L740.291 1537.87 Z" fill="#000000" fill-rule="nonzero" fill-opacity="1" /><path clip-path="url(#clip420)" d="M762.634 1550.12 Q755.537 1550.12 752.799 1551.75 Q750.062 1553.37 750.062 1557.29 Q750.062 1560.4 752.099 1562.25 Q754.168 1564.07 757.701 1564.07 Q762.571 1564.07 765.499 1560.63 Q768.459 1557.16 768.459 1551.43 L768.459 1550.12 L762.634 1550.12 M774.316 1547.71 L774.316 1568.04 L768.459 1568.04 L768.459 1562.63 Q766.454 1565.88 763.462 1567.44 Q760.47 1568.97 756.141 1568.97 Q750.667 1568.97 747.42 1565.91 Q744.206 1562.82 744.206 1557.67 Q744.206 1551.65 748.216 1548.6 Q752.258 1545.54 760.247 1545.54 L768.459 1545.54 L768.459 1544.97 Q768.459 1540.93 765.785 1538.73 Q763.144 1536.5 758.338 1536.5 Q755.282 1536.5 752.386 1537.23 Q749.489 1537.97 746.816 1539.43 L746.816 1534.02 Q750.03 1532.78 753.054 1532.17 Q756.078 1531.54 758.942 1531.54 Q766.677 1531.54 770.496 1535.55 Q774.316 1539.56 774.316 1547.71 Z" fill="#000000" fill-rule="nonzero" fill-opacity="1" /><path clip-path="url(#clip420)" d="M792.171 1522.27 L792.171 1532.4 L804.234 1532.4 L804.234 1536.95 L792.171 1536.95 L792.171 1556.3 Q792.171 1560.66 793.349 1561.9 Q794.558 1563.14 798.219 1563.14 L804.234 1563.14 L804.234 1568.04 L798.219 1568.04 Q791.439 1568.04 788.861 1565.53 Q786.283 1562.98 786.283 1556.3 L786.283 1536.95 L781.986 1536.95 L781.986 1532.4 L786.283 1532.4 L786.283 1522.27 L792.171 1522.27 Z" fill="#000000" fill-rule="nonzero" fill-opacity="1" /><path clip-path="url(#clip420)" d="M811.937 1532.4 L817.793 1532.4 L817.793 1568.04 L811.937 1568.04 L811.937 1532.4 M811.937 1518.52 L817.793 1518.52 L817.793 1525.93 L811.937 1525.93 L811.937 1518.52 Z" fill="#000000" fill-rule="nonzero" fill-opacity="1" /><path clip-path="url(#clip420)" d="M843.861 1536.5 Q839.15 1536.5 836.413 1540.19 Q833.676 1543.85 833.676 1550.25 Q833.676 1556.65 836.381 1560.34 Q839.118 1564 843.861 1564 Q848.54 1564 851.277 1560.31 Q854.014 1556.62 854.014 1550.25 Q854.014 1543.92 851.277 1540.23 Q848.54 1536.5 843.861 1536.5 M843.861 1531.54 Q851.5 1531.54 855.86 1536.5 Q860.221 1541.47 860.221 1550.25 Q860.221 1559 855.86 1564 Q851.5 1568.97 843.861 1568.97 Q836.19 1568.97 831.83 1564 Q827.501 1559 827.501 1550.25 Q827.501 1541.47 831.83 1536.5 Q836.19 1531.54 843.861 1531.54 Z" fill="#000000" fill-rule="nonzero" fill-opacity="1" /><path clip-path="url(#clip420)" d="M899.561 1546.53 L899.561 1568.04 L893.704 1568.04 L893.704 1546.72 Q893.704 1541.66 891.731 1539.14 Q889.758 1536.63 885.811 1536.63 Q881.068 1536.63 878.331 1539.65 Q875.594 1542.68 875.594 1547.9 L875.594 1568.04 L869.706 1568.04 L869.706 1532.4 L875.594 1532.4 L875.594 1537.93 Q877.695 1534.72 880.527 1533.13 Q883.392 1531.54 887.116 1531.54 Q893.259 1531.54 896.41 1535.36 Q899.561 1539.14 899.561 1546.53 Z" fill="#000000" fill-rule="nonzero" fill-opacity="1" /><polyline clip-path="url(#clip424)" style="stroke:#000000; stroke-linecap:round; stroke-linejoin:round; stroke-width:2; stroke-opacity:0.1; fill:none" points="338.292,1339.14 1197.13,1339.14 "/>
<polyline clip-path="url(#clip424)" style="stroke:#000000; stroke-linecap:round; stroke-linejoin:round; stroke-width:2; stroke-opacity:0.1; fill:none" points="338.292,994.979 1197.13,994.979 "/>
<polyline clip-path="url(#clip420)" style="stroke:#000000; stroke-linecap:round; stroke-linejoin:round; stroke-width:4; stroke-opacity:1; fill:none" points="338.292,1423.18 338.292,847.244 "/>
<polyline clip-path="url(#clip420)" style="stroke:#000000; stroke-linecap:round; stroke-linejoin:round; stroke-width:4; stroke-opacity:1; fill:none" points="338.292,1339.14 357.189,1339.14 "/>
<polyline clip-path="url(#clip420)" style="stroke:#000000; stroke-linecap:round; stroke-linejoin:round; stroke-width:4; stroke-opacity:1; fill:none" points="338.292,994.979 357.189,994.979 "/>
<path clip-path="url(#clip420)" d="M231.586 1358.94 L239.225 1358.94 L239.225 1332.57 L230.915 1334.24 L230.915 1329.98 L239.178 1328.31 L243.854 1328.31 L243.854 1358.94 L251.493 1358.94 L251.493 1362.87 L231.586 1362.87 L231.586 1358.94 Z" fill="#000000" fill-rule="nonzero" fill-opacity="1" /><path clip-path="url(#clip420)" d="M270.938 1331.39 Q267.326 1331.39 265.498 1334.95 Q263.692 1338.5 263.692 1345.63 Q263.692 1352.73 265.498 1356.3 Q267.326 1359.84 270.938 1359.84 Q274.572 1359.84 276.377 1356.3 Q278.206 1352.73 278.206 1345.63 Q278.206 1338.5 276.377 1334.95 Q274.572 1331.39 270.938 1331.39 M270.938 1327.69 Q276.748 1327.69 279.803 1332.29 Q282.882 1336.88 282.882 1345.63 Q282.882 1354.35 279.803 1358.96 Q276.748 1363.54 270.938 1363.54 Q265.127 1363.54 262.049 1358.96 Q258.993 1354.35 258.993 1345.63 Q258.993 1336.88 262.049 1332.29 Q265.127 1327.69 270.938 1327.69 Z" fill="#000000" fill-rule="nonzero" fill-opacity="1" /><path clip-path="url(#clip420)" d="M292.587 1309.88 Q289.653 1309.88 288.167 1312.78 Q286.7 1315.66 286.7 1321.45 Q286.7 1327.22 288.167 1330.12 Q289.653 1333 292.587 1333 Q295.54 1333 297.007 1330.12 Q298.492 1327.22 298.492 1321.45 Q298.492 1315.66 297.007 1312.78 Q295.54 1309.88 292.587 1309.88 M292.587 1306.87 Q297.307 1306.87 299.79 1310.62 Q302.292 1314.34 302.292 1321.45 Q302.292 1328.54 299.79 1332.28 Q297.307 1336.01 292.587 1336.01 Q287.866 1336.01 285.365 1332.28 Q282.882 1328.54 282.882 1321.45 Q282.882 1314.34 285.365 1310.62 Q287.866 1306.87 292.587 1306.87 Z" fill="#000000" fill-rule="nonzero" fill-opacity="1" /><path clip-path="url(#clip420)" d="M232.827 1014.77 L240.466 1014.77 L240.466 988.405 L232.156 990.072 L232.156 985.813 L240.42 984.146 L245.096 984.146 L245.096 1014.77 L252.735 1014.77 L252.735 1018.71 L232.827 1018.71 L232.827 1014.77 Z" fill="#000000" fill-rule="nonzero" fill-opacity="1" /><path clip-path="url(#clip420)" d="M272.179 987.225 Q268.568 987.225 266.739 990.79 Q264.934 994.331 264.934 1001.46 Q264.934 1008.57 266.739 1012.13 Q268.568 1015.67 272.179 1015.67 Q275.813 1015.67 277.619 1012.13 Q279.447 1008.57 279.447 1001.46 Q279.447 994.331 277.619 990.79 Q275.813 987.225 272.179 987.225 M272.179 983.521 Q277.989 983.521 281.045 988.128 Q284.123 992.711 284.123 1001.46 Q284.123 1010.19 281.045 1014.79 Q277.989 1019.38 272.179 1019.38 Q266.369 1019.38 263.29 1014.79 Q260.234 1010.19 260.234 1001.46 Q260.234 992.711 263.29 988.128 Q266.369 983.521 272.179 983.521 Z" fill="#000000" fill-rule="nonzero" fill-opacity="1" /><path clip-path="url(#clip420)" d="M285.308 963.216 L300.223 963.216 L300.223 966.413 L288.788 966.413 L288.788 973.297 Q289.615 973.015 290.443 972.883 Q291.27 972.732 292.098 972.732 Q296.8 972.732 299.546 975.309 Q302.292 977.886 302.292 982.287 Q302.292 986.819 299.47 989.34 Q296.649 991.841 291.515 991.841 Q289.747 991.841 287.904 991.54 Q286.079 991.239 284.123 990.637 L284.123 986.819 Q285.816 987.741 287.621 988.192 Q289.427 988.644 291.439 988.644 Q294.693 988.644 296.593 986.932 Q298.492 985.221 298.492 982.287 Q298.492 979.353 296.593 977.641 Q294.693 975.93 291.439 975.93 Q289.916 975.93 288.393 976.268 Q286.888 976.607 285.308 977.322 L285.308 963.216 Z" fill="#000000" fill-rule="nonzero" fill-opacity="1" /><path clip-path="url(#clip420)" d="M130.847 1231.75 L196.032 1231.75 L196.032 1237.16 L130.847 1237.16 L130.847 1231.75 Z" fill="#000000" fill-rule="nonzero" fill-opacity="1" /><path clip-path="url(#clip420)" d="M150.422 1193.87 L131.133 1193.87 L131.133 1188.02 L180.659 1188.02 L180.659 1193.87 L175.311 1193.87 Q178.494 1195.72 180.054 1198.55 Q181.582 1201.35 181.582 1205.3 Q181.582 1211.76 176.425 1215.83 Q171.269 1219.88 162.866 1219.88 Q154.464 1219.88 149.308 1215.83 Q144.151 1211.76 144.151 1205.3 Q144.151 1201.35 145.711 1198.55 Q147.239 1195.72 150.422 1193.87 M162.866 1213.83 Q169.328 1213.83 173.02 1211.19 Q176.68 1208.51 176.68 1203.87 Q176.68 1199.22 173.02 1196.55 Q169.328 1193.87 162.866 1193.87 Q156.405 1193.87 152.745 1196.55 Q149.053 1199.22 149.053 1203.87 Q149.053 1208.51 152.745 1211.19 Q156.405 1213.83 162.866 1213.83 Z" fill="#000000" fill-rule="nonzero" fill-opacity="1" /><path clip-path="url(#clip420)" d="M159.143 1146.32 L180.659 1146.32 L180.659 1152.18 L159.334 1152.18 Q154.273 1152.18 151.758 1154.15 Q149.244 1156.12 149.244 1160.07 Q149.244 1164.81 152.268 1167.55 Q155.291 1170.29 160.511 1170.29 L180.659 1170.29 L180.659 1176.18 L131.133 1176.18 L131.133 1170.29 L150.549 1170.29 Q147.334 1168.19 145.743 1165.35 Q144.151 1162.49 144.151 1158.77 Q144.151 1152.62 147.971 1149.47 Q151.758 1146.32 159.143 1146.32 Z" fill="#000000" fill-rule="nonzero" fill-opacity="1" /><path clip-path="url(#clip420)" d="M131.197 1120.57 Q138.518 1124.84 145.679 1126.9 Q152.84 1128.97 160.193 1128.97 Q167.545 1128.97 174.77 1126.9 Q181.964 1124.8 189.252 1120.57 L189.252 1125.66 Q181.773 1130.44 174.548 1132.82 Q167.322 1135.18 160.193 1135.18 Q153.095 1135.18 145.902 1132.82 Q138.709 1130.47 131.197 1125.66 L131.197 1120.57 Z" fill="#000000" fill-rule="nonzero" fill-opacity="1" /><path clip-path="url(#clip420)" d="M164.076 1088.42 L156.724 1089.82 Q149.18 1091.26 149.18 1096.92 Q149.18 1101.19 152.681 1103.13 Q157.074 1105.58 162.866 1105.58 Q169.869 1105.58 173.211 1103.19 Q176.616 1100.77 176.616 1096.92 Q176.616 1092.66 169.837 1090.37 L164.076 1088.42 M154.336 1085.15 L145.011 1081.99 L145.011 1076.77 L164.331 1083.3 L171.301 1082.03 Q172.861 1081.74 174.166 1080.63 Q175.693 1079.32 175.693 1078.3 L175.693 1075.5 L180.659 1075.5 L180.659 1079 Q180.659 1081.99 177.985 1084.67 Q176.648 1085.97 173.847 1086.51 Q177.38 1087.98 180.149 1090.97 Q181.454 1092.37 181.454 1096.92 Q181.454 1104.4 176.616 1108.03 Q171.619 1111.75 162.866 1111.75 Q153.509 1111.75 149.117 1107.71 Q144.215 1103.22 144.215 1096.92 Q144.215 1087.02 154.336 1085.15 Z" fill="#000000" fill-rule="nonzero" fill-opacity="1" /><path clip-path="url(#clip420)" d="M131.197 1067.16 L131.197 1062.07 Q138.709 1057.3 145.902 1054.94 Q153.095 1052.55 160.193 1052.55 Q167.322 1052.55 174.548 1054.94 Q181.773 1057.3 189.252 1062.07 L189.252 1067.16 Q181.964 1062.93 174.77 1060.86 Q167.545 1058.76 160.193 1058.76 Q152.84 1058.76 145.679 1060.86 Q138.518 1062.93 131.197 1067.16 Z" fill="#000000" fill-rule="nonzero" fill-opacity="1" /><path clip-path="url(#clip420)" d="M130.847 1033.27 L196.032 1033.27 L196.032 1038.68 L130.847 1038.68 L130.847 1033.27 Z" fill="#000000" fill-rule="nonzero" fill-opacity="1" /><polyline clip-path="url(#clip424)" style="stroke:#ff0000; stroke-linecap:round; stroke-linejoin:round; stroke-width:4; stroke-opacity:1; fill:none" points="362.598,863.544 478.345,1042.74 594.091,1213.93 709.838,1406.88 825.584,1406.88 941.331,1406.88 1057.08,1406.88 1172.82,1406.88 "/>
<path clip-path="url(#clip424)" d="M362.598 847.544 L346.598 863.544 L362.598 879.544 L378.598 863.544 L362.598 847.544 Z" fill="#ff0000" fill-rule="evenodd" fill-opacity="1" stroke="none"/>
<path clip-path="url(#clip424)" d="M478.345 1026.74 L462.345 1042.74 L478.345 1058.74 L494.345 1042.74 L478.345 1026.74 Z" fill="#ff0000" fill-rule="evenodd" fill-opacity="1" stroke="none"/>
<path clip-path="url(#clip424)" d="M594.091 1197.93 L578.091 1213.93 L594.091 1229.93 L610.091 1213.93 L594.091 1197.93 Z" fill="#ff0000" fill-rule="evenodd" fill-opacity="1" stroke="none"/>
<path clip-path="url(#clip424)" d="M709.838 1390.88 L693.838 1406.88 L709.838 1422.88 L725.838 1406.88 L709.838 1390.88 Z" fill="#ff0000" fill-rule="evenodd" fill-opacity="1" stroke="none"/>
<path clip-path="url(#clip424)" d="M825.584 1390.88 L809.584 1406.88 L825.584 1422.88 L841.584 1406.88 L825.584 1390.88 Z" fill="#ff0000" fill-rule="evenodd" fill-opacity="1" stroke="none"/>
<path clip-path="url(#clip424)" d="M941.331 1390.88 L925.331 1406.88 L941.331 1422.88 L957.331 1406.88 L941.331 1390.88 Z" fill="#ff0000" fill-rule="evenodd" fill-opacity="1" stroke="none"/>
<path clip-path="url(#clip424)" d="M1057.08 1390.88 L1041.08 1406.88 L1057.08 1422.88 L1073.08 1406.88 L1057.08 1390.88 Z" fill="#ff0000" fill-rule="evenodd" fill-opacity="1" stroke="none"/>
<path clip-path="url(#clip424)" d="M1172.82 1390.88 L1156.82 1406.88 L1172.82 1422.88 L1188.82 1406.88 L1172.82 1390.88 Z" fill="#ff0000" fill-rule="evenodd" fill-opacity="1" stroke="none"/>
<path clip-path="url(#clip420)" d="M1493.92 1423.18 L2352.76 1423.18 L2352.76 847.244 L1493.92 847.244  Z" fill="#ffffff" fill-rule="evenodd" fill-opacity="1"/>
<defs>
  <clipPath id="clip425">
    <rect x="1493" y="847" width="860" height="577"/>
  </clipPath>
</defs>
<polyline clip-path="url(#clip425)" style="stroke:#000000; stroke-linecap:round; stroke-linejoin:round; stroke-width:2; stroke-opacity:0.1; fill:none" points="1518.22,1423.18 1518.22,847.244 "/>
<polyline clip-path="url(#clip425)" style="stroke:#000000; stroke-linecap:round; stroke-linejoin:round; stroke-width:2; stroke-opacity:0.1; fill:none" points="1653.26,1423.18 1653.26,847.244 "/>
<polyline clip-path="url(#clip425)" style="stroke:#000000; stroke-linecap:round; stroke-linejoin:round; stroke-width:2; stroke-opacity:0.1; fill:none" points="1788.3,1423.18 1788.3,847.244 "/>
<polyline clip-path="url(#clip425)" style="stroke:#000000; stroke-linecap:round; stroke-linejoin:round; stroke-width:2; stroke-opacity:0.1; fill:none" points="1923.34,1423.18 1923.34,847.244 "/>
<polyline clip-path="url(#clip425)" style="stroke:#000000; stroke-linecap:round; stroke-linejoin:round; stroke-width:2; stroke-opacity:0.1; fill:none" points="2058.37,1423.18 2058.37,847.244 "/>
<polyline clip-path="url(#clip425)" style="stroke:#000000; stroke-linecap:round; stroke-linejoin:round; stroke-width:2; stroke-opacity:0.1; fill:none" points="2193.41,1423.18 2193.41,847.244 "/>
<polyline clip-path="url(#clip425)" style="stroke:#000000; stroke-linecap:round; stroke-linejoin:round; stroke-width:2; stroke-opacity:0.1; fill:none" points="2328.45,1423.18 2328.45,847.244 "/>
<polyline clip-path="url(#clip420)" style="stroke:#000000; stroke-linecap:round; stroke-linejoin:round; stroke-width:4; stroke-opacity:1; fill:none" points="1493.92,1423.18 2352.76,1423.18 "/>
<polyline clip-path="url(#clip420)" style="stroke:#000000; stroke-linecap:round; stroke-linejoin:round; stroke-width:4; stroke-opacity:1; fill:none" points="1518.22,1423.18 1518.22,1404.28 "/>
<polyline clip-path="url(#clip420)" style="stroke:#000000; stroke-linecap:round; stroke-linejoin:round; stroke-width:4; stroke-opacity:1; fill:none" points="1653.26,1423.18 1653.26,1404.28 "/>
<polyline clip-path="url(#clip420)" style="stroke:#000000; stroke-linecap:round; stroke-linejoin:round; stroke-width:4; stroke-opacity:1; fill:none" points="1788.3,1423.18 1788.3,1404.28 "/>
<polyline clip-path="url(#clip420)" style="stroke:#000000; stroke-linecap:round; stroke-linejoin:round; stroke-width:4; stroke-opacity:1; fill:none" points="1923.34,1423.18 1923.34,1404.28 "/>
<polyline clip-path="url(#clip420)" style="stroke:#000000; stroke-linecap:round; stroke-linejoin:round; stroke-width:4; stroke-opacity:1; fill:none" points="2058.37,1423.18 2058.37,1404.28 "/>
<polyline clip-path="url(#clip420)" style="stroke:#000000; stroke-linecap:round; stroke-linejoin:round; stroke-width:4; stroke-opacity:1; fill:none" points="2193.41,1423.18 2193.41,1404.28 "/>
<polyline clip-path="url(#clip420)" style="stroke:#000000; stroke-linecap:round; stroke-linejoin:round; stroke-width:4; stroke-opacity:1; fill:none" points="2328.45,1423.18 2328.45,1404.28 "/>
<path clip-path="url(#clip420)" d="M1508.61 1481.64 L1516.24 1481.64 L1516.24 1455.28 L1507.93 1456.95 L1507.93 1452.69 L1516.2 1451.02 L1520.87 1451.02 L1520.87 1481.64 L1528.51 1481.64 L1528.51 1485.58 L1508.61 1485.58 L1508.61 1481.64 Z" fill="#000000" fill-rule="nonzero" fill-opacity="1" /><path clip-path="url(#clip420)" d="M1647.91 1481.64 L1664.23 1481.64 L1664.23 1485.58 L1642.29 1485.58 L1642.29 1481.64 Q1644.95 1478.89 1649.53 1474.26 Q1654.14 1469.61 1655.32 1468.27 Q1657.57 1465.74 1658.45 1464.01 Q1659.35 1462.25 1659.35 1460.56 Q1659.35 1457.8 1657.4 1456.07 Q1655.48 1454.33 1652.38 1454.33 Q1650.18 1454.33 1647.73 1455.09 Q1645.3 1455.86 1642.52 1457.41 L1642.52 1452.69 Q1645.34 1451.55 1647.8 1450.97 Q1650.25 1450.39 1652.29 1450.39 Q1657.66 1450.39 1660.85 1453.08 Q1664.05 1455.77 1664.05 1460.26 Q1664.05 1462.39 1663.24 1464.31 Q1662.45 1466.2 1660.34 1468.8 Q1659.77 1469.47 1656.66 1472.69 Q1653.56 1475.88 1647.91 1481.64 Z" fill="#000000" fill-rule="nonzero" fill-opacity="1" /><path clip-path="url(#clip420)" d="M1792.55 1466.95 Q1795.9 1467.66 1797.78 1469.93 Q1799.68 1472.2 1799.68 1475.53 Q1799.68 1480.65 1796.16 1483.45 Q1792.64 1486.25 1786.16 1486.25 Q1783.98 1486.25 1781.67 1485.81 Q1779.38 1485.39 1776.92 1484.54 L1776.92 1480.02 Q1778.87 1481.16 1781.18 1481.74 Q1783.5 1482.32 1786.02 1482.32 Q1790.42 1482.32 1792.71 1480.58 Q1795.02 1478.84 1795.02 1475.53 Q1795.02 1472.48 1792.87 1470.77 Q1790.74 1469.03 1786.92 1469.03 L1782.89 1469.03 L1782.89 1465.19 L1787.11 1465.19 Q1790.56 1465.19 1792.38 1463.82 Q1794.21 1462.43 1794.21 1459.84 Q1794.21 1457.18 1792.31 1455.77 Q1790.44 1454.33 1786.92 1454.33 Q1785 1454.33 1782.8 1454.75 Q1780.6 1455.16 1777.96 1456.04 L1777.96 1451.88 Q1780.63 1451.14 1782.94 1450.77 Q1785.28 1450.39 1787.34 1450.39 Q1792.66 1450.39 1795.76 1452.83 Q1798.87 1455.23 1798.87 1459.35 Q1798.87 1462.22 1797.22 1464.21 Q1795.58 1466.18 1792.55 1466.95 Z" fill="#000000" fill-rule="nonzero" fill-opacity="1" /><path clip-path="url(#clip420)" d="M1926.35 1455.09 L1914.54 1473.54 L1926.35 1473.54 L1926.35 1455.09 M1925.12 1451.02 L1931 1451.02 L1931 1473.54 L1935.93 1473.54 L1935.93 1477.43 L1931 1477.43 L1931 1485.58 L1926.35 1485.58 L1926.35 1477.43 L1910.74 1477.43 L1910.74 1472.92 L1925.12 1451.02 Z" fill="#000000" fill-rule="nonzero" fill-opacity="1" /><path clip-path="url(#clip420)" d="M2048.65 1451.02 L2067.01 1451.02 L2067.01 1454.96 L2052.93 1454.96 L2052.93 1463.43 Q2053.95 1463.08 2054.97 1462.92 Q2055.99 1462.73 2057.01 1462.73 Q2062.8 1462.73 2066.17 1465.9 Q2069.55 1469.08 2069.55 1474.49 Q2069.55 1480.07 2066.08 1483.17 Q2062.61 1486.25 2056.29 1486.25 Q2054.11 1486.25 2051.85 1485.88 Q2049.6 1485.51 2047.19 1484.77 L2047.19 1480.07 Q2049.28 1481.2 2051.5 1481.76 Q2053.72 1482.32 2056.2 1482.32 Q2060.2 1482.32 2062.54 1480.21 Q2064.88 1478.1 2064.88 1474.49 Q2064.88 1470.88 2062.54 1468.77 Q2060.2 1466.67 2056.2 1466.67 Q2054.32 1466.67 2052.45 1467.08 Q2050.6 1467.5 2048.65 1468.38 L2048.65 1451.02 Z" fill="#000000" fill-rule="nonzero" fill-opacity="1" /><path clip-path="url(#clip420)" d="M2193.82 1466.44 Q2190.67 1466.44 2188.82 1468.59 Q2186.99 1470.74 2186.99 1474.49 Q2186.99 1478.22 2188.82 1480.39 Q2190.67 1482.55 2193.82 1482.55 Q2196.96 1482.55 2198.79 1480.39 Q2200.65 1478.22 2200.65 1474.49 Q2200.65 1470.74 2198.79 1468.59 Q2196.96 1466.44 2193.82 1466.44 M2203.1 1451.78 L2203.1 1456.04 Q2201.34 1455.21 2199.53 1454.77 Q2197.75 1454.33 2195.99 1454.33 Q2191.36 1454.33 2188.91 1457.45 Q2186.48 1460.58 2186.13 1466.9 Q2187.5 1464.89 2189.56 1463.82 Q2191.62 1462.73 2194.09 1462.73 Q2199.3 1462.73 2202.31 1465.9 Q2205.34 1469.05 2205.34 1474.49 Q2205.34 1479.82 2202.2 1483.03 Q2199.05 1486.25 2193.82 1486.25 Q2187.82 1486.25 2184.65 1481.67 Q2181.48 1477.06 2181.48 1468.33 Q2181.48 1460.14 2185.37 1455.28 Q2189.26 1450.39 2195.81 1450.39 Q2197.57 1450.39 2199.35 1450.74 Q2201.15 1451.09 2203.1 1451.78 Z" fill="#000000" fill-rule="nonzero" fill-opacity="1" /><path clip-path="url(#clip420)" d="M2317.34 1451.02 L2339.56 1451.02 L2339.56 1453.01 L2327.01 1485.58 L2322.13 1485.58 L2333.94 1454.96 L2317.34 1454.96 L2317.34 1451.02 Z" fill="#000000" fill-rule="nonzero" fill-opacity="1" /><path clip-path="url(#clip420)" d="M1791.49 1532.4 L1797.34 1532.4 L1797.34 1568.04 L1791.49 1568.04 L1791.49 1532.4 M1791.49 1518.52 L1797.34 1518.52 L1797.34 1525.93 L1791.49 1525.93 L1791.49 1518.52 Z" fill="#000000" fill-rule="nonzero" fill-opacity="1" /><path clip-path="url(#clip420)" d="M1815.39 1522.27 L1815.39 1532.4 L1827.45 1532.4 L1827.45 1536.95 L1815.39 1536.95 L1815.39 1556.3 Q1815.39 1560.66 1816.57 1561.9 Q1817.78 1563.14 1821.44 1563.14 L1827.45 1563.14 L1827.45 1568.04 L1821.44 1568.04 Q1814.66 1568.04 1812.08 1565.53 Q1809.5 1562.98 1809.5 1556.3 L1809.5 1536.95 L1805.2 1536.95 L1805.2 1532.4 L1809.5 1532.4 L1809.5 1522.27 L1815.39 1522.27 Z" fill="#000000" fill-rule="nonzero" fill-opacity="1" /><path clip-path="url(#clip420)" d="M1865.65 1548.76 L1865.65 1551.62 L1838.72 1551.62 Q1839.1 1557.67 1842.35 1560.85 Q1845.63 1564 1851.45 1564 Q1854.83 1564 1857.98 1563.17 Q1861.16 1562.35 1864.28 1560.69 L1864.28 1566.23 Q1861.13 1567.57 1857.82 1568.27 Q1854.51 1568.97 1851.1 1568.97 Q1842.57 1568.97 1837.57 1564 Q1832.61 1559.04 1832.61 1550.57 Q1832.61 1541.82 1837.32 1536.69 Q1842.06 1531.54 1850.08 1531.54 Q1857.28 1531.54 1861.45 1536.18 Q1865.65 1540.8 1865.65 1548.76 M1859.79 1547.04 Q1859.73 1542.23 1857.09 1539.37 Q1854.48 1536.5 1850.15 1536.5 Q1845.25 1536.5 1842.28 1539.27 Q1839.36 1542.04 1838.91 1547.07 L1859.79 1547.04 Z" fill="#000000" fill-rule="nonzero" fill-opacity="1" /><path clip-path="url(#clip420)" d="M1895.92 1537.87 Q1894.93 1537.3 1893.75 1537.04 Q1892.61 1536.76 1891.21 1536.76 Q1886.24 1536.76 1883.57 1540 Q1880.92 1543.22 1880.92 1549.27 L1880.92 1568.04 L1875.04 1568.04 L1875.04 1532.4 L1880.92 1532.4 L1880.92 1537.93 Q1882.77 1534.69 1885.73 1533.13 Q1888.69 1531.54 1892.92 1531.54 Q1893.53 1531.54 1894.26 1531.63 Q1894.99 1531.7 1895.88 1531.85 L1895.92 1537.87 Z" fill="#000000" fill-rule="nonzero" fill-opacity="1" /><path clip-path="url(#clip420)" d="M1918.26 1550.12 Q1911.16 1550.12 1908.42 1551.75 Q1905.69 1553.37 1905.69 1557.29 Q1905.69 1560.4 1907.72 1562.25 Q1909.79 1564.07 1913.33 1564.07 Q1918.2 1564.07 1921.12 1560.63 Q1924.08 1557.16 1924.08 1551.43 L1924.08 1550.12 L1918.26 1550.12 M1929.94 1547.71 L1929.94 1568.04 L1924.08 1568.04 L1924.08 1562.63 Q1922.08 1565.88 1919.09 1567.44 Q1916.1 1568.97 1911.77 1568.97 Q1906.29 1568.97 1903.05 1565.91 Q1899.83 1562.82 1899.83 1557.67 Q1899.83 1551.65 1903.84 1548.6 Q1907.88 1545.54 1915.87 1545.54 L1924.08 1545.54 L1924.08 1544.97 Q1924.08 1540.93 1921.41 1538.73 Q1918.77 1536.5 1913.96 1536.5 Q1910.91 1536.5 1908.01 1537.23 Q1905.11 1537.97 1902.44 1539.43 L1902.44 1534.02 Q1905.66 1532.78 1908.68 1532.17 Q1911.7 1531.54 1914.57 1531.54 Q1922.3 1531.54 1926.12 1535.55 Q1929.94 1539.56 1929.94 1547.71 Z" fill="#000000" fill-rule="nonzero" fill-opacity="1" /><path clip-path="url(#clip420)" d="M1947.8 1522.27 L1947.8 1532.4 L1959.86 1532.4 L1959.86 1536.95 L1947.8 1536.95 L1947.8 1556.3 Q1947.8 1560.66 1948.97 1561.9 Q1950.18 1563.14 1953.84 1563.14 L1959.86 1563.14 L1959.86 1568.04 L1953.84 1568.04 Q1947.06 1568.04 1944.49 1565.53 Q1941.91 1562.98 1941.91 1556.3 L1941.91 1536.95 L1937.61 1536.95 L1937.61 1532.4 L1941.91 1532.4 L1941.91 1522.27 L1947.8 1522.27 Z" fill="#000000" fill-rule="nonzero" fill-opacity="1" /><path clip-path="url(#clip420)" d="M1967.56 1532.4 L1973.42 1532.4 L1973.42 1568.04 L1967.56 1568.04 L1967.56 1532.4 M1967.56 1518.52 L1973.42 1518.52 L1973.42 1525.93 L1967.56 1525.93 L1967.56 1518.52 Z" fill="#000000" fill-rule="nonzero" fill-opacity="1" /><path clip-path="url(#clip420)" d="M1999.49 1536.5 Q1994.78 1536.5 1992.04 1540.19 Q1989.3 1543.85 1989.3 1550.25 Q1989.3 1556.65 1992.01 1560.34 Q1994.74 1564 1999.49 1564 Q2004.16 1564 2006.9 1560.31 Q2009.64 1556.62 2009.64 1550.25 Q2009.64 1543.92 2006.9 1540.23 Q2004.16 1536.5 1999.49 1536.5 M1999.49 1531.54 Q2007.12 1531.54 2011.49 1536.5 Q2015.85 1541.47 2015.85 1550.25 Q2015.85 1559 2011.49 1564 Q2007.12 1568.97 1999.49 1568.97 Q1991.82 1568.97 1987.45 1564 Q1983.13 1559 1983.13 1550.25 Q1983.13 1541.47 1987.45 1536.5 Q1991.82 1531.54 1999.49 1531.54 Z" fill="#000000" fill-rule="nonzero" fill-opacity="1" /><path clip-path="url(#clip420)" d="M2055.19 1546.53 L2055.19 1568.04 L2049.33 1568.04 L2049.33 1546.72 Q2049.33 1541.66 2047.36 1539.14 Q2045.38 1536.63 2041.44 1536.63 Q2036.69 1536.63 2033.96 1539.65 Q2031.22 1542.68 2031.22 1547.9 L2031.22 1568.04 L2025.33 1568.04 L2025.33 1532.4 L2031.22 1532.4 L2031.22 1537.93 Q2033.32 1534.72 2036.15 1533.13 Q2039.02 1531.54 2042.74 1531.54 Q2048.88 1531.54 2052.04 1535.36 Q2055.19 1539.14 2055.19 1546.53 Z" fill="#000000" fill-rule="nonzero" fill-opacity="1" /><polyline clip-path="url(#clip425)" style="stroke:#000000; stroke-linecap:round; stroke-linejoin:round; stroke-width:2; stroke-opacity:0.1; fill:none" points="1493.92,1371.65 2352.76,1371.65 "/>
<polyline clip-path="url(#clip425)" style="stroke:#000000; stroke-linecap:round; stroke-linejoin:round; stroke-width:2; stroke-opacity:0.1; fill:none" points="1493.92,1265.95 2352.76,1265.95 "/>
<polyline clip-path="url(#clip425)" style="stroke:#000000; stroke-linecap:round; stroke-linejoin:round; stroke-width:2; stroke-opacity:0.1; fill:none" points="1493.92,1160.26 2352.76,1160.26 "/>
<polyline clip-path="url(#clip425)" style="stroke:#000000; stroke-linecap:round; stroke-linejoin:round; stroke-width:2; stroke-opacity:0.1; fill:none" points="1493.92,1054.56 2352.76,1054.56 "/>
<polyline clip-path="url(#clip425)" style="stroke:#000000; stroke-linecap:round; stroke-linejoin:round; stroke-width:2; stroke-opacity:0.1; fill:none" points="1493.92,948.866 2352.76,948.866 "/>
<polyline clip-path="url(#clip420)" style="stroke:#000000; stroke-linecap:round; stroke-linejoin:round; stroke-width:4; stroke-opacity:1; fill:none" points="1493.92,1423.18 1493.92,847.244 "/>
<polyline clip-path="url(#clip420)" style="stroke:#000000; stroke-linecap:round; stroke-linejoin:round; stroke-width:4; stroke-opacity:1; fill:none" points="1493.92,1371.65 1512.81,1371.65 "/>
<polyline clip-path="url(#clip420)" style="stroke:#000000; stroke-linecap:round; stroke-linejoin:round; stroke-width:4; stroke-opacity:1; fill:none" points="1493.92,1265.95 1512.81,1265.95 "/>
<polyline clip-path="url(#clip420)" style="stroke:#000000; stroke-linecap:round; stroke-linejoin:round; stroke-width:4; stroke-opacity:1; fill:none" points="1493.92,1160.26 1512.81,1160.26 "/>
<polyline clip-path="url(#clip420)" style="stroke:#000000; stroke-linecap:round; stroke-linejoin:round; stroke-width:4; stroke-opacity:1; fill:none" points="1493.92,1054.56 1512.81,1054.56 "/>
<polyline clip-path="url(#clip420)" style="stroke:#000000; stroke-linecap:round; stroke-linejoin:round; stroke-width:4; stroke-opacity:1; fill:none" points="1493.92,948.866 1512.81,948.866 "/>
<path clip-path="url(#clip420)" d="M1367.04 1372.1 L1396.71 1372.1 L1396.71 1376.03 L1367.04 1376.03 L1367.04 1372.1 Z" fill="#000000" fill-rule="nonzero" fill-opacity="1" /><path clip-path="url(#clip420)" d="M1407.62 1384.99 L1415.25 1384.99 L1415.25 1358.63 L1406.94 1360.29 L1406.94 1356.03 L1415.21 1354.37 L1419.88 1354.37 L1419.88 1384.99 L1427.52 1384.99 L1427.52 1388.93 L1407.62 1388.93 L1407.62 1384.99 Z" fill="#000000" fill-rule="nonzero" fill-opacity="1" /><path clip-path="url(#clip420)" d="M1437.01 1354.37 L1455.37 1354.37 L1455.37 1358.3 L1441.3 1358.3 L1441.3 1366.78 Q1442.32 1366.43 1443.33 1366.27 Q1444.35 1366.08 1445.37 1366.08 Q1451.16 1366.08 1454.54 1369.25 Q1457.92 1372.42 1457.92 1377.84 Q1457.92 1383.42 1454.44 1386.52 Q1450.97 1389.6 1444.65 1389.6 Q1442.48 1389.6 1440.21 1389.23 Q1437.96 1388.86 1435.56 1388.12 L1435.56 1383.42 Q1437.64 1384.55 1439.86 1385.11 Q1442.08 1385.66 1444.56 1385.66 Q1448.56 1385.66 1450.9 1383.56 Q1453.24 1381.45 1453.24 1377.84 Q1453.24 1374.23 1450.9 1372.12 Q1448.56 1370.02 1444.56 1370.02 Q1442.69 1370.02 1440.81 1370.43 Q1438.96 1370.85 1437.01 1371.73 L1437.01 1354.37 Z" fill="#000000" fill-rule="nonzero" fill-opacity="1" /><path clip-path="url(#clip420)" d="M1367.64 1266.4 L1397.32 1266.4 L1397.32 1270.34 L1367.64 1270.34 L1367.64 1266.4 Z" fill="#000000" fill-rule="nonzero" fill-opacity="1" /><path clip-path="url(#clip420)" d="M1408.22 1279.3 L1415.86 1279.3 L1415.86 1252.93 L1407.55 1254.6 L1407.55 1250.34 L1415.81 1248.67 L1420.49 1248.67 L1420.49 1279.3 L1428.13 1279.3 L1428.13 1283.23 L1408.22 1283.23 L1408.22 1279.3 Z" fill="#000000" fill-rule="nonzero" fill-opacity="1" /><path clip-path="url(#clip420)" d="M1441.6 1279.3 L1457.92 1279.3 L1457.92 1283.23 L1435.97 1283.23 L1435.97 1279.3 Q1438.63 1276.54 1443.22 1271.91 Q1447.82 1267.26 1449 1265.92 Q1451.25 1263.39 1452.13 1261.66 Q1453.03 1259.9 1453.03 1258.21 Q1453.03 1255.45 1451.09 1253.72 Q1449.17 1251.98 1446.07 1251.98 Q1443.87 1251.98 1441.41 1252.75 Q1438.98 1253.51 1436.2 1255.06 L1436.2 1250.34 Q1439.03 1249.2 1441.48 1248.63 Q1443.94 1248.05 1445.97 1248.05 Q1451.34 1248.05 1454.54 1250.73 Q1457.73 1253.42 1457.73 1257.91 Q1457.73 1260.04 1456.92 1261.96 Q1456.13 1263.86 1454.03 1266.45 Q1453.45 1267.12 1450.35 1270.34 Q1447.25 1273.53 1441.6 1279.3 Z" fill="#000000" fill-rule="nonzero" fill-opacity="1" /><path clip-path="url(#clip420)" d="M1396.39 1160.71 L1426.07 1160.71 L1426.07 1164.64 L1396.39 1164.64 L1396.39 1160.71 Z" fill="#000000" fill-rule="nonzero" fill-opacity="1" /><path clip-path="url(#clip420)" d="M1436.3 1176.82 L1436.3 1172.56 Q1438.06 1173.39 1439.86 1173.83 Q1441.67 1174.27 1443.4 1174.27 Q1448.03 1174.27 1450.46 1171.17 Q1452.92 1168.05 1453.26 1161.7 Q1451.92 1163.69 1449.86 1164.76 Q1447.8 1165.82 1445.3 1165.82 Q1440.12 1165.82 1437.08 1162.7 Q1434.07 1159.55 1434.07 1154.11 Q1434.07 1148.79 1437.22 1145.57 Q1440.37 1142.35 1445.6 1142.35 Q1451.6 1142.35 1454.75 1146.96 Q1457.92 1151.54 1457.92 1160.29 Q1457.92 1168.46 1454.03 1173.35 Q1450.16 1178.21 1443.61 1178.21 Q1441.85 1178.21 1440.05 1177.86 Q1438.24 1177.51 1436.3 1176.82 M1445.6 1162.17 Q1448.75 1162.17 1450.58 1160.01 Q1452.43 1157.86 1452.43 1154.11 Q1452.43 1150.38 1450.58 1148.23 Q1448.75 1146.06 1445.6 1146.06 Q1442.45 1146.06 1440.6 1148.23 Q1438.77 1150.38 1438.77 1154.11 Q1438.77 1157.86 1440.6 1160.01 Q1442.45 1162.17 1445.6 1162.17 Z" fill="#000000" fill-rule="nonzero" fill-opacity="1" /><path clip-path="url(#clip420)" d="M1396.04 1055.01 L1425.72 1055.01 L1425.72 1058.95 L1396.04 1058.95 L1396.04 1055.01 Z" fill="#000000" fill-rule="nonzero" fill-opacity="1" /><path clip-path="url(#clip420)" d="M1446.39 1052.7 Q1443.24 1052.7 1441.39 1054.85 Q1439.56 1057 1439.56 1060.75 Q1439.56 1064.48 1441.39 1066.66 Q1443.24 1068.81 1446.39 1068.81 Q1449.54 1068.81 1451.37 1066.66 Q1453.22 1064.48 1453.22 1060.75 Q1453.22 1057 1451.37 1054.85 Q1449.54 1052.7 1446.39 1052.7 M1455.67 1038.05 L1455.67 1042.3 Q1453.91 1041.47 1452.11 1041.03 Q1450.32 1040.59 1448.56 1040.59 Q1443.94 1040.59 1441.48 1043.72 Q1439.05 1046.84 1438.7 1053.16 Q1440.07 1051.15 1442.13 1050.08 Q1444.19 1048.99 1446.67 1048.99 Q1451.88 1048.99 1454.88 1052.17 Q1457.92 1055.31 1457.92 1060.75 Q1457.92 1066.08 1454.77 1069.3 Q1451.62 1072.51 1446.39 1072.51 Q1440.39 1072.51 1437.22 1067.93 Q1434.05 1063.32 1434.05 1054.6 Q1434.05 1046.4 1437.94 1041.54 Q1441.83 1036.66 1448.38 1036.66 Q1450.14 1036.66 1451.92 1037 Q1453.73 1037.35 1455.67 1038.05 Z" fill="#000000" fill-rule="nonzero" fill-opacity="1" /><path clip-path="url(#clip420)" d="M1396.85 949.317 L1426.53 949.317 L1426.53 953.252 L1396.85 953.252 L1396.85 949.317 Z" fill="#000000" fill-rule="nonzero" fill-opacity="1" /><path clip-path="url(#clip420)" d="M1450.79 947.512 Q1454.14 948.229 1456.02 950.498 Q1457.92 952.766 1457.92 956.1 Q1457.92 961.215 1454.4 964.016 Q1450.88 966.817 1444.4 966.817 Q1442.22 966.817 1439.91 966.377 Q1437.62 965.961 1435.16 965.104 L1435.16 960.59 Q1437.11 961.725 1439.42 962.303 Q1441.74 962.882 1444.26 962.882 Q1448.66 962.882 1450.95 961.146 Q1453.26 959.41 1453.26 956.1 Q1453.26 953.044 1451.11 951.331 Q1448.98 949.595 1445.16 949.595 L1441.13 949.595 L1441.13 945.752 L1445.35 945.752 Q1448.8 945.752 1450.63 944.387 Q1452.45 942.998 1452.45 940.405 Q1452.45 937.743 1450.56 936.331 Q1448.68 934.896 1445.16 934.896 Q1443.24 934.896 1441.04 935.313 Q1438.84 935.729 1436.2 936.609 L1436.2 932.442 Q1438.87 931.702 1441.18 931.331 Q1443.52 930.961 1445.58 930.961 Q1450.9 930.961 1454 933.391 Q1457.11 935.799 1457.11 939.919 Q1457.11 942.789 1455.46 944.78 Q1453.82 946.748 1450.79 947.512 Z" fill="#000000" fill-rule="nonzero" fill-opacity="1" /><path clip-path="url(#clip420)" d="M1267.26 1487.65 L1267.26 1481.79 L1316.78 1481.79 L1316.78 1487.65 L1267.26 1487.65 Z" fill="#000000" fill-rule="nonzero" fill-opacity="1" /><path clip-path="url(#clip420)" d="M1285.24 1455.73 Q1285.24 1460.44 1288.93 1463.17 Q1292.59 1465.91 1298.99 1465.91 Q1305.39 1465.91 1309.08 1463.21 Q1312.74 1460.47 1312.74 1455.73 Q1312.74 1451.05 1309.05 1448.31 Q1305.36 1445.57 1298.99 1445.57 Q1292.66 1445.57 1288.96 1448.31 Q1285.24 1451.05 1285.24 1455.73 M1280.27 1455.73 Q1280.27 1448.09 1285.24 1443.73 Q1290.2 1439.37 1298.99 1439.37 Q1307.74 1439.37 1312.74 1443.73 Q1317.7 1448.09 1317.7 1455.73 Q1317.7 1463.4 1312.74 1467.76 Q1307.74 1472.09 1298.99 1472.09 Q1290.2 1472.09 1285.24 1467.76 Q1280.27 1463.4 1280.27 1455.73 Z" fill="#000000" fill-rule="nonzero" fill-opacity="1" /><path clip-path="url(#clip420)" d="M1298.54 1406.2 Q1292.18 1406.2 1288.68 1408.84 Q1285.18 1411.45 1285.18 1416.19 Q1285.18 1420.9 1288.68 1423.55 Q1292.18 1426.16 1298.54 1426.16 Q1304.88 1426.16 1308.38 1423.55 Q1311.88 1420.9 1311.88 1416.19 Q1311.88 1411.45 1308.38 1408.84 Q1304.88 1406.2 1298.54 1406.2 M1312.36 1400.34 Q1321.46 1400.34 1325.88 1404.39 Q1330.34 1408.43 1330.34 1416.77 Q1330.34 1419.85 1329.86 1422.59 Q1329.42 1425.33 1328.46 1427.91 L1322.77 1427.91 Q1324.17 1425.33 1324.83 1422.81 Q1325.5 1420.3 1325.5 1417.69 Q1325.5 1411.93 1322.48 1409.06 Q1319.49 1406.2 1313.41 1406.2 L1310.51 1406.2 Q1313.66 1408.01 1315.22 1410.85 Q1316.78 1413.68 1316.78 1417.63 Q1316.78 1424.18 1311.78 1428.19 Q1306.79 1432.2 1298.54 1432.2 Q1290.27 1432.2 1285.27 1428.19 Q1280.27 1424.18 1280.27 1417.63 Q1280.27 1413.68 1281.83 1410.85 Q1283.39 1408.01 1286.54 1406.2 L1281.13 1406.2 L1281.13 1400.34 L1312.36 1400.34 Z" fill="#000000" fill-rule="nonzero" fill-opacity="1" /><path clip-path="url(#clip420)" d="M1311.37 1386.34 L1311.37 1375.84 L1275.12 1375.84 L1277.41 1387.26 L1271.55 1387.26 L1269.26 1375.9 L1269.26 1369.47 L1311.37 1369.47 L1311.37 1358.97 L1316.78 1358.97 L1316.78 1386.34 L1311.37 1386.34 Z" fill="#000000" fill-rule="nonzero" fill-opacity="1" /><path clip-path="url(#clip420)" d="M1273.49 1332.23 Q1273.49 1337.2 1278.4 1339.71 Q1283.27 1342.19 1293.07 1342.19 Q1302.84 1342.19 1307.74 1339.71 Q1312.61 1337.2 1312.61 1332.23 Q1312.61 1327.23 1307.74 1324.75 Q1302.84 1322.24 1293.07 1322.24 Q1283.27 1322.24 1278.4 1324.75 Q1273.49 1327.23 1273.49 1332.23 M1268.4 1332.23 Q1268.4 1324.24 1274.74 1320.04 Q1281.04 1315.81 1293.07 1315.81 Q1305.07 1315.81 1311.4 1320.04 Q1317.7 1324.24 1317.7 1332.23 Q1317.7 1340.22 1311.4 1344.45 Q1305.07 1348.65 1293.07 1348.65 Q1281.04 1348.65 1274.74 1344.45 Q1268.4 1340.22 1268.4 1332.23 Z" fill="#000000" fill-rule="nonzero" fill-opacity="1" /><path clip-path="url(#clip420)" d="M1267.32 1291.27 Q1274.64 1295.53 1281.8 1297.6 Q1288.96 1299.67 1296.32 1299.67 Q1303.67 1299.67 1310.89 1297.6 Q1318.09 1295.5 1325.38 1291.27 L1325.38 1296.36 Q1317.9 1301.13 1310.67 1303.52 Q1303.45 1305.88 1296.32 1305.88 Q1289.22 1305.88 1282.02 1303.52 Q1274.83 1301.17 1267.32 1296.36 L1267.32 1291.27 Z" fill="#000000" fill-rule="nonzero" fill-opacity="1" /><path clip-path="url(#clip420)" d="M1266.97 1272.36 L1332.15 1272.36 L1332.15 1277.77 L1266.97 1277.77 L1266.97 1272.36 Z" fill="#000000" fill-rule="nonzero" fill-opacity="1" /><path clip-path="url(#clip420)" d="M1300.2 1237.16 L1292.85 1238.56 Q1285.3 1239.99 1285.3 1245.66 Q1285.3 1249.92 1288.8 1251.86 Q1293.2 1254.31 1298.99 1254.31 Q1305.99 1254.31 1309.33 1251.93 Q1312.74 1249.51 1312.74 1245.66 Q1312.74 1241.39 1305.96 1239.1 L1300.2 1237.16 M1290.46 1233.88 L1281.13 1230.73 L1281.13 1225.51 L1300.45 1232.03 L1307.42 1230.76 Q1308.98 1230.47 1310.29 1229.36 Q1311.82 1228.06 1311.82 1227.04 L1311.82 1224.24 L1316.78 1224.24 L1316.78 1227.74 Q1316.78 1230.73 1314.11 1233.4 Q1312.77 1234.71 1309.97 1235.25 Q1313.5 1236.71 1316.27 1239.71 Q1317.58 1241.11 1317.58 1245.66 Q1317.58 1253.14 1312.74 1256.77 Q1307.74 1260.49 1298.99 1260.49 Q1289.63 1260.49 1285.24 1256.45 Q1280.34 1251.96 1280.34 1245.66 Q1280.34 1235.76 1290.46 1233.88 Z" fill="#000000" fill-rule="nonzero" fill-opacity="1" /><path clip-path="url(#clip420)" d="M1327.6 1187.89 L1332.15 1187.89 L1332.15 1221.75 L1327.6 1221.75 L1327.6 1187.89 Z" fill="#000000" fill-rule="nonzero" fill-opacity="1" /><path clip-path="url(#clip420)" d="M1267.26 1182.6 L1267.26 1176.72 L1296.51 1176.72 L1281.13 1159.24 L1281.13 1151.76 L1297.81 1170.67 L1316.78 1150.97 L1316.78 1158.61 L1299.37 1176.72 L1316.78 1176.72 L1316.78 1182.6 L1267.26 1182.6 Z" fill="#000000" fill-rule="nonzero" fill-opacity="1" /><path clip-path="url(#clip420)" d="M1296.32 1126.87 L1296.32 1109.72 L1301.54 1109.72 L1301.54 1126.87 L1296.32 1126.87 Z" fill="#000000" fill-rule="nonzero" fill-opacity="1" /><path clip-path="url(#clip420)" d="M1300.2 1058.89 L1292.85 1060.29 Q1285.3 1061.72 1285.3 1067.39 Q1285.3 1071.65 1288.8 1073.59 Q1293.2 1076.04 1298.99 1076.04 Q1305.99 1076.04 1309.33 1073.66 Q1312.74 1071.24 1312.74 1067.39 Q1312.74 1063.12 1305.96 1060.83 L1300.2 1058.89 M1290.46 1055.61 L1281.13 1052.46 L1281.13 1047.24 L1300.45 1053.76 L1307.42 1052.49 Q1308.98 1052.2 1310.29 1051.09 Q1311.82 1049.78 1311.82 1048.77 L1311.82 1045.96 L1316.78 1045.96 L1316.78 1049.47 Q1316.78 1052.46 1314.11 1055.13 Q1312.77 1056.44 1309.97 1056.98 Q1313.5 1058.44 1316.27 1061.43 Q1317.58 1062.83 1317.58 1067.39 Q1317.58 1074.87 1312.74 1078.49 Q1307.74 1082.22 1298.99 1082.22 Q1289.63 1082.22 1285.24 1078.18 Q1280.34 1073.69 1280.34 1067.39 Q1280.34 1057.49 1290.46 1055.61 Z" fill="#000000" fill-rule="nonzero" fill-opacity="1" /><path clip-path="url(#clip420)" d="M1327.6 1009.62 L1332.15 1009.62 L1332.15 1043.48 L1327.6 1043.48 L1327.6 1009.62 Z" fill="#000000" fill-rule="nonzero" fill-opacity="1" /><path clip-path="url(#clip420)" d="M1322.83 976.929 L1327.41 976.929 L1327.41 978.902 Q1327.41 986.827 1325.06 989.533 Q1322.7 992.206 1315.67 992.206 L1308.06 992.206 Q1303.25 992.206 1301.41 993.925 Q1299.56 995.644 1299.56 1000.16 L1299.56 1002.11 L1295.01 1002.11 L1295.01 1000.16 Q1295.01 995.612 1293.2 993.925 Q1291.35 992.206 1286.61 992.206 L1278.97 992.206 Q1271.94 992.206 1269.61 989.533 Q1267.26 986.827 1267.26 978.902 L1267.26 976.929 L1271.81 976.929 L1271.81 979.093 Q1271.81 983.581 1273.21 984.949 Q1274.61 986.318 1279.1 986.318 L1286.99 986.318 Q1291.99 986.318 1294.25 987.782 Q1296.51 989.214 1297.3 992.716 Q1298.16 989.183 1300.42 987.75 Q1302.68 986.318 1307.65 986.318 L1315.54 986.318 Q1320.03 986.318 1321.43 984.949 Q1322.83 983.581 1322.83 979.093 L1322.83 976.929 Z" fill="#000000" fill-rule="nonzero" fill-opacity="1" /><path clip-path="url(#clip420)" d="M1267.26 962.86 L1267.26 956.972 L1296.51 956.972 L1281.13 939.498 L1281.13 932.019 L1297.81 950.925 L1316.78 931.223 L1316.78 938.862 L1299.37 956.972 L1316.78 956.972 L1316.78 962.86 L1267.26 962.86 Z" fill="#000000" fill-rule="nonzero" fill-opacity="1" /><path clip-path="url(#clip420)" d="M1296.32 927.849 L1296.32 910.693 L1301.54 910.693 L1301.54 927.849 L1296.32 927.849 Z" fill="#000000" fill-rule="nonzero" fill-opacity="1" /><path clip-path="url(#clip420)" d="M1311.37 899.426 L1311.37 888.923 L1275.12 888.923 L1277.41 900.349 L1271.55 900.349 L1269.26 888.986 L1269.26 882.557 L1311.37 882.557 L1311.37 872.054 L1316.78 872.054 L1316.78 899.426 L1311.37 899.426 Z" fill="#000000" fill-rule="nonzero" fill-opacity="1" /><path clip-path="url(#clip420)" d="M1322.83 857.89 L1322.83 855.662 Q1322.83 851.206 1321.46 849.869 Q1320.09 848.501 1315.54 848.501 L1307.65 848.501 Q1302.68 848.501 1300.42 847.068 Q1298.16 845.636 1297.3 842.103 Q1296.51 845.636 1294.25 847.068 Q1291.99 848.501 1286.99 848.501 L1279.1 848.501 Q1274.58 848.501 1273.21 849.869 Q1271.81 851.206 1271.81 855.662 L1271.81 857.89 L1267.26 857.89 L1267.26 855.885 Q1267.26 847.959 1269.61 845.318 Q1271.94 842.644 1278.97 842.644 L1286.61 842.644 Q1291.35 842.644 1293.2 840.925 Q1295.01 839.207 1295.01 834.687 L1295.01 832.714 L1299.56 832.714 L1299.56 834.687 Q1299.56 839.207 1301.41 840.925 Q1303.25 842.644 1308.06 842.644 L1315.67 842.644 Q1322.7 842.644 1325.06 845.318 Q1327.41 847.959 1327.41 855.885 L1327.41 857.89 L1322.83 857.89 Z" fill="#000000" fill-rule="nonzero" fill-opacity="1" /><path clip-path="url(#clip420)" d="M1266.97 810.879 L1332.15 810.879 L1332.15 816.29 L1266.97 816.29 L1266.97 810.879 Z" fill="#000000" fill-rule="nonzero" fill-opacity="1" /><path clip-path="url(#clip420)" d="M1267.32 797.384 L1267.32 792.291 Q1274.83 787.517 1282.02 785.162 Q1289.22 782.775 1296.32 782.775 Q1303.45 782.775 1310.67 785.162 Q1317.9 787.517 1325.38 792.291 L1325.38 797.384 Q1318.09 793.151 1310.89 791.082 Q1303.67 788.981 1296.32 788.981 Q1288.96 788.981 1281.8 791.082 Q1274.64 793.151 1267.32 797.384 Z" fill="#000000" fill-rule="nonzero" fill-opacity="1" /><polyline clip-path="url(#clip425)" style="stroke:#0000ff; stroke-linecap:round; stroke-linejoin:round; stroke-width:4; stroke-opacity:1; fill:none" points="1518.22,863.544 1653.26,955.282 1788.3,1042.88 1923.34,1406.88 2058.37,1406.88 2193.41,1406.88 2328.45,1406.88 "/>
<path clip-path="url(#clip425)" d="M1502.22 847.544 L1502.22 879.544 L1534.22 879.544 L1534.22 847.544 L1502.22 847.544 Z" fill="#0000ff" fill-rule="evenodd" fill-opacity="1" stroke="none"/>
<path clip-path="url(#clip425)" d="M1637.26 939.282 L1637.26 971.282 L1669.26 971.282 L1669.26 939.282 L1637.26 939.282 Z" fill="#0000ff" fill-rule="evenodd" fill-opacity="1" stroke="none"/>
<path clip-path="url(#clip425)" d="M1772.3 1026.88 L1772.3 1058.88 L1804.3 1058.88 L1804.3 1026.88 L1772.3 1026.88 Z" fill="#0000ff" fill-rule="evenodd" fill-opacity="1" stroke="none"/>
<path clip-path="url(#clip425)" d="M1907.34 1390.88 L1907.34 1422.88 L1939.34 1422.88 L1939.34 1390.88 L1907.34 1390.88 Z" fill="#0000ff" fill-rule="evenodd" fill-opacity="1" stroke="none"/>
<path clip-path="url(#clip425)" d="M2042.37 1390.88 L2042.37 1422.88 L2074.37 1422.88 L2074.37 1390.88 L2042.37 1390.88 Z" fill="#0000ff" fill-rule="evenodd" fill-opacity="1" stroke="none"/>
<path clip-path="url(#clip425)" d="M2177.41 1390.88 L2177.41 1422.88 L2209.41 1422.88 L2209.41 1390.88 L2177.41 1390.88 Z" fill="#0000ff" fill-rule="evenodd" fill-opacity="1" stroke="none"/>
<path clip-path="url(#clip425)" d="M2312.45 1390.88 L2312.45 1422.88 L2344.45 1422.88 L2344.45 1390.88 L2312.45 1390.88 Z" fill="#0000ff" fill-rule="evenodd" fill-opacity="1" stroke="none"/>
</svg>
