<?xml version="1.0" encoding="UTF-8"?>
<svg xmlns="http://www.w3.org/2000/svg" xmlns:xlink="http://www.w3.org/1999/xlink" width="600pt" height="600pt" viewBox="0 0 600 600" version="1.1">
<g id="surface1">
<rect x="0" y="0" width="600" height="600" style="fill:rgb(100%,100%,100%);fill-opacity:1;stroke:none;"/>
<path style=" stroke:none;fill-rule:nonzero;fill:rgb(0%,0%,0%);fill-opacity:1;" d="M 300 564.960938 C 190.25 564.960938 101.28125 446.332031 101.28125 300 C 101.28125 153.667969 190.25 35.039062 300 35.039062 C 409.75 35.039062 498.71875 153.667969 498.71875 300 C 498.71875 446.332031 409.75 564.960938 300 564.960938 "/>
<path style=" stroke:none;fill-rule:nonzero;fill:rgb(25%,25%,25%);fill-opacity:1;" d="M 344.769531 384.910156 C 328.132812 379.503906 326.992188 337.105469 342.230469 290.210938 C 357.46875 243.316406 383.308594 209.683594 399.949219 215.089844 C 416.589844 220.496094 417.726562 262.894531 402.488281 309.789062 C 387.253906 356.683594 361.410156 390.316406 344.769531 384.910156 "/>
<path style=" stroke:none;fill-rule:nonzero;fill:rgb(25%,25%,25%);fill-opacity:1;" d="M 255.128906 412.300781 C 230.925781 420.164062 194.96875 376.261719 174.816406 314.238281 C 154.664062 252.21875 157.949219 195.5625 182.152344 187.699219 C 206.355469 179.835938 242.3125 223.738281 262.464844 285.761719 C 282.617188 347.78125 279.332031 404.4375 255.128906 412.300781 "/>
<path style=" stroke:none;fill-rule:nonzero;fill:rgb(50%,50%,50%);fill-opacity:1;" d="M 300 244.199219 C 266.597656 244.199219 239.519531 211.964844 239.519531 172.199219 C 239.519531 132.433594 266.597656 100.199219 300 100.199219 C 333.402344 100.199219 360.480469 132.433594 360.480469 172.199219 C 360.480469 211.964844 333.402344 244.199219 300 244.199219 "/>
<path style=" stroke:none;fill-rule:nonzero;fill:rgb(75%,75%,75%);fill-opacity:1;" d="M 286.753906 271.199219 C 286.753906 263.882812 292.683594 257.953125 300 257.953125 C 307.316406 257.953125 313.246094 263.882812 313.246094 271.199219 C 313.246094 278.515625 307.316406 284.449219 300 284.449219 C 292.683594 284.449219 286.753906 278.515625 286.753906 271.199219 "/>
<path style=" stroke:none;fill-rule:nonzero;fill:rgb(100%,100%,100%);fill-opacity:1;" d="M 286.753906 328.800781 C 286.753906 321.484375 292.683594 315.550781 300 315.550781 C 307.316406 315.550781 313.246094 321.484375 313.246094 328.800781 C 313.246094 336.117188 307.316406 342.046875 300 342.046875 C 292.683594 342.046875 286.753906 336.117188 286.753906 328.800781 "/>
<path style=" stroke:none;fill-rule:nonzero;fill:rgb(79.6%,23.5%,20%);fill-opacity:1;" d="M 296.519531 493.800781 C 296.519531 506.226562 286.445312 516.300781 274.019531 516.300781 C 261.59375 516.300781 251.519531 506.226562 251.519531 493.800781 C 251.519531 481.375 261.59375 471.300781 274.019531 471.300781 C 286.445312 471.300781 296.519531 481.375 296.519531 493.800781 "/>
<path style=" stroke:none;fill-rule:nonzero;fill:rgb(22%,59.6%,14.9%);fill-opacity:1;" d="M 322.5 448.800781 C 322.5 461.226562 312.425781 471.300781 300 471.300781 C 287.574219 471.300781 277.5 461.226562 277.5 448.800781 C 277.5 436.375 287.574219 426.300781 300 426.300781 C 312.425781 426.300781 322.5 436.375 322.5 448.800781 "/>
<path style=" stroke:none;fill-rule:nonzero;fill:rgb(58.4%,34.5%,69.8%);fill-opacity:1;" d="M 348.480469 493.800781 C 348.480469 506.226562 338.40625 516.300781 325.980469 516.300781 C 313.554688 516.300781 303.480469 506.226562 303.480469 493.800781 C 303.480469 481.375 313.554688 471.300781 325.980469 471.300781 C 338.40625 471.300781 348.480469 481.375 348.480469 493.800781 "/>
</g>
</svg>
