<?xml version="1.0" encoding="utf-8"?>
<svg xmlns="http://www.w3.org/2000/svg" xmlns:xlink="http://www.w3.org/1999/xlink" width="600" height="400" viewBox="0 0 2400 1600">
<defs>
  <clipPath id="clip310">
    <rect x="0" y="0" width="2400" height="1600"/>
  </clipPath>
</defs>
<path clip-path="url(#clip310)" d="M0 1600 L2400 1600 L2400 0 L0 0  Z" fill="#ffffff" fill-rule="evenodd" fill-opacity="1"/>
<defs>
  <clipPath id="clip311">
    <rect x="480" y="0" width="1681" height="1600"/>
  </clipPath>
</defs>
<path clip-path="url(#clip310)" d="M252.501 1423.18 L2352.76 1423.18 L2352.76 47.2441 L252.501 47.2441  Z" fill="#ffffff" fill-rule="evenodd" fill-opacity="1"/>
<defs>
  <clipPath id="clip312">
    <rect x="252" y="47" width="2101" height="1377"/>
  </clipPath>
</defs>
<polyline clip-path="url(#clip312)" style="stroke:#000000; stroke-linecap:round; stroke-linejoin:round; stroke-width:2; stroke-opacity:0.1; fill:none" points="532.094,1423.18 532.094,47.2441 "/>
<polyline clip-path="url(#clip312)" style="stroke:#000000; stroke-linecap:round; stroke-linejoin:round; stroke-width:2; stroke-opacity:0.1; fill:none" points="972.399,1423.18 972.399,47.2441 "/>
<polyline clip-path="url(#clip312)" style="stroke:#000000; stroke-linecap:round; stroke-linejoin:round; stroke-width:2; stroke-opacity:0.1; fill:none" points="1412.7,1423.18 1412.7,47.2441 "/>
<polyline clip-path="url(#clip312)" style="stroke:#000000; stroke-linecap:round; stroke-linejoin:round; stroke-width:2; stroke-opacity:0.1; fill:none" points="1853.01,1423.18 1853.01,47.2441 "/>
<polyline clip-path="url(#clip312)" style="stroke:#000000; stroke-linecap:round; stroke-linejoin:round; stroke-width:2; stroke-opacity:0.1; fill:none" points="2293.31,1423.18 2293.31,47.2441 "/>
<polyline clip-path="url(#clip310)" style="stroke:#000000; stroke-linecap:round; stroke-linejoin:round; stroke-width:4; stroke-opacity:1; fill:none" points="252.501,1423.18 2352.76,1423.18 "/>
<polyline clip-path="url(#clip310)" style="stroke:#000000; stroke-linecap:round; stroke-linejoin:round; stroke-width:4; stroke-opacity:1; fill:none" points="532.094,1423.18 532.094,1404.28 "/>
<polyline clip-path="url(#clip310)" style="stroke:#000000; stroke-linecap:round; stroke-linejoin:round; stroke-width:4; stroke-opacity:1; fill:none" points="972.399,1423.18 972.399,1404.28 "/>
<polyline clip-path="url(#clip310)" style="stroke:#000000; stroke-linecap:round; stroke-linejoin:round; stroke-width:4; stroke-opacity:1; fill:none" points="1412.7,1423.18 1412.7,1404.28 "/>
<polyline clip-path="url(#clip310)" style="stroke:#000000; stroke-linecap:round; stroke-linejoin:round; stroke-width:4; stroke-opacity:1; fill:none" points="1853.01,1423.18 1853.01,1404.28 "/>
<polyline clip-path="url(#clip310)" style="stroke:#000000; stroke-linecap:round; stroke-linejoin:round; stroke-width:4; stroke-opacity:1; fill:none" points="2293.31,1423.18 2293.31,1404.28 "/>
<path clip-path="url(#clip310)" d="M526.747 1481.64 L543.067 1481.64 L543.067 1485.58 L521.122 1485.58 L521.122 1481.64 Q523.784 1478.89 528.368 1474.26 Q532.974 1469.61 534.155 1468.27 Q536.4 1465.74 537.28 1464.01 Q538.182 1462.25 538.182 1460.56 Q538.182 1457.8 536.238 1456.07 Q534.317 1454.33 531.215 1454.33 Q529.016 1454.33 526.562 1455.09 Q524.131 1455.86 521.354 1457.41 L521.354 1452.69 Q524.178 1451.55 526.631 1450.97 Q529.085 1450.39 531.122 1450.39 Q536.492 1450.39 539.687 1453.08 Q542.881 1455.77 542.881 1460.26 Q542.881 1462.39 542.071 1464.31 Q541.284 1466.2 539.178 1468.8 Q538.599 1469.47 535.497 1472.69 Q532.395 1475.88 526.747 1481.64 Z" fill="#000000" fill-rule="nonzero" fill-opacity="1" /><path clip-path="url(#clip310)" d="M976.647 1466.95 Q980.004 1467.66 981.879 1469.93 Q983.777 1472.2 983.777 1475.53 Q983.777 1480.65 980.258 1483.45 Q976.74 1486.25 970.258 1486.25 Q968.082 1486.25 965.768 1485.81 Q963.476 1485.39 961.022 1484.54 L961.022 1480.02 Q962.967 1481.16 965.281 1481.74 Q967.596 1482.32 970.119 1482.32 Q974.518 1482.32 976.809 1480.58 Q979.124 1478.84 979.124 1475.53 Q979.124 1472.48 976.971 1470.77 Q974.842 1469.03 971.022 1469.03 L966.994 1469.03 L966.994 1465.19 L971.207 1465.19 Q974.656 1465.19 976.485 1463.82 Q978.314 1462.43 978.314 1459.84 Q978.314 1457.18 976.416 1455.77 Q974.541 1454.33 971.022 1454.33 Q969.101 1454.33 966.902 1454.75 Q964.703 1455.16 962.064 1456.04 L962.064 1451.88 Q964.726 1451.14 967.041 1450.77 Q969.379 1450.39 971.439 1450.39 Q976.763 1450.39 979.865 1452.83 Q982.967 1455.23 982.967 1459.35 Q982.967 1462.22 981.323 1464.21 Q979.68 1466.18 976.647 1466.95 Z" fill="#000000" fill-rule="nonzero" fill-opacity="1" /><path clip-path="url(#clip310)" d="M1415.71 1455.09 L1403.91 1473.54 L1415.71 1473.54 L1415.71 1455.09 M1414.49 1451.02 L1420.37 1451.02 L1420.37 1473.54 L1425.3 1473.54 L1425.3 1477.43 L1420.37 1477.43 L1420.37 1485.58 L1415.71 1485.58 L1415.71 1477.43 L1400.11 1477.43 L1400.11 1472.92 L1414.49 1451.02 Z" fill="#000000" fill-rule="nonzero" fill-opacity="1" /><path clip-path="url(#clip310)" d="M1843.29 1451.02 L1861.64 1451.02 L1861.64 1454.96 L1847.57 1454.96 L1847.57 1463.43 Q1848.59 1463.08 1849.61 1462.92 Q1850.63 1462.73 1851.64 1462.73 Q1857.43 1462.73 1860.81 1465.9 Q1864.19 1469.08 1864.19 1474.49 Q1864.19 1480.07 1860.72 1483.17 Q1857.25 1486.25 1850.93 1486.25 Q1848.75 1486.25 1846.48 1485.88 Q1844.24 1485.51 1841.83 1484.77 L1841.83 1480.07 Q1843.91 1481.2 1846.13 1481.76 Q1848.36 1482.32 1850.83 1482.32 Q1854.84 1482.32 1857.18 1480.21 Q1859.51 1478.1 1859.51 1474.49 Q1859.51 1470.88 1857.18 1468.77 Q1854.84 1466.67 1850.83 1466.67 Q1848.96 1466.67 1847.08 1467.08 Q1845.23 1467.5 1843.29 1468.38 L1843.29 1451.02 Z" fill="#000000" fill-rule="nonzero" fill-opacity="1" /><path clip-path="url(#clip310)" d="M2293.72 1466.44 Q2290.57 1466.44 2288.72 1468.59 Q2286.89 1470.74 2286.89 1474.49 Q2286.89 1478.22 2288.72 1480.39 Q2290.57 1482.55 2293.72 1482.55 Q2296.87 1482.55 2298.7 1480.39 Q2300.55 1478.22 2300.55 1474.49 Q2300.55 1470.74 2298.7 1468.59 Q2296.87 1466.44 2293.72 1466.44 M2303 1451.78 L2303 1456.04 Q2301.24 1455.21 2299.44 1454.77 Q2297.65 1454.33 2295.9 1454.33 Q2291.27 1454.33 2288.81 1457.45 Q2286.38 1460.58 2286.03 1466.9 Q2287.4 1464.89 2289.46 1463.82 Q2291.52 1462.73 2294 1462.73 Q2299.21 1462.73 2302.22 1465.9 Q2305.25 1469.05 2305.25 1474.49 Q2305.25 1479.82 2302.1 1483.03 Q2298.95 1486.25 2293.72 1486.25 Q2287.72 1486.25 2284.55 1481.67 Q2281.38 1477.06 2281.38 1468.33 Q2281.38 1460.14 2285.27 1455.28 Q2289.16 1450.39 2295.71 1450.39 Q2297.47 1450.39 2299.25 1450.74 Q2301.06 1451.09 2303 1451.78 Z" fill="#000000" fill-rule="nonzero" fill-opacity="1" /><path clip-path="url(#clip310)" d="M1301.08 1537.04 Q1296.25 1537.04 1293.64 1540.54 Q1290.9 1544.2 1290.9 1550.25 Q1290.9 1556.65 1293.6 1560.34 Q1296.34 1564 1301.08 1564 Q1305.76 1564 1308.5 1560.31 Q1311.24 1556.62 1311.24 1550.25 Q1311.24 1544.43 1308.5 1540.54 Q1305.99 1537.04 1301.08 1537.04 M1301.08 1532.4 L1320.53 1532.4 L1320.53 1538.25 L1313.98 1538.25 Q1317.44 1543.22 1317.44 1550.25 Q1317.44 1559 1313.08 1563.97 Q1308.72 1568.97 1301.08 1568.97 Q1293.41 1568.97 1289.09 1563.97 Q1284.72 1559 1284.72 1550.25 Q1284.72 1541.44 1289.09 1536.5 Q1292.68 1532.4 1301.08 1532.4 Z" fill="#000000" fill-rule="nonzero" fill-opacity="1" /><polyline clip-path="url(#clip312)" style="stroke:#000000; stroke-linecap:round; stroke-linejoin:round; stroke-width:2; stroke-opacity:0.1; fill:none" points="252.501,1257.03 2352.76,1257.03 "/>
<polyline clip-path="url(#clip312)" style="stroke:#000000; stroke-linecap:round; stroke-linejoin:round; stroke-width:2; stroke-opacity:0.1; fill:none" points="252.501,826.547 2352.76,826.547 "/>
<polyline clip-path="url(#clip312)" style="stroke:#000000; stroke-linecap:round; stroke-linejoin:round; stroke-width:2; stroke-opacity:0.1; fill:none" points="252.501,396.063 2352.76,396.063 "/>
<polyline clip-path="url(#clip310)" style="stroke:#000000; stroke-linecap:round; stroke-linejoin:round; stroke-width:4; stroke-opacity:1; fill:none" points="252.501,1423.18 252.501,47.2441 "/>
<polyline clip-path="url(#clip310)" style="stroke:#000000; stroke-linecap:round; stroke-linejoin:round; stroke-width:4; stroke-opacity:1; fill:none" points="252.501,1257.03 271.398,1257.03 "/>
<polyline clip-path="url(#clip310)" style="stroke:#000000; stroke-linecap:round; stroke-linejoin:round; stroke-width:4; stroke-opacity:1; fill:none" points="252.501,826.547 271.398,826.547 "/>
<polyline clip-path="url(#clip310)" style="stroke:#000000; stroke-linecap:round; stroke-linejoin:round; stroke-width:4; stroke-opacity:1; fill:none" points="252.501,396.063 271.398,396.063 "/>
<path clip-path="url(#clip310)" d="M115.797 1276.82 L123.435 1276.82 L123.435 1250.46 L115.125 1252.12 L115.125 1247.86 L123.389 1246.2 L128.065 1246.2 L128.065 1276.82 L135.704 1276.82 L135.704 1280.76 L115.797 1280.76 L115.797 1276.82 Z" fill="#000000" fill-rule="nonzero" fill-opacity="1" /><path clip-path="url(#clip310)" d="M155.148 1249.28 Q151.537 1249.28 149.708 1252.84 Q147.903 1256.38 147.903 1263.51 Q147.903 1270.62 149.708 1274.18 Q151.537 1277.73 155.148 1277.73 Q158.782 1277.73 160.588 1274.18 Q162.417 1270.62 162.417 1263.51 Q162.417 1256.38 160.588 1252.84 Q158.782 1249.28 155.148 1249.28 M155.148 1245.57 Q160.958 1245.57 164.014 1250.18 Q167.093 1254.76 167.093 1263.51 Q167.093 1272.24 164.014 1276.85 Q160.958 1281.43 155.148 1281.43 Q149.338 1281.43 146.259 1276.85 Q143.204 1272.24 143.204 1263.51 Q143.204 1254.76 146.259 1250.18 Q149.338 1245.57 155.148 1245.57 Z" fill="#000000" fill-rule="nonzero" fill-opacity="1" /><path clip-path="url(#clip310)" d="M167.093 1239.67 L191.204 1239.67 L191.204 1242.87 L167.093 1242.87 L167.093 1239.67 Z" fill="#000000" fill-rule="nonzero" fill-opacity="1" /><path clip-path="url(#clip310)" d="M198.445 1225.27 L216.501 1225.27 L216.501 1226.88 L206.307 1253.35 L202.338 1253.35 L211.93 1228.46 L198.445 1228.46 L198.445 1225.27 Z" fill="#000000" fill-rule="nonzero" fill-opacity="1" /><path clip-path="url(#clip310)" d="M114.931 846.339 L122.57 846.339 L122.57 819.973 L114.26 821.64 L114.26 817.381 L122.524 815.714 L127.2 815.714 L127.2 846.339 L134.839 846.339 L134.839 850.274 L114.931 850.274 L114.931 846.339 Z" fill="#000000" fill-rule="nonzero" fill-opacity="1" /><path clip-path="url(#clip310)" d="M154.283 818.793 Q150.672 818.793 148.843 822.358 Q147.038 825.899 147.038 833.029 Q147.038 840.135 148.843 843.7 Q150.672 847.242 154.283 847.242 Q157.917 847.242 159.723 843.7 Q161.552 840.135 161.552 833.029 Q161.552 825.899 159.723 822.358 Q157.917 818.793 154.283 818.793 M154.283 815.089 Q160.093 815.089 163.149 819.696 Q166.227 824.279 166.227 833.029 Q166.227 841.756 163.149 846.362 Q160.093 850.946 154.283 850.946 Q148.473 850.946 145.394 846.362 Q142.339 841.756 142.339 833.029 Q142.339 824.279 145.394 819.696 Q148.473 815.089 154.283 815.089 Z" fill="#000000" fill-rule="nonzero" fill-opacity="1" /><path clip-path="url(#clip310)" d="M166.227 809.191 L190.339 809.191 L190.339 812.388 L166.227 812.388 L166.227 809.191 Z" fill="#000000" fill-rule="nonzero" fill-opacity="1" /><path clip-path="url(#clip310)" d="M207.134 807.31 Q204.577 807.31 203.072 809.059 Q201.586 810.808 201.586 813.855 Q201.586 816.883 203.072 818.651 Q204.577 820.4 207.134 820.4 Q209.692 820.4 211.178 818.651 Q212.683 816.883 212.683 813.855 Q212.683 810.808 211.178 809.059 Q209.692 807.31 207.134 807.31 M214.676 795.404 L214.676 798.865 Q213.247 798.188 211.78 797.831 Q210.332 797.473 208.902 797.473 Q205.141 797.473 203.147 800.012 Q201.172 802.551 200.89 807.686 Q202 806.05 203.674 805.185 Q205.348 804.301 207.36 804.301 Q211.592 804.301 214.037 806.877 Q216.501 809.435 216.501 813.855 Q216.501 818.181 213.943 820.795 Q211.385 823.409 207.134 823.409 Q202.263 823.409 199.686 819.685 Q197.11 815.943 197.11 808.852 Q197.11 802.194 200.27 798.244 Q203.429 794.276 208.752 794.276 Q210.181 794.276 211.629 794.558 Q213.096 794.84 214.676 795.404 Z" fill="#000000" fill-rule="nonzero" fill-opacity="1" /><path clip-path="url(#clip310)" d="M115.872 415.856 L123.511 415.856 L123.511 389.49 L115.201 391.157 L115.201 386.898 L123.464 385.231 L128.14 385.231 L128.14 415.856 L135.779 415.856 L135.779 419.791 L115.872 419.791 L115.872 415.856 Z" fill="#000000" fill-rule="nonzero" fill-opacity="1" /><path clip-path="url(#clip310)" d="M155.223 388.31 Q151.612 388.31 149.784 391.874 Q147.978 395.416 147.978 402.546 Q147.978 409.652 149.784 413.217 Q151.612 416.759 155.223 416.759 Q158.858 416.759 160.663 413.217 Q162.492 409.652 162.492 402.546 Q162.492 395.416 160.663 391.874 Q158.858 388.31 155.223 388.31 M155.223 384.606 Q161.034 384.606 164.089 389.212 Q167.168 393.796 167.168 402.546 Q167.168 411.273 164.089 415.879 Q161.034 420.462 155.223 420.462 Q149.413 420.462 146.335 415.879 Q143.279 411.273 143.279 402.546 Q143.279 393.796 146.335 389.212 Q149.413 384.606 155.223 384.606 Z" fill="#000000" fill-rule="nonzero" fill-opacity="1" /><path clip-path="url(#clip310)" d="M167.168 378.707 L191.279 378.707 L191.279 381.905 L167.168 381.905 L167.168 378.707 Z" fill="#000000" fill-rule="nonzero" fill-opacity="1" /><path clip-path="url(#clip310)" d="M199.517 364.301 L214.432 364.301 L214.432 367.498 L202.997 367.498 L202.997 374.382 Q203.824 374.099 204.652 373.968 Q205.479 373.817 206.307 373.817 Q211.009 373.817 213.755 376.394 Q216.501 378.971 216.501 383.372 Q216.501 387.904 213.679 390.425 Q210.858 392.926 205.724 392.926 Q203.956 392.926 202.113 392.625 Q200.288 392.324 198.332 391.722 L198.332 387.904 Q200.025 388.826 201.831 389.277 Q203.636 389.729 205.649 389.729 Q208.902 389.729 210.802 388.017 Q212.701 386.306 212.701 383.372 Q212.701 380.438 210.802 378.726 Q208.902 377.015 205.649 377.015 Q204.125 377.015 202.602 377.353 Q201.097 377.692 199.517 378.406 L199.517 364.301 Z" fill="#000000" fill-rule="nonzero" fill-opacity="1" /><path clip-path="url(#clip310)" d="M44.7161 779.279 L47.5806 779.279 L47.5806 806.206 Q53.6281 805.824 56.8109 802.577 Q59.9619 799.299 59.9619 793.474 Q59.9619 790.1 59.1344 786.949 Q58.3069 783.766 56.6518 780.647 L62.1899 780.647 Q63.5267 783.798 64.227 787.108 Q64.9272 790.419 64.9272 793.824 Q64.9272 802.354 59.9619 807.351 Q54.9967 812.317 46.5303 812.317 Q37.7774 812.317 32.6531 807.606 Q27.4968 802.864 27.4968 794.843 Q27.4968 787.649 32.1438 783.48 Q36.7589 779.279 44.7161 779.279 M42.9973 785.135 Q38.1912 785.199 35.3266 787.84 Q32.4621 790.45 32.4621 794.779 Q32.4621 799.681 35.2312 802.641 Q38.0002 805.569 43.0292 806.015 L42.9973 785.135 Z" fill="#000000" fill-rule="nonzero" fill-opacity="1" /><path clip-path="url(#clip310)" d="M33.8307 749.01 Q33.2578 749.996 33.0032 751.174 Q32.7167 752.32 32.7167 753.72 Q32.7167 758.686 35.9632 761.359 Q39.1779 764.001 45.2253 764.001 L64.0042 764.001 L64.0042 769.889 L28.3562 769.889 L28.3562 764.001 L33.8944 764.001 Q30.6479 762.155 29.0883 759.195 Q27.4968 756.235 27.4968 752.002 Q27.4968 751.397 27.5923 750.665 Q27.656 749.933 27.8151 749.041 L33.8307 749.01 Z" fill="#000000" fill-rule="nonzero" fill-opacity="1" /><path clip-path="url(#clip310)" d="M33.8307 723.356 Q33.2578 724.343 33.0032 725.52 Q32.7167 726.666 32.7167 728.066 Q32.7167 733.032 35.9632 735.705 Q39.1779 738.347 45.2253 738.347 L64.0042 738.347 L64.0042 744.235 L28.3562 744.235 L28.3562 738.347 L33.8944 738.347 Q30.6479 736.501 29.0883 733.541 Q27.4968 730.581 27.4968 726.348 Q27.4968 725.743 27.5923 725.011 Q27.656 724.279 27.8151 723.388 L33.8307 723.356 Z" fill="#000000" fill-rule="nonzero" fill-opacity="1" /><path clip-path="url(#clip310)" d="M32.4621 704.832 Q32.4621 709.542 36.1542 712.28 Q39.8145 715.017 46.212 715.017 Q52.6095 715.017 56.3017 712.311 Q59.9619 709.574 59.9619 704.832 Q59.9619 700.153 56.2698 697.416 Q52.5777 694.678 46.212 694.678 Q39.8781 694.678 36.186 697.416 Q32.4621 700.153 32.4621 704.832 M27.4968 704.832 Q27.4968 697.193 32.4621 692.832 Q37.4273 688.472 46.212 688.472 Q54.9649 688.472 59.9619 692.832 Q64.9272 697.193 64.9272 704.832 Q64.9272 712.502 59.9619 716.863 Q54.9649 721.191 46.212 721.191 Q37.4273 721.191 32.4621 716.863 Q27.4968 712.502 27.4968 704.832 Z" fill="#000000" fill-rule="nonzero" fill-opacity="1" /><path clip-path="url(#clip310)" d="M33.8307 658.107 Q33.2578 659.094 33.0032 660.272 Q32.7167 661.418 32.7167 662.818 Q32.7167 667.783 35.9632 670.457 Q39.1779 673.099 45.2253 673.099 L64.0042 673.099 L64.0042 678.987 L28.3562 678.987 L28.3562 673.099 L33.8944 673.099 Q30.6479 671.253 29.0883 668.292 Q27.4968 665.332 27.4968 661.099 Q27.4968 660.494 27.5923 659.762 Q27.656 659.03 27.8151 658.139 L33.8307 658.107 Z" fill="#000000" fill-rule="nonzero" fill-opacity="1" /><circle clip-path="url(#clip312)" cx="311.942" cy="86.1857" r="14.4" fill="#0000ff" fill-rule="evenodd" fill-opacity="1" stroke="none"/>
<circle clip-path="url(#clip312)" cx="532.094" cy="570.351" r="14.4" fill="#0000ff" fill-rule="evenodd" fill-opacity="1" stroke="none"/>
<circle clip-path="url(#clip312)" cx="972.399" cy="993.614" r="14.4" fill="#0000ff" fill-rule="evenodd" fill-opacity="1" stroke="none"/>
<circle clip-path="url(#clip312)" cx="1412.7" cy="1206.03" r="14.4" fill="#0000ff" fill-rule="evenodd" fill-opacity="1" stroke="none"/>
<circle clip-path="url(#clip312)" cx="1853.01" cy="1312.29" r="14.4" fill="#0000ff" fill-rule="evenodd" fill-opacity="1" stroke="none"/>
<circle clip-path="url(#clip312)" cx="2293.31" cy="1384.24" r="14.4" fill="#0000ff" fill-rule="evenodd" fill-opacity="1" stroke="none"/>
</svg>
