<?xml version="1.0" encoding="utf-8"?>
<svg xmlns="http://www.w3.org/2000/svg" xmlns:xlink="http://www.w3.org/1999/xlink" width="600" height="400" viewBox="0 0 2400 1600">
<defs>
  <clipPath id="clip190">
    <rect x="0" y="0" width="2400" height="1600"/>
  </clipPath>
</defs>
<path clip-path="url(#clip190)" d="M0 1600 L2400 1600 L2400 0 L0 0  Z" fill="#ffffff" fill-rule="evenodd" fill-opacity="1"/>
<defs>
  <clipPath id="clip191">
    <rect x="480" y="0" width="1681" height="1600"/>
  </clipPath>
</defs>
<path clip-path="url(#clip190)" d="M313.626 1423.18 L2352.76 1423.18 L2352.76 47.2441 L313.626 47.2441  Z" fill="#ffffff" fill-rule="evenodd" fill-opacity="1"/>
<defs>
  <clipPath id="clip192">
    <rect x="313" y="47" width="2040" height="1377"/>
  </clipPath>
</defs>
<polyline clip-path="url(#clip192)" style="stroke:#000000; stroke-linecap:round; stroke-linejoin:round; stroke-width:2; stroke-opacity:0.1; fill:none" points="371.337,1423.18 371.337,47.2441 "/>
<polyline clip-path="url(#clip192)" style="stroke:#000000; stroke-linecap:round; stroke-linejoin:round; stroke-width:2; stroke-opacity:0.1; fill:none" points="433.392,1423.18 433.392,47.2441 "/>
<polyline clip-path="url(#clip192)" style="stroke:#000000; stroke-linecap:round; stroke-linejoin:round; stroke-width:2; stroke-opacity:0.1; fill:none" points="557.502,1423.18 557.502,47.2441 "/>
<polyline clip-path="url(#clip192)" style="stroke:#000000; stroke-linecap:round; stroke-linejoin:round; stroke-width:2; stroke-opacity:0.1; fill:none" points="805.723,1423.18 805.723,47.2441 "/>
<polyline clip-path="url(#clip192)" style="stroke:#000000; stroke-linecap:round; stroke-linejoin:round; stroke-width:2; stroke-opacity:0.1; fill:none" points="1302.16,1423.18 1302.16,47.2441 "/>
<polyline clip-path="url(#clip192)" style="stroke:#000000; stroke-linecap:round; stroke-linejoin:round; stroke-width:2; stroke-opacity:0.1; fill:none" points="2295.04,1423.18 2295.04,47.2441 "/>
<polyline clip-path="url(#clip192)" style="stroke:#000000; stroke-linecap:round; stroke-linejoin:round; stroke-width:2; stroke-opacity:0.1; fill:none" points="1050.06,1423.18 1050.06,47.2441 "/>
<polyline clip-path="url(#clip192)" style="stroke:#000000; stroke-linecap:round; stroke-linejoin:round; stroke-width:2; stroke-opacity:0.1; fill:none" points="1802.48,1423.18 1802.48,47.2441 "/>
<polyline clip-path="url(#clip190)" style="stroke:#000000; stroke-linecap:round; stroke-linejoin:round; stroke-width:4; stroke-opacity:1; fill:none" points="313.626,1423.18 2352.76,1423.18 "/>
<polyline clip-path="url(#clip190)" style="stroke:#000000; stroke-linecap:round; stroke-linejoin:round; stroke-width:4; stroke-opacity:1; fill:none" points="371.337,1423.18 371.337,1404.28 "/>
<polyline clip-path="url(#clip190)" style="stroke:#000000; stroke-linecap:round; stroke-linejoin:round; stroke-width:4; stroke-opacity:1; fill:none" points="433.392,1423.18 433.392,1404.28 "/>
<polyline clip-path="url(#clip190)" style="stroke:#000000; stroke-linecap:round; stroke-linejoin:round; stroke-width:4; stroke-opacity:1; fill:none" points="557.502,1423.18 557.502,1404.28 "/>
<polyline clip-path="url(#clip190)" style="stroke:#000000; stroke-linecap:round; stroke-linejoin:round; stroke-width:4; stroke-opacity:1; fill:none" points="805.723,1423.18 805.723,1404.28 "/>
<polyline clip-path="url(#clip190)" style="stroke:#000000; stroke-linecap:round; stroke-linejoin:round; stroke-width:4; stroke-opacity:1; fill:none" points="1302.16,1423.18 1302.16,1404.28 "/>
<polyline clip-path="url(#clip190)" style="stroke:#000000; stroke-linecap:round; stroke-linejoin:round; stroke-width:4; stroke-opacity:1; fill:none" points="2295.04,1423.18 2295.04,1404.28 "/>
<polyline clip-path="url(#clip190)" style="stroke:#000000; stroke-linecap:round; stroke-linejoin:round; stroke-width:4; stroke-opacity:1; fill:none" points="1050.06,1423.18 1050.06,1404.28 "/>
<polyline clip-path="url(#clip190)" style="stroke:#000000; stroke-linecap:round; stroke-linejoin:round; stroke-width:4; stroke-opacity:1; fill:none" points="1802.48,1423.18 1802.48,1404.28 "/>
<path clip-path="url(#clip190)" d="M345.944 1481.64 L353.583 1481.64 L353.583 1455.28 L345.272 1456.95 L345.272 1452.69 L353.536 1451.02 L358.212 1451.02 L358.212 1481.64 L365.851 1481.64 L365.851 1485.58 L345.944 1485.58 L345.944 1481.64 Z" fill="#000000" fill-rule="nonzero" fill-opacity="1" /><path clip-path="url(#clip190)" d="M385.874 1466.44 Q382.726 1466.44 380.874 1468.59 Q379.045 1470.74 379.045 1474.49 Q379.045 1478.22 380.874 1480.39 Q382.726 1482.55 385.874 1482.55 Q389.022 1482.55 390.851 1480.39 Q392.703 1478.22 392.703 1474.49 Q392.703 1470.74 390.851 1468.59 Q389.022 1466.44 385.874 1466.44 M395.156 1451.78 L395.156 1456.04 Q393.397 1455.21 391.592 1454.77 Q389.809 1454.33 388.05 1454.33 Q383.42 1454.33 380.967 1457.45 Q378.536 1460.58 378.189 1466.9 Q379.555 1464.89 381.615 1463.82 Q383.675 1462.73 386.152 1462.73 Q391.36 1462.73 394.369 1465.9 Q397.402 1469.05 397.402 1474.49 Q397.402 1479.82 394.254 1483.03 Q391.106 1486.25 385.874 1486.25 Q379.879 1486.25 376.707 1481.67 Q373.536 1477.06 373.536 1468.33 Q373.536 1460.14 377.425 1455.28 Q381.314 1450.39 387.865 1450.39 Q389.624 1450.39 391.406 1450.74 Q393.212 1451.09 395.156 1451.78 Z" fill="#000000" fill-rule="nonzero" fill-opacity="1" /><path clip-path="url(#clip190)" d="M423.033 1466.95 Q426.39 1467.66 428.265 1469.93 Q430.163 1472.2 430.163 1475.53 Q430.163 1480.65 426.645 1483.45 Q423.126 1486.25 416.645 1486.25 Q414.469 1486.25 412.154 1485.81 Q409.862 1485.39 407.409 1484.54 L407.409 1480.02 Q409.353 1481.16 411.668 1481.74 Q413.983 1482.32 416.506 1482.32 Q420.904 1482.32 423.195 1480.58 Q425.51 1478.84 425.51 1475.53 Q425.51 1472.48 423.358 1470.77 Q421.228 1469.03 417.408 1469.03 L413.381 1469.03 L413.381 1465.19 L417.594 1465.19 Q421.043 1465.19 422.871 1463.82 Q424.7 1462.43 424.7 1459.84 Q424.7 1457.18 422.802 1455.77 Q420.927 1454.33 417.408 1454.33 Q415.487 1454.33 413.288 1454.75 Q411.089 1455.16 408.45 1456.04 L408.45 1451.88 Q411.112 1451.14 413.427 1450.77 Q415.765 1450.39 417.825 1450.39 Q423.149 1450.39 426.251 1452.83 Q429.353 1455.23 429.353 1459.35 Q429.353 1462.22 427.709 1464.21 Q426.066 1466.18 423.033 1466.95 Z" fill="#000000" fill-rule="nonzero" fill-opacity="1" /><path clip-path="url(#clip190)" d="M443.057 1481.64 L459.376 1481.64 L459.376 1485.58 L437.432 1485.58 L437.432 1481.64 Q440.094 1478.89 444.677 1474.26 Q449.283 1469.61 450.464 1468.27 Q452.709 1465.74 453.589 1464.01 Q454.492 1462.25 454.492 1460.56 Q454.492 1457.8 452.547 1456.07 Q450.626 1454.33 447.524 1454.33 Q445.325 1454.33 442.871 1455.09 Q440.441 1455.86 437.663 1457.41 L437.663 1452.69 Q440.487 1451.55 442.941 1450.97 Q445.394 1450.39 447.431 1450.39 Q452.802 1450.39 455.996 1453.08 Q459.191 1455.77 459.191 1460.26 Q459.191 1462.39 458.38 1464.31 Q457.593 1466.2 455.487 1468.8 Q454.908 1469.47 451.806 1472.69 Q448.705 1475.88 443.057 1481.64 Z" fill="#000000" fill-rule="nonzero" fill-opacity="1" /><path clip-path="url(#clip190)" d="M542.664 1466.44 Q539.516 1466.44 537.665 1468.59 Q535.836 1470.74 535.836 1474.49 Q535.836 1478.22 537.665 1480.39 Q539.516 1482.55 542.664 1482.55 Q545.813 1482.55 547.641 1480.39 Q549.493 1478.22 549.493 1474.49 Q549.493 1470.74 547.641 1468.59 Q545.813 1466.44 542.664 1466.44 M551.947 1451.78 L551.947 1456.04 Q550.188 1455.21 548.382 1454.77 Q546.6 1454.33 544.84 1454.33 Q540.211 1454.33 537.757 1457.45 Q535.327 1460.58 534.979 1466.9 Q536.345 1464.89 538.405 1463.82 Q540.465 1462.73 542.942 1462.73 Q548.151 1462.73 551.16 1465.9 Q554.192 1469.05 554.192 1474.49 Q554.192 1479.82 551.044 1483.03 Q547.896 1486.25 542.664 1486.25 Q536.669 1486.25 533.498 1481.67 Q530.327 1477.06 530.327 1468.33 Q530.327 1460.14 534.215 1455.28 Q538.104 1450.39 544.655 1450.39 Q546.414 1450.39 548.197 1450.74 Q550.002 1451.09 551.947 1451.78 Z" fill="#000000" fill-rule="nonzero" fill-opacity="1" /><path clip-path="url(#clip190)" d="M575.095 1455.09 L563.289 1473.54 L575.095 1473.54 L575.095 1455.09 M573.868 1451.02 L579.748 1451.02 L579.748 1473.54 L584.678 1473.54 L584.678 1477.43 L579.748 1477.43 L579.748 1485.58 L575.095 1485.58 L575.095 1477.43 L559.493 1477.43 L559.493 1472.92 L573.868 1451.02 Z" fill="#000000" fill-rule="nonzero" fill-opacity="1" /><path clip-path="url(#clip190)" d="M765.376 1481.64 L773.015 1481.64 L773.015 1455.28 L764.704 1456.95 L764.704 1452.69 L772.968 1451.02 L777.644 1451.02 L777.644 1481.64 L785.283 1481.64 L785.283 1485.58 L765.376 1485.58 L765.376 1481.64 Z" fill="#000000" fill-rule="nonzero" fill-opacity="1" /><path clip-path="url(#clip190)" d="M798.755 1481.64 L815.074 1481.64 L815.074 1485.58 L793.13 1485.58 L793.13 1481.64 Q795.792 1478.89 800.376 1474.26 Q804.982 1469.61 806.163 1468.27 Q808.408 1465.74 809.287 1464.01 Q810.19 1462.25 810.19 1460.56 Q810.19 1457.8 808.246 1456.07 Q806.325 1454.33 803.223 1454.33 Q801.024 1454.33 798.57 1455.09 Q796.139 1455.86 793.362 1457.41 L793.362 1452.69 Q796.186 1451.55 798.639 1450.97 Q801.093 1450.39 803.13 1450.39 Q808.5 1450.39 811.695 1453.08 Q814.889 1455.77 814.889 1460.26 Q814.889 1462.39 814.079 1464.31 Q813.292 1466.2 811.186 1468.8 Q810.607 1469.47 807.505 1472.69 Q804.403 1475.88 798.755 1481.64 Z" fill="#000000" fill-rule="nonzero" fill-opacity="1" /><path clip-path="url(#clip190)" d="M834.889 1469.17 Q831.556 1469.17 829.635 1470.95 Q827.736 1472.73 827.736 1475.86 Q827.736 1478.98 829.635 1480.77 Q831.556 1482.55 834.889 1482.55 Q838.223 1482.55 840.144 1480.77 Q842.065 1478.96 842.065 1475.86 Q842.065 1472.73 840.144 1470.95 Q838.246 1469.17 834.889 1469.17 M830.213 1467.18 Q827.204 1466.44 825.514 1464.38 Q823.848 1462.32 823.848 1459.35 Q823.848 1455.21 826.787 1452.8 Q829.75 1450.39 834.889 1450.39 Q840.051 1450.39 842.991 1452.8 Q845.931 1455.21 845.931 1459.35 Q845.931 1462.32 844.241 1464.38 Q842.574 1466.44 839.588 1467.18 Q842.968 1467.96 844.843 1470.26 Q846.741 1472.55 846.741 1475.86 Q846.741 1480.88 843.662 1483.57 Q840.607 1486.25 834.889 1486.25 Q829.172 1486.25 826.093 1483.57 Q823.037 1480.88 823.037 1475.86 Q823.037 1472.55 824.936 1470.26 Q826.834 1467.96 830.213 1467.18 M828.5 1459.79 Q828.5 1462.48 830.167 1463.98 Q831.857 1465.49 834.889 1465.49 Q837.898 1465.49 839.588 1463.98 Q841.301 1462.48 841.301 1459.79 Q841.301 1457.11 839.588 1455.6 Q837.898 1454.1 834.889 1454.1 Q831.857 1454.1 830.167 1455.6 Q828.5 1457.11 828.5 1459.79 Z" fill="#000000" fill-rule="nonzero" fill-opacity="1" /><path clip-path="url(#clip190)" d="M1265.77 1481.64 L1282.09 1481.64 L1282.09 1485.58 L1260.15 1485.58 L1260.15 1481.64 Q1262.81 1478.89 1267.4 1474.26 Q1272 1469.61 1273.18 1468.27 Q1275.43 1465.74 1276.31 1464.01 Q1277.21 1462.25 1277.21 1460.56 Q1277.21 1457.8 1275.27 1456.07 Q1273.34 1454.33 1270.24 1454.33 Q1268.04 1454.33 1265.59 1455.09 Q1263.16 1455.86 1260.38 1457.41 L1260.38 1452.69 Q1263.21 1451.55 1265.66 1450.97 Q1268.11 1450.39 1270.15 1450.39 Q1275.52 1450.39 1278.71 1453.08 Q1281.91 1455.77 1281.91 1460.26 Q1281.91 1462.39 1281.1 1464.31 Q1280.31 1466.2 1278.21 1468.8 Q1277.63 1469.47 1274.52 1472.69 Q1271.42 1475.88 1265.77 1481.64 Z" fill="#000000" fill-rule="nonzero" fill-opacity="1" /><path clip-path="url(#clip190)" d="M1291.96 1451.02 L1310.31 1451.02 L1310.31 1454.96 L1296.24 1454.96 L1296.24 1463.43 Q1297.26 1463.08 1298.27 1462.92 Q1299.29 1462.73 1300.31 1462.73 Q1306.1 1462.73 1309.48 1465.9 Q1312.86 1469.08 1312.86 1474.49 Q1312.86 1480.07 1309.39 1483.17 Q1305.91 1486.25 1299.59 1486.25 Q1297.42 1486.25 1295.15 1485.88 Q1292.9 1485.51 1290.5 1484.77 L1290.5 1480.07 Q1292.58 1481.2 1294.8 1481.76 Q1297.02 1482.32 1299.5 1482.32 Q1303.51 1482.32 1305.84 1480.21 Q1308.18 1478.1 1308.18 1474.49 Q1308.18 1470.88 1305.84 1468.77 Q1303.51 1466.67 1299.5 1466.67 Q1297.63 1466.67 1295.75 1467.08 Q1293.9 1467.5 1291.96 1468.38 L1291.96 1451.02 Z" fill="#000000" fill-rule="nonzero" fill-opacity="1" /><path clip-path="url(#clip190)" d="M1332.65 1466.44 Q1329.5 1466.44 1327.65 1468.59 Q1325.82 1470.74 1325.82 1474.49 Q1325.82 1478.22 1327.65 1480.39 Q1329.5 1482.55 1332.65 1482.55 Q1335.8 1482.55 1337.63 1480.39 Q1339.48 1478.22 1339.48 1474.49 Q1339.48 1470.74 1337.63 1468.59 Q1335.8 1466.44 1332.65 1466.44 M1341.93 1451.78 L1341.93 1456.04 Q1340.17 1455.21 1338.37 1454.77 Q1336.58 1454.33 1334.83 1454.33 Q1330.2 1454.33 1327.74 1457.45 Q1325.31 1460.58 1324.96 1466.9 Q1326.33 1464.89 1328.39 1463.82 Q1330.45 1462.73 1332.93 1462.73 Q1338.14 1462.73 1341.14 1465.9 Q1344.18 1469.05 1344.18 1474.49 Q1344.18 1479.82 1341.03 1483.03 Q1337.88 1486.25 1332.65 1486.25 Q1326.65 1486.25 1323.48 1481.67 Q1320.31 1477.06 1320.31 1468.33 Q1320.31 1460.14 1324.2 1455.28 Q1328.09 1450.39 1334.64 1450.39 Q1336.4 1450.39 1338.18 1450.74 Q1339.99 1451.09 1341.93 1451.78 Z" fill="#000000" fill-rule="nonzero" fill-opacity="1" /><path clip-path="url(#clip190)" d="M2255.46 1451.02 L2273.82 1451.02 L2273.82 1454.96 L2259.74 1454.96 L2259.74 1463.43 Q2260.76 1463.08 2261.78 1462.92 Q2262.8 1462.73 2263.82 1462.73 Q2269.61 1462.73 2272.98 1465.9 Q2276.36 1469.08 2276.36 1474.49 Q2276.36 1480.07 2272.89 1483.17 Q2269.42 1486.25 2263.1 1486.25 Q2260.92 1486.25 2258.66 1485.88 Q2256.41 1485.51 2254 1484.77 L2254 1480.07 Q2256.09 1481.2 2258.31 1481.76 Q2260.53 1482.32 2263.01 1482.32 Q2267.01 1482.32 2269.35 1480.21 Q2271.69 1478.1 2271.69 1474.49 Q2271.69 1470.88 2269.35 1468.77 Q2267.01 1466.67 2263.01 1466.67 Q2261.13 1466.67 2259.26 1467.08 Q2257.41 1467.5 2255.46 1468.38 L2255.46 1451.02 Z" fill="#000000" fill-rule="nonzero" fill-opacity="1" /><path clip-path="url(#clip190)" d="M2286.39 1481.64 L2294.03 1481.64 L2294.03 1455.28 L2285.72 1456.95 L2285.72 1452.69 L2293.98 1451.02 L2298.66 1451.02 L2298.66 1481.64 L2306.29 1481.64 L2306.29 1485.58 L2286.39 1485.58 L2286.39 1481.64 Z" fill="#000000" fill-rule="nonzero" fill-opacity="1" /><path clip-path="url(#clip190)" d="M2319.77 1481.64 L2336.09 1481.64 L2336.09 1485.58 L2314.14 1485.58 L2314.14 1481.64 Q2316.8 1478.89 2321.39 1474.26 Q2325.99 1469.61 2327.17 1468.27 Q2329.42 1465.74 2330.3 1464.01 Q2331.2 1462.25 2331.2 1460.56 Q2331.2 1457.8 2329.26 1456.07 Q2327.34 1454.33 2324.23 1454.33 Q2322.04 1454.33 2319.58 1455.09 Q2317.15 1455.86 2314.37 1457.41 L2314.37 1452.69 Q2317.2 1451.55 2319.65 1450.97 Q2322.1 1450.39 2324.14 1450.39 Q2329.51 1450.39 2332.71 1453.08 Q2335.9 1455.77 2335.9 1460.26 Q2335.9 1462.39 2335.09 1464.31 Q2334.3 1466.2 2332.2 1468.8 Q2331.62 1469.47 2328.52 1472.69 Q2325.41 1475.88 2319.77 1481.64 Z" fill="#000000" fill-rule="nonzero" fill-opacity="1" /><path clip-path="url(#clip190)" d="M1010.28 1481.64 L1017.92 1481.64 L1017.92 1455.28 L1009.61 1456.95 L1009.61 1452.69 L1017.88 1451.02 L1022.55 1451.02 L1022.55 1481.64 L1030.19 1481.64 L1030.19 1485.58 L1010.28 1485.58 L1010.28 1481.64 Z" fill="#000000" fill-rule="nonzero" fill-opacity="1" /><path clip-path="url(#clip190)" d="M1039.78 1484.86 L1039.78 1480.6 Q1041.53 1481.44 1043.34 1481.88 Q1045.15 1482.32 1046.88 1482.32 Q1051.51 1482.32 1053.94 1479.21 Q1056.4 1476.09 1056.74 1469.75 Q1055.4 1471.74 1053.34 1472.8 Q1051.28 1473.87 1048.78 1473.87 Q1043.59 1473.87 1040.56 1470.74 Q1037.55 1467.59 1037.55 1462.15 Q1037.55 1456.83 1040.7 1453.61 Q1043.85 1450.39 1049.08 1450.39 Q1055.08 1450.39 1058.22 1455 Q1061.4 1459.58 1061.4 1468.33 Q1061.4 1476.51 1057.51 1481.39 Q1053.64 1486.25 1047.09 1486.25 Q1045.33 1486.25 1043.53 1485.9 Q1041.72 1485.56 1039.78 1484.86 M1049.08 1470.21 Q1052.23 1470.21 1054.06 1468.06 Q1055.91 1465.9 1055.91 1462.15 Q1055.91 1458.43 1054.06 1456.27 Q1052.23 1454.1 1049.08 1454.1 Q1045.93 1454.1 1044.08 1456.27 Q1042.25 1458.43 1042.25 1462.15 Q1042.25 1465.9 1044.08 1468.06 Q1045.93 1470.21 1049.08 1470.21 Z" fill="#000000" fill-rule="nonzero" fill-opacity="1" /><path clip-path="url(#clip190)" d="M1070.61 1481.64 L1078.25 1481.64 L1078.25 1455.28 L1069.94 1456.95 L1069.94 1452.69 L1078.2 1451.02 L1082.88 1451.02 L1082.88 1481.64 L1090.52 1481.64 L1090.52 1485.58 L1070.61 1485.58 L1070.61 1481.64 Z" fill="#000000" fill-rule="nonzero" fill-opacity="1" /><path clip-path="url(#clip190)" d="M1776.74 1466.95 Q1780.1 1467.66 1781.97 1469.93 Q1783.87 1472.2 1783.87 1475.53 Q1783.87 1480.65 1780.35 1483.45 Q1776.83 1486.25 1770.35 1486.25 Q1768.18 1486.25 1765.86 1485.81 Q1763.57 1485.39 1761.12 1484.54 L1761.12 1480.02 Q1763.06 1481.16 1765.38 1481.74 Q1767.69 1482.32 1770.21 1482.32 Q1774.61 1482.32 1776.9 1480.58 Q1779.22 1478.84 1779.22 1475.53 Q1779.22 1472.48 1777.07 1470.77 Q1774.94 1469.03 1771.12 1469.03 L1767.09 1469.03 L1767.09 1465.19 L1771.3 1465.19 Q1774.75 1465.19 1776.58 1463.82 Q1778.41 1462.43 1778.41 1459.84 Q1778.41 1457.18 1776.51 1455.77 Q1774.64 1454.33 1771.12 1454.33 Q1769.2 1454.33 1767 1454.75 Q1764.8 1455.16 1762.16 1456.04 L1762.16 1451.88 Q1764.82 1451.14 1767.14 1450.77 Q1769.47 1450.39 1771.53 1450.39 Q1776.86 1450.39 1779.96 1452.83 Q1783.06 1455.23 1783.06 1459.35 Q1783.06 1462.22 1781.42 1464.21 Q1779.77 1466.18 1776.74 1466.95 Z" fill="#000000" fill-rule="nonzero" fill-opacity="1" /><path clip-path="url(#clip190)" d="M1802.74 1469.17 Q1799.4 1469.17 1797.48 1470.95 Q1795.58 1472.73 1795.58 1475.86 Q1795.58 1478.98 1797.48 1480.77 Q1799.4 1482.55 1802.74 1482.55 Q1806.07 1482.55 1807.99 1480.77 Q1809.91 1478.96 1809.91 1475.86 Q1809.91 1472.73 1807.99 1470.95 Q1806.09 1469.17 1802.74 1469.17 M1798.06 1467.18 Q1795.05 1466.44 1793.36 1464.38 Q1791.7 1462.32 1791.7 1459.35 Q1791.7 1455.21 1794.64 1452.8 Q1797.6 1450.39 1802.74 1450.39 Q1807.9 1450.39 1810.84 1452.8 Q1813.78 1455.21 1813.78 1459.35 Q1813.78 1462.32 1812.09 1464.38 Q1810.42 1466.44 1807.44 1467.18 Q1810.82 1467.96 1812.69 1470.26 Q1814.59 1472.55 1814.59 1475.86 Q1814.59 1480.88 1811.51 1483.57 Q1808.45 1486.25 1802.74 1486.25 Q1797.02 1486.25 1793.94 1483.57 Q1790.89 1480.88 1790.89 1475.86 Q1790.89 1472.55 1792.78 1470.26 Q1794.68 1467.96 1798.06 1467.18 M1796.35 1459.79 Q1796.35 1462.48 1798.01 1463.98 Q1799.7 1465.49 1802.74 1465.49 Q1805.75 1465.49 1807.44 1463.98 Q1809.15 1462.48 1809.15 1459.79 Q1809.15 1457.11 1807.44 1455.6 Q1805.75 1454.1 1802.74 1454.1 Q1799.7 1454.1 1798.01 1455.6 Q1796.35 1457.11 1796.35 1459.79 Z" fill="#000000" fill-rule="nonzero" fill-opacity="1" /><path clip-path="url(#clip190)" d="M1822.95 1451.02 L1841.3 1451.02 L1841.3 1454.96 L1827.23 1454.96 L1827.23 1463.43 Q1828.25 1463.08 1829.26 1462.92 Q1830.28 1462.73 1831.3 1462.73 Q1837.09 1462.73 1840.47 1465.9 Q1843.85 1469.08 1843.85 1474.49 Q1843.85 1480.07 1840.38 1483.17 Q1836.9 1486.25 1830.58 1486.25 Q1828.41 1486.25 1826.14 1485.88 Q1823.89 1485.51 1821.49 1484.77 L1821.49 1480.07 Q1823.57 1481.2 1825.79 1481.76 Q1828.01 1482.32 1830.49 1482.32 Q1834.5 1482.32 1836.83 1480.21 Q1839.17 1478.1 1839.17 1474.49 Q1839.17 1470.88 1836.83 1468.77 Q1834.5 1466.67 1830.49 1466.67 Q1828.62 1466.67 1826.74 1467.08 Q1824.89 1467.5 1822.95 1468.38 L1822.95 1451.02 Z" fill="#000000" fill-rule="nonzero" fill-opacity="1" /><path clip-path="url(#clip190)" d="M1315.21 1520.52 L1323.87 1520.52 L1344.94 1560.28 L1344.94 1520.52 L1351.17 1520.52 L1351.17 1568.04 L1342.52 1568.04 L1321.45 1528.29 L1321.45 1568.04 L1315.21 1568.04 L1315.21 1520.52 Z" fill="#000000" fill-rule="nonzero" fill-opacity="1" /><polyline clip-path="url(#clip192)" style="stroke:#000000; stroke-linecap:round; stroke-linejoin:round; stroke-width:2; stroke-opacity:0.1; fill:none" points="313.626,1056.03 2352.76,1056.03 "/>
<polyline clip-path="url(#clip192)" style="stroke:#000000; stroke-linecap:round; stroke-linejoin:round; stroke-width:2; stroke-opacity:0.1; fill:none" points="313.626,648.624 2352.76,648.624 "/>
<polyline clip-path="url(#clip192)" style="stroke:#000000; stroke-linecap:round; stroke-linejoin:round; stroke-width:2; stroke-opacity:0.1; fill:none" points="313.626,241.22 2352.76,241.22 "/>
<polyline clip-path="url(#clip190)" style="stroke:#000000; stroke-linecap:round; stroke-linejoin:round; stroke-width:4; stroke-opacity:1; fill:none" points="313.626,1423.18 313.626,47.2441 "/>
<polyline clip-path="url(#clip190)" style="stroke:#000000; stroke-linecap:round; stroke-linejoin:round; stroke-width:4; stroke-opacity:1; fill:none" points="313.626,1056.03 332.524,1056.03 "/>
<polyline clip-path="url(#clip190)" style="stroke:#000000; stroke-linecap:round; stroke-linejoin:round; stroke-width:4; stroke-opacity:1; fill:none" points="313.626,648.624 332.524,648.624 "/>
<polyline clip-path="url(#clip190)" style="stroke:#000000; stroke-linecap:round; stroke-linejoin:round; stroke-width:4; stroke-opacity:1; fill:none" points="313.626,241.22 332.524,241.22 "/>
<path clip-path="url(#clip190)" d="M114.931 1075.82 L122.57 1075.82 L122.57 1049.45 L114.26 1051.12 L114.26 1046.86 L122.524 1045.2 L127.2 1045.2 L127.2 1075.82 L134.839 1075.82 L134.839 1079.76 L114.931 1079.76 L114.931 1075.82 Z" fill="#000000" fill-rule="nonzero" fill-opacity="1" /><path clip-path="url(#clip190)" d="M154.283 1048.27 Q150.672 1048.27 148.843 1051.84 Q147.038 1055.38 147.038 1062.51 Q147.038 1069.62 148.843 1073.18 Q150.672 1076.72 154.283 1076.72 Q157.917 1076.72 159.723 1073.18 Q161.552 1069.62 161.552 1062.51 Q161.552 1055.38 159.723 1051.84 Q157.917 1048.27 154.283 1048.27 M154.283 1044.57 Q160.093 1044.57 163.149 1049.18 Q166.227 1053.76 166.227 1062.51 Q166.227 1071.24 163.149 1075.84 Q160.093 1080.43 154.283 1080.43 Q148.473 1080.43 145.394 1075.84 Q142.339 1071.24 142.339 1062.51 Q142.339 1053.76 145.394 1049.18 Q148.473 1044.57 154.283 1044.57 Z" fill="#000000" fill-rule="nonzero" fill-opacity="1" /><path clip-path="url(#clip190)" d="M166.227 1038.67 L190.339 1038.67 L190.339 1041.87 L166.227 1041.87 L166.227 1038.67 Z" fill="#000000" fill-rule="nonzero" fill-opacity="1" /><path clip-path="url(#clip190)" d="M207.134 1036.79 Q204.577 1036.79 203.072 1038.54 Q201.586 1040.29 201.586 1043.34 Q201.586 1046.36 203.072 1048.13 Q204.577 1049.88 207.134 1049.88 Q209.692 1049.88 211.178 1048.13 Q212.683 1046.36 212.683 1043.34 Q212.683 1040.29 211.178 1038.54 Q209.692 1036.79 207.134 1036.79 M214.676 1024.89 L214.676 1028.35 Q213.247 1027.67 211.78 1027.31 Q210.332 1026.95 208.902 1026.95 Q205.141 1026.95 203.147 1029.49 Q201.172 1032.03 200.89 1037.17 Q202 1035.53 203.674 1034.67 Q205.348 1033.78 207.36 1033.78 Q211.592 1033.78 214.037 1036.36 Q216.501 1038.92 216.501 1043.34 Q216.501 1047.66 213.943 1050.28 Q211.385 1052.89 207.134 1052.89 Q202.263 1052.89 199.686 1049.17 Q197.11 1045.42 197.11 1038.33 Q197.11 1031.67 200.27 1027.73 Q203.429 1023.76 208.752 1023.76 Q210.181 1023.76 211.629 1024.04 Q213.096 1024.32 214.676 1024.89 Z" fill="#000000" fill-rule="nonzero" fill-opacity="1" /><path clip-path="url(#clip190)" d="M223.046 1047.57 L227.014 1047.57 L227.014 1052.34 L223.046 1052.34 L223.046 1047.57 Z" fill="#000000" fill-rule="nonzero" fill-opacity="1" /><path clip-path="url(#clip190)" d="M243.415 1026.77 Q240.481 1026.77 238.995 1029.66 Q237.528 1032.54 237.528 1038.33 Q237.528 1044.11 238.995 1047 Q240.481 1049.88 243.415 1049.88 Q246.367 1049.88 247.834 1047 Q249.32 1044.11 249.32 1038.33 Q249.32 1032.54 247.834 1029.66 Q246.367 1026.77 243.415 1026.77 M243.415 1023.76 Q248.135 1023.76 250.618 1027.5 Q253.119 1031.22 253.119 1038.33 Q253.119 1045.42 250.618 1049.17 Q248.135 1052.89 243.415 1052.89 Q238.694 1052.89 236.192 1049.17 Q233.71 1045.42 233.71 1038.33 Q233.71 1031.22 236.192 1027.5 Q238.694 1023.76 243.415 1023.76 Z" fill="#000000" fill-rule="nonzero" fill-opacity="1" /><path clip-path="url(#clip190)" d="M267.921 1026.77 Q264.987 1026.77 263.501 1029.66 Q262.034 1032.54 262.034 1038.33 Q262.034 1044.11 263.501 1047 Q264.987 1049.88 267.921 1049.88 Q270.874 1049.88 272.341 1047 Q273.827 1044.11 273.827 1038.33 Q273.827 1032.54 272.341 1029.66 Q270.874 1026.77 267.921 1026.77 M267.921 1023.76 Q272.642 1023.76 275.124 1027.5 Q277.626 1031.22 277.626 1038.33 Q277.626 1045.42 275.124 1049.17 Q272.642 1052.89 267.921 1052.89 Q263.2 1052.89 260.699 1049.17 Q258.216 1045.42 258.216 1038.33 Q258.216 1031.22 260.699 1027.5 Q263.2 1023.76 267.921 1023.76 Z" fill="#000000" fill-rule="nonzero" fill-opacity="1" /><path clip-path="url(#clip190)" d="M115.74 668.416 L123.379 668.416 L123.379 642.051 L115.069 643.717 L115.069 639.458 L123.333 637.791 L128.009 637.791 L128.009 668.416 L135.647 668.416 L135.647 672.351 L115.74 672.351 L115.74 668.416 Z" fill="#000000" fill-rule="nonzero" fill-opacity="1" /><path clip-path="url(#clip190)" d="M155.092 640.87 Q151.481 640.87 149.652 644.435 Q147.846 647.977 147.846 655.106 Q147.846 662.213 149.652 665.777 Q151.481 669.319 155.092 669.319 Q158.726 669.319 160.532 665.777 Q162.36 662.213 162.36 655.106 Q162.36 647.977 160.532 644.435 Q158.726 640.87 155.092 640.87 M155.092 637.166 Q160.902 637.166 163.958 641.773 Q167.036 646.356 167.036 655.106 Q167.036 663.833 163.958 668.439 Q160.902 673.023 155.092 673.023 Q149.282 673.023 146.203 668.439 Q143.147 663.833 143.147 655.106 Q143.147 646.356 146.203 641.773 Q149.282 637.166 155.092 637.166 Z" fill="#000000" fill-rule="nonzero" fill-opacity="1" /><path clip-path="url(#clip190)" d="M167.036 631.268 L191.148 631.268 L191.148 634.465 L167.036 634.465 L167.036 631.268 Z" fill="#000000" fill-rule="nonzero" fill-opacity="1" /><path clip-path="url(#clip190)" d="M199.386 616.861 L214.3 616.861 L214.3 620.058 L202.865 620.058 L202.865 626.942 Q203.693 626.66 204.52 626.528 Q205.348 626.378 206.175 626.378 Q210.877 626.378 213.623 628.954 Q216.369 631.531 216.369 635.932 Q216.369 640.465 213.548 642.985 Q210.727 645.486 205.592 645.486 Q203.824 645.486 201.981 645.186 Q200.157 644.885 198.201 644.283 L198.201 640.465 Q199.893 641.386 201.699 641.838 Q203.504 642.289 205.517 642.289 Q208.771 642.289 210.67 640.578 Q212.57 638.866 212.57 635.932 Q212.57 632.998 210.67 631.287 Q208.771 629.575 205.517 629.575 Q203.993 629.575 202.47 629.914 Q200.965 630.252 199.386 630.967 L199.386 616.861 Z" fill="#000000" fill-rule="nonzero" fill-opacity="1" /><path clip-path="url(#clip190)" d="M223.854 640.164 L227.823 640.164 L227.823 644.941 L223.854 644.941 L223.854 640.164 Z" fill="#000000" fill-rule="nonzero" fill-opacity="1" /><path clip-path="url(#clip190)" d="M235.139 616.861 L253.195 616.861 L253.195 618.479 L243.001 644.941 L239.032 644.941 L248.624 620.058 L235.139 620.058 L235.139 616.861 Z" fill="#000000" fill-rule="nonzero" fill-opacity="1" /><path clip-path="url(#clip190)" d="M260.642 616.861 L275.557 616.861 L275.557 620.058 L264.122 620.058 L264.122 626.942 Q264.949 626.66 265.777 626.528 Q266.605 626.378 267.432 626.378 Q272.134 626.378 274.88 628.954 Q277.626 631.531 277.626 635.932 Q277.626 640.465 274.805 642.985 Q271.984 645.486 266.849 645.486 Q265.081 645.486 263.238 645.186 Q261.414 644.885 259.458 644.283 L259.458 640.465 Q261.15 641.386 262.956 641.838 Q264.761 642.289 266.774 642.289 Q270.028 642.289 271.927 640.578 Q273.827 638.866 273.827 635.932 Q273.827 632.998 271.927 631.287 Q270.028 629.575 266.774 629.575 Q265.25 629.575 263.727 629.914 Q262.222 630.252 260.642 630.967 L260.642 616.861 Z" fill="#000000" fill-rule="nonzero" fill-opacity="1" /><path clip-path="url(#clip190)" d="M114.931 261.013 L122.57 261.013 L122.57 234.647 L114.26 236.314 L114.26 232.055 L122.524 230.388 L127.2 230.388 L127.2 261.013 L134.839 261.013 L134.839 264.948 L114.931 264.948 L114.931 261.013 Z" fill="#000000" fill-rule="nonzero" fill-opacity="1" /><path clip-path="url(#clip190)" d="M154.283 233.467 Q150.672 233.467 148.843 237.031 Q147.038 240.573 147.038 247.703 Q147.038 254.809 148.843 258.374 Q150.672 261.915 154.283 261.915 Q157.917 261.915 159.723 258.374 Q161.552 254.809 161.552 247.703 Q161.552 240.573 159.723 237.031 Q157.917 233.467 154.283 233.467 M154.283 229.763 Q160.093 229.763 163.149 234.369 Q166.227 238.953 166.227 247.703 Q166.227 256.429 163.149 261.036 Q160.093 265.619 154.283 265.619 Q148.473 265.619 145.394 261.036 Q142.339 256.429 142.339 247.703 Q142.339 238.953 145.394 234.369 Q148.473 229.763 154.283 229.763 Z" fill="#000000" fill-rule="nonzero" fill-opacity="1" /><path clip-path="url(#clip190)" d="M166.227 223.864 L190.339 223.864 L190.339 227.062 L166.227 227.062 L166.227 223.864 Z" fill="#000000" fill-rule="nonzero" fill-opacity="1" /><path clip-path="url(#clip190)" d="M198.577 209.457 L213.491 209.457 L213.491 212.655 L202.056 212.655 L202.056 219.538 Q202.884 219.256 203.711 219.125 Q204.539 218.974 205.366 218.974 Q210.068 218.974 212.814 221.551 Q215.56 224.128 215.56 228.529 Q215.56 233.061 212.739 235.581 Q209.918 238.083 204.783 238.083 Q203.015 238.083 201.172 237.782 Q199.348 237.481 197.392 236.879 L197.392 233.061 Q199.085 233.983 200.89 234.434 Q202.696 234.886 204.708 234.886 Q207.962 234.886 209.861 233.174 Q211.761 231.463 211.761 228.529 Q211.761 225.595 209.861 223.883 Q207.962 222.172 204.708 222.172 Q203.185 222.172 201.661 222.51 Q200.157 222.849 198.577 223.563 L198.577 209.457 Z" fill="#000000" fill-rule="nonzero" fill-opacity="1" /><path clip-path="url(#clip190)" d="M223.046 232.76 L227.014 232.76 L227.014 237.537 L223.046 237.537 L223.046 232.76 Z" fill="#000000" fill-rule="nonzero" fill-opacity="1" /><path clip-path="url(#clip190)" d="M235.327 209.457 L250.242 209.457 L250.242 212.655 L238.807 212.655 L238.807 219.538 Q239.634 219.256 240.462 219.125 Q241.289 218.974 242.117 218.974 Q246.819 218.974 249.565 221.551 Q252.311 224.128 252.311 228.529 Q252.311 233.061 249.489 235.581 Q246.668 238.083 241.534 238.083 Q239.766 238.083 237.923 237.782 Q236.098 237.481 234.142 236.879 L234.142 233.061 Q235.835 233.983 237.641 234.434 Q239.446 234.886 241.459 234.886 Q244.712 234.886 246.612 233.174 Q248.511 231.463 248.511 228.529 Q248.511 225.595 246.612 223.883 Q244.712 222.172 241.459 222.172 Q239.935 222.172 238.412 222.51 Q236.907 222.849 235.327 223.563 L235.327 209.457 Z" fill="#000000" fill-rule="nonzero" fill-opacity="1" /><path clip-path="url(#clip190)" d="M267.921 211.959 Q264.987 211.959 263.501 214.855 Q262.034 217.733 262.034 223.526 Q262.034 229.3 263.501 232.196 Q264.987 235.074 267.921 235.074 Q270.874 235.074 272.341 232.196 Q273.827 229.3 273.827 223.526 Q273.827 217.733 272.341 214.855 Q270.874 211.959 267.921 211.959 M267.921 208.95 Q272.642 208.95 275.124 212.692 Q277.626 216.416 277.626 223.526 Q277.626 230.616 275.124 234.359 Q272.642 238.083 267.921 238.083 Q263.2 238.083 260.699 234.359 Q258.216 230.616 258.216 223.526 Q258.216 216.416 260.699 212.692 Q263.2 208.95 267.921 208.95 Z" fill="#000000" fill-rule="nonzero" fill-opacity="1" /><path clip-path="url(#clip190)" d="M44.7161 779.279 L47.5806 779.279 L47.5806 806.206 Q53.6281 805.824 56.8109 802.577 Q59.9619 799.299 59.9619 793.474 Q59.9619 790.1 59.1344 786.949 Q58.3069 783.766 56.6518 780.647 L62.1899 780.647 Q63.5267 783.798 64.227 787.108 Q64.9272 790.419 64.9272 793.824 Q64.9272 802.354 59.9619 807.351 Q54.9967 812.317 46.5303 812.317 Q37.7774 812.317 32.6531 807.606 Q27.4968 802.864 27.4968 794.843 Q27.4968 787.649 32.1438 783.48 Q36.7589 779.279 44.7161 779.279 M42.9973 785.135 Q38.1912 785.199 35.3266 787.84 Q32.4621 790.45 32.4621 794.779 Q32.4621 799.681 35.2312 802.641 Q38.0002 805.569 43.0292 806.015 L42.9973 785.135 Z" fill="#000000" fill-rule="nonzero" fill-opacity="1" /><path clip-path="url(#clip190)" d="M33.8307 749.01 Q33.2578 749.996 33.0032 751.174 Q32.7167 752.32 32.7167 753.72 Q32.7167 758.686 35.9632 761.359 Q39.1779 764.001 45.2253 764.001 L64.0042 764.001 L64.0042 769.889 L28.3562 769.889 L28.3562 764.001 L33.8944 764.001 Q30.6479 762.155 29.0883 759.195 Q27.4968 756.235 27.4968 752.002 Q27.4968 751.397 27.5923 750.665 Q27.656 749.933 27.8151 749.041 L33.8307 749.01 Z" fill="#000000" fill-rule="nonzero" fill-opacity="1" /><path clip-path="url(#clip190)" d="M33.8307 723.356 Q33.2578 724.343 33.0032 725.52 Q32.7167 726.666 32.7167 728.066 Q32.7167 733.032 35.9632 735.705 Q39.1779 738.347 45.2253 738.347 L64.0042 738.347 L64.0042 744.235 L28.3562 744.235 L28.3562 738.347 L33.8944 738.347 Q30.6479 736.501 29.0883 733.541 Q27.4968 730.581 27.4968 726.348 Q27.4968 725.743 27.5923 725.011 Q27.656 724.279 27.8151 723.388 L33.8307 723.356 Z" fill="#000000" fill-rule="nonzero" fill-opacity="1" /><path clip-path="url(#clip190)" d="M32.4621 704.832 Q32.4621 709.542 36.1542 712.28 Q39.8145 715.017 46.212 715.017 Q52.6095 715.017 56.3017 712.311 Q59.9619 709.574 59.9619 704.832 Q59.9619 700.153 56.2698 697.416 Q52.5777 694.678 46.212 694.678 Q39.8781 694.678 36.186 697.416 Q32.4621 700.153 32.4621 704.832 M27.4968 704.832 Q27.4968 697.193 32.4621 692.832 Q37.4273 688.472 46.212 688.472 Q54.9649 688.472 59.9619 692.832 Q64.9272 697.193 64.9272 704.832 Q64.9272 712.502 59.9619 716.863 Q54.9649 721.191 46.212 721.191 Q37.4273 721.191 32.4621 716.863 Q27.4968 712.502 27.4968 704.832 Z" fill="#000000" fill-rule="nonzero" fill-opacity="1" /><path clip-path="url(#clip190)" d="M33.8307 658.107 Q33.2578 659.094 33.0032 660.272 Q32.7167 661.418 32.7167 662.818 Q32.7167 667.783 35.9632 670.457 Q39.1779 673.099 45.2253 673.099 L64.0042 673.099 L64.0042 678.987 L28.3562 678.987 L28.3562 673.099 L33.8944 673.099 Q30.6479 671.253 29.0883 668.292 Q27.4968 665.332 27.4968 661.099 Q27.4968 660.494 27.5923 659.762 Q27.656 659.03 27.8151 658.139 L33.8307 658.107 Z" fill="#000000" fill-rule="nonzero" fill-opacity="1" /><circle clip-path="url(#clip192)" cx="371.337" cy="1384.24" r="14.4" fill="#ff0000" fill-rule="evenodd" fill-opacity="1" stroke="none"/>
<circle clip-path="url(#clip192)" cx="433.392" cy="1081.06" r="14.4" fill="#ff0000" fill-rule="evenodd" fill-opacity="1" stroke="none"/>
<circle clip-path="url(#clip192)" cx="557.502" cy="824.528" r="14.4" fill="#ff0000" fill-rule="evenodd" fill-opacity="1" stroke="none"/>
<circle clip-path="url(#clip192)" cx="805.723" cy="577.273" r="14.4" fill="#ff0000" fill-rule="evenodd" fill-opacity="1" stroke="none"/>
<circle clip-path="url(#clip192)" cx="1302.16" cy="331.568" r="14.4" fill="#ff0000" fill-rule="evenodd" fill-opacity="1" stroke="none"/>
<circle clip-path="url(#clip192)" cx="2295.04" cy="86.1857" r="14.4" fill="#ff0000" fill-rule="evenodd" fill-opacity="1" stroke="none"/>
<circle clip-path="url(#clip192)" cx="1050.06" cy="434.959" r="14.4" fill="#ff0000" fill-rule="evenodd" fill-opacity="1" stroke="none"/>
<circle clip-path="url(#clip192)" cx="1802.48" cy="187.003" r="14.4" fill="#ff0000" fill-rule="evenodd" fill-opacity="1" stroke="none"/>
</svg>
