<?xml version="1.0" encoding="utf-8"?>
<svg xmlns="http://www.w3.org/2000/svg" xmlns:xlink="http://www.w3.org/1999/xlink" width="600" height="400" viewBox="0 0 2400 1600">
<defs>
  <clipPath id="clip940">
    <rect x="0" y="0" width="2400" height="1600"/>
  </clipPath>
</defs>
<path clip-path="url(#clip940)" d="M0 1600 L2400 1600 L2400 0 L0 0  Z" fill="#ffffff" fill-rule="evenodd" fill-opacity="1"/>
<defs>
  <clipPath id="clip941">
    <rect x="480" y="0" width="1681" height="1600"/>
  </clipPath>
</defs>
<path clip-path="url(#clip940)" d="M338.292 1423.18 L2352.76 1423.18 L2352.76 47.2441 L338.292 47.2441  Z" fill="#ffffff" fill-rule="evenodd" fill-opacity="1"/>
<defs>
  <clipPath id="clip942">
    <rect x="338" y="47" width="2015" height="1377"/>
  </clipPath>
</defs>
<polyline clip-path="url(#clip942)" style="stroke:#000000; stroke-linecap:round; stroke-linejoin:round; stroke-width:2; stroke-opacity:0.1; fill:none" points="338.292,1423.18 338.292,47.2441 "/>
<polyline clip-path="url(#clip942)" style="stroke:#000000; stroke-linecap:round; stroke-linejoin:round; stroke-width:2; stroke-opacity:0.1; fill:none" points="1009.78,1423.18 1009.78,47.2441 "/>
<polyline clip-path="url(#clip942)" style="stroke:#000000; stroke-linecap:round; stroke-linejoin:round; stroke-width:2; stroke-opacity:0.1; fill:none" points="1681.27,1423.18 1681.27,47.2441 "/>
<polyline clip-path="url(#clip942)" style="stroke:#000000; stroke-linecap:round; stroke-linejoin:round; stroke-width:2; stroke-opacity:0.1; fill:none" points="2352.76,1423.18 2352.76,47.2441 "/>
<polyline clip-path="url(#clip942)" style="stroke:#000000; stroke-linecap:round; stroke-linejoin:round; stroke-width:2; stroke-opacity:0.1; fill:none" points="338.292,1391.67 2352.76,1391.67 "/>
<polyline clip-path="url(#clip942)" style="stroke:#000000; stroke-linecap:round; stroke-linejoin:round; stroke-width:2; stroke-opacity:0.1; fill:none" points="338.292,1110.21 2352.76,1110.21 "/>
<polyline clip-path="url(#clip942)" style="stroke:#000000; stroke-linecap:round; stroke-linejoin:round; stroke-width:2; stroke-opacity:0.1; fill:none" points="338.292,828.751 2352.76,828.751 "/>
<polyline clip-path="url(#clip942)" style="stroke:#000000; stroke-linecap:round; stroke-linejoin:round; stroke-width:2; stroke-opacity:0.1; fill:none" points="338.292,547.29 2352.76,547.29 "/>
<polyline clip-path="url(#clip942)" style="stroke:#000000; stroke-linecap:round; stroke-linejoin:round; stroke-width:2; stroke-opacity:0.1; fill:none" points="338.292,265.83 2352.76,265.83 "/>
<polyline clip-path="url(#clip940)" style="stroke:#000000; stroke-linecap:round; stroke-linejoin:round; stroke-width:4; stroke-opacity:1; fill:none" points="338.292,1423.18 2352.76,1423.18 "/>
<polyline clip-path="url(#clip940)" style="stroke:#000000; stroke-linecap:round; stroke-linejoin:round; stroke-width:4; stroke-opacity:1; fill:none" points="338.292,1423.18 338.292,1404.28 "/>
<polyline clip-path="url(#clip940)" style="stroke:#000000; stroke-linecap:round; stroke-linejoin:round; stroke-width:4; stroke-opacity:1; fill:none" points="1009.78,1423.18 1009.78,1404.28 "/>
<polyline clip-path="url(#clip940)" style="stroke:#000000; stroke-linecap:round; stroke-linejoin:round; stroke-width:4; stroke-opacity:1; fill:none" points="1681.27,1423.18 1681.27,1404.28 "/>
<polyline clip-path="url(#clip940)" style="stroke:#000000; stroke-linecap:round; stroke-linejoin:round; stroke-width:4; stroke-opacity:1; fill:none" points="2352.76,1423.18 2352.76,1404.28 "/>
<path clip-path="url(#clip940)" d="M308.049 1468.75 L337.724 1468.75 L337.724 1472.69 L308.049 1472.69 L308.049 1468.75 Z" fill="#000000" fill-rule="nonzero" fill-opacity="1" /><path clip-path="url(#clip940)" d="M348.627 1481.64 L356.266 1481.64 L356.266 1455.28 L347.956 1456.95 L347.956 1452.69 L356.22 1451.02 L360.896 1451.02 L360.896 1481.64 L368.534 1481.64 L368.534 1485.58 L348.627 1485.58 L348.627 1481.64 Z" fill="#000000" fill-rule="nonzero" fill-opacity="1" /><path clip-path="url(#clip940)" d="M1009.78 1454.1 Q1006.17 1454.1 1004.34 1457.66 Q1002.53 1461.2 1002.53 1468.33 Q1002.53 1475.44 1004.34 1479.01 Q1006.17 1482.55 1009.78 1482.55 Q1013.41 1482.55 1015.22 1479.01 Q1017.05 1475.44 1017.05 1468.33 Q1017.05 1461.2 1015.22 1457.66 Q1013.41 1454.1 1009.78 1454.1 M1009.78 1450.39 Q1015.59 1450.39 1018.65 1455 Q1021.72 1459.58 1021.72 1468.33 Q1021.72 1477.06 1018.65 1481.67 Q1015.59 1486.25 1009.78 1486.25 Q1003.97 1486.25 1000.89 1481.67 Q997.835 1477.06 997.835 1468.33 Q997.835 1459.58 1000.89 1455 Q1003.97 1450.39 1009.78 1450.39 Z" fill="#000000" fill-rule="nonzero" fill-opacity="1" /><path clip-path="url(#clip940)" d="M1671.65 1481.64 L1679.29 1481.64 L1679.29 1455.28 L1670.98 1456.95 L1670.98 1452.69 L1679.24 1451.02 L1683.92 1451.02 L1683.92 1481.64 L1691.56 1481.64 L1691.56 1485.58 L1671.65 1485.58 L1671.65 1481.64 Z" fill="#000000" fill-rule="nonzero" fill-opacity="1" /><path clip-path="url(#clip940)" d="M2347.41 1481.64 L2363.73 1481.64 L2363.73 1485.58 L2341.78 1485.58 L2341.78 1481.64 Q2344.45 1478.89 2349.03 1474.26 Q2353.64 1469.61 2354.82 1468.27 Q2357.06 1465.74 2357.94 1464.01 Q2358.84 1462.25 2358.84 1460.56 Q2358.84 1457.8 2356.9 1456.07 Q2354.98 1454.33 2351.88 1454.33 Q2349.68 1454.33 2347.22 1455.09 Q2344.79 1455.86 2342.02 1457.41 L2342.02 1452.69 Q2344.84 1451.55 2347.29 1450.97 Q2349.75 1450.39 2351.78 1450.39 Q2357.15 1450.39 2360.35 1453.08 Q2363.54 1455.77 2363.54 1460.26 Q2363.54 1462.39 2362.73 1464.31 Q2361.95 1466.2 2359.84 1468.8 Q2359.26 1469.47 2356.16 1472.69 Q2353.06 1475.88 2347.41 1481.64 Z" fill="#000000" fill-rule="nonzero" fill-opacity="1" /><path clip-path="url(#clip940)" d="M1350.73 1551.46 L1349.33 1544.11 Q1347.89 1536.57 1342.23 1536.57 Q1337.96 1536.57 1336.02 1540.07 Q1333.57 1544.46 1333.57 1550.25 Q1333.57 1557.25 1335.96 1560.6 Q1338.38 1564 1342.23 1564 Q1346.49 1564 1348.79 1557.22 L1350.73 1551.46 M1354.01 1541.72 L1357.16 1532.4 L1362.38 1532.4 L1355.85 1551.72 L1357.13 1558.69 Q1357.41 1560.25 1358.53 1561.55 Q1359.83 1563.08 1360.85 1563.08 L1363.65 1563.08 L1363.65 1568.04 L1360.15 1568.04 Q1357.16 1568.04 1354.48 1565.37 Q1353.18 1564.03 1352.64 1561.23 Q1351.17 1564.77 1348.18 1567.53 Q1346.78 1568.84 1342.23 1568.84 Q1334.75 1568.84 1331.12 1564 Q1327.4 1559 1327.4 1550.25 Q1327.4 1540.89 1331.44 1536.5 Q1335.93 1531.6 1342.23 1531.6 Q1352.13 1531.6 1354.01 1541.72 Z" fill="#000000" fill-rule="nonzero" fill-opacity="1" /><polyline clip-path="url(#clip940)" style="stroke:#000000; stroke-linecap:round; stroke-linejoin:round; stroke-width:4; stroke-opacity:1; fill:none" points="338.292,1423.18 338.292,47.2441 "/>
<polyline clip-path="url(#clip940)" style="stroke:#000000; stroke-linecap:round; stroke-linejoin:round; stroke-width:4; stroke-opacity:1; fill:none" points="338.292,1391.67 357.189,1391.67 "/>
<polyline clip-path="url(#clip940)" style="stroke:#000000; stroke-linecap:round; stroke-linejoin:round; stroke-width:4; stroke-opacity:1; fill:none" points="338.292,1110.21 357.189,1110.21 "/>
<polyline clip-path="url(#clip940)" style="stroke:#000000; stroke-linecap:round; stroke-linejoin:round; stroke-width:4; stroke-opacity:1; fill:none" points="338.292,828.751 357.189,828.751 "/>
<polyline clip-path="url(#clip940)" style="stroke:#000000; stroke-linecap:round; stroke-linejoin:round; stroke-width:4; stroke-opacity:1; fill:none" points="338.292,547.29 357.189,547.29 "/>
<polyline clip-path="url(#clip940)" style="stroke:#000000; stroke-linecap:round; stroke-linejoin:round; stroke-width:4; stroke-opacity:1; fill:none" points="338.292,265.83 357.189,265.83 "/>
<path clip-path="url(#clip940)" d="M290.347 1377.47 Q286.736 1377.47 284.907 1381.04 Q283.102 1384.58 283.102 1391.71 Q283.102 1398.81 284.907 1402.38 Q286.736 1405.92 290.347 1405.92 Q293.981 1405.92 295.787 1402.38 Q297.616 1398.81 297.616 1391.71 Q297.616 1384.58 295.787 1381.04 Q293.981 1377.47 290.347 1377.47 M290.347 1373.77 Q296.157 1373.77 299.213 1378.37 Q302.292 1382.96 302.292 1391.71 Q302.292 1400.43 299.213 1405.04 Q296.157 1409.62 290.347 1409.62 Q284.537 1409.62 281.458 1405.04 Q278.403 1400.43 278.403 1391.71 Q278.403 1382.96 281.458 1378.37 Q284.537 1373.77 290.347 1373.77 Z" fill="#000000" fill-rule="nonzero" fill-opacity="1" /><path clip-path="url(#clip940)" d="M117.825 1130 L125.464 1130 L125.464 1103.64 L117.154 1105.3 L117.154 1101.05 L125.418 1099.38 L130.093 1099.38 L130.093 1130 L137.732 1130 L137.732 1133.94 L117.825 1133.94 L117.825 1130 Z" fill="#000000" fill-rule="nonzero" fill-opacity="1" /><path clip-path="url(#clip940)" d="M147.177 1128.06 L152.061 1128.06 L152.061 1133.94 L147.177 1133.94 L147.177 1128.06 Z" fill="#000000" fill-rule="nonzero" fill-opacity="1" /><path clip-path="url(#clip940)" d="M172.246 1102.46 Q168.635 1102.46 166.806 1106.02 Q165.001 1109.56 165.001 1116.69 Q165.001 1123.8 166.806 1127.36 Q168.635 1130.91 172.246 1130.91 Q175.88 1130.91 177.686 1127.36 Q179.514 1123.8 179.514 1116.69 Q179.514 1109.56 177.686 1106.02 Q175.88 1102.46 172.246 1102.46 M172.246 1098.75 Q178.056 1098.75 181.112 1103.36 Q184.19 1107.94 184.19 1116.69 Q184.19 1125.42 181.112 1130.03 Q178.056 1134.61 172.246 1134.61 Q166.436 1134.61 163.357 1130.03 Q160.302 1125.42 160.302 1116.69 Q160.302 1107.94 163.357 1103.36 Q166.436 1098.75 172.246 1098.75 Z" fill="#000000" fill-rule="nonzero" fill-opacity="1" /><path clip-path="url(#clip940)" d="M220.579 1108.48 L210 1119.1 L220.579 1129.68 L217.824 1132.48 L207.199 1121.86 L196.575 1132.48 L193.843 1129.68 L204.399 1119.1 L193.843 1108.48 L196.575 1105.68 L207.199 1116.3 L217.824 1105.68 L220.579 1108.48 Z" fill="#000000" fill-rule="nonzero" fill-opacity="1" /><path clip-path="url(#clip940)" d="M232.94 1130 L240.579 1130 L240.579 1103.64 L232.269 1105.3 L232.269 1101.05 L240.533 1099.38 L245.209 1099.38 L245.209 1130 L252.847 1130 L252.847 1133.94 L232.94 1133.94 L232.94 1130 Z" fill="#000000" fill-rule="nonzero" fill-opacity="1" /><path clip-path="url(#clip940)" d="M272.292 1102.46 Q268.681 1102.46 266.852 1106.02 Q265.046 1109.56 265.046 1116.69 Q265.046 1123.8 266.852 1127.36 Q268.681 1130.91 272.292 1130.91 Q275.926 1130.91 277.732 1127.36 Q279.56 1123.8 279.56 1116.69 Q279.56 1109.56 277.732 1106.02 Q275.926 1102.46 272.292 1102.46 M272.292 1098.75 Q278.102 1098.75 281.157 1103.36 Q284.236 1107.94 284.236 1116.69 Q284.236 1125.42 281.157 1130.03 Q278.102 1134.61 272.292 1134.61 Q266.482 1134.61 263.403 1130.03 Q260.347 1125.42 260.347 1116.69 Q260.347 1107.94 263.403 1103.36 Q266.482 1098.75 272.292 1098.75 Z" fill="#000000" fill-rule="nonzero" fill-opacity="1" /><path clip-path="url(#clip940)" d="M284.236 1078.45 L302.292 1078.45 L302.292 1080.07 L292.098 1106.53 L288.129 1106.53 L297.721 1081.65 L284.236 1081.65 L284.236 1078.45 Z" fill="#000000" fill-rule="nonzero" fill-opacity="1" /><path clip-path="url(#clip940)" d="M121.043 848.543 L137.362 848.543 L137.362 852.478 L115.418 852.478 L115.418 848.543 Q118.08 845.789 122.663 841.159 Q127.269 836.506 128.45 835.164 Q130.695 832.641 131.575 830.904 Q132.478 829.145 132.478 827.455 Q132.478 824.701 130.533 822.965 Q128.612 821.229 125.51 821.229 Q123.311 821.229 120.857 821.993 Q118.427 822.756 115.649 824.307 L115.649 819.585 Q118.473 818.451 120.927 817.872 Q123.38 817.293 125.418 817.293 Q130.788 817.293 133.982 819.979 Q137.177 822.664 137.177 827.155 Q137.177 829.284 136.367 831.205 Q135.579 833.104 133.473 835.696 Q132.894 836.367 129.792 839.585 Q126.691 842.779 121.043 848.543 Z" fill="#000000" fill-rule="nonzero" fill-opacity="1" /><path clip-path="url(#clip940)" d="M147.177 846.599 L152.061 846.599 L152.061 852.478 L147.177 852.478 L147.177 846.599 Z" fill="#000000" fill-rule="nonzero" fill-opacity="1" /><path clip-path="url(#clip940)" d="M172.246 820.997 Q168.635 820.997 166.806 824.562 Q165.001 828.104 165.001 835.233 Q165.001 842.34 166.806 845.904 Q168.635 849.446 172.246 849.446 Q175.88 849.446 177.686 845.904 Q179.514 842.34 179.514 835.233 Q179.514 828.104 177.686 824.562 Q175.88 820.997 172.246 820.997 M172.246 817.293 Q178.056 817.293 181.112 821.9 Q184.19 826.483 184.19 835.233 Q184.19 843.96 181.112 848.566 Q178.056 853.15 172.246 853.15 Q166.436 853.15 163.357 848.566 Q160.302 843.96 160.302 835.233 Q160.302 826.483 163.357 821.9 Q166.436 817.293 172.246 817.293 Z" fill="#000000" fill-rule="nonzero" fill-opacity="1" /><path clip-path="url(#clip940)" d="M220.579 827.016 L210 837.641 L220.579 848.219 L217.824 851.02 L207.199 840.395 L196.575 851.02 L193.843 848.219 L204.399 837.641 L193.843 827.016 L196.575 824.215 L207.199 834.84 L217.824 824.215 L220.579 827.016 Z" fill="#000000" fill-rule="nonzero" fill-opacity="1" /><path clip-path="url(#clip940)" d="M232.94 848.543 L240.579 848.543 L240.579 822.178 L232.269 823.844 L232.269 819.585 L240.533 817.918 L245.209 817.918 L245.209 848.543 L252.847 848.543 L252.847 852.478 L232.94 852.478 L232.94 848.543 Z" fill="#000000" fill-rule="nonzero" fill-opacity="1" /><path clip-path="url(#clip940)" d="M272.292 820.997 Q268.681 820.997 266.852 824.562 Q265.046 828.104 265.046 835.233 Q265.046 842.34 266.852 845.904 Q268.681 849.446 272.292 849.446 Q275.926 849.446 277.732 845.904 Q279.56 842.34 279.56 835.233 Q279.56 828.104 277.732 824.562 Q275.926 820.997 272.292 820.997 M272.292 817.293 Q278.102 817.293 281.157 821.9 Q284.236 826.483 284.236 835.233 Q284.236 843.96 281.157 848.566 Q278.102 853.15 272.292 853.15 Q266.482 853.15 263.403 848.566 Q260.347 843.96 260.347 835.233 Q260.347 826.483 263.403 821.9 Q266.482 817.293 272.292 817.293 Z" fill="#000000" fill-rule="nonzero" fill-opacity="1" /><path clip-path="url(#clip940)" d="M284.236 796.988 L302.292 796.988 L302.292 798.606 L292.098 825.068 L288.129 825.068 L297.721 800.185 L284.236 800.185 L284.236 796.988 Z" fill="#000000" fill-rule="nonzero" fill-opacity="1" /><path clip-path="url(#clip940)" d="M131.181 552.384 Q134.538 553.101 136.413 555.37 Q138.311 557.638 138.311 560.972 Q138.311 566.087 134.792 568.888 Q131.274 571.689 124.793 571.689 Q122.617 571.689 120.302 571.249 Q118.01 570.833 115.556 569.976 L115.556 565.462 Q117.501 566.597 119.816 567.175 Q122.13 567.754 124.654 567.754 Q129.052 567.754 131.343 566.018 Q133.658 564.282 133.658 560.972 Q133.658 557.916 131.505 556.203 Q129.376 554.467 125.556 554.467 L121.529 554.467 L121.529 550.625 L125.742 550.625 Q129.191 550.625 131.019 549.259 Q132.848 547.87 132.848 545.277 Q132.848 542.615 130.95 541.203 Q129.075 539.768 125.556 539.768 Q123.635 539.768 121.436 540.185 Q119.237 540.601 116.598 541.481 L116.598 537.314 Q119.26 536.574 121.575 536.203 Q123.913 535.833 125.973 535.833 Q131.297 535.833 134.399 538.263 Q137.501 540.671 137.501 544.791 Q137.501 547.662 135.857 549.652 Q134.214 551.62 131.181 552.384 Z" fill="#000000" fill-rule="nonzero" fill-opacity="1" /><path clip-path="url(#clip940)" d="M147.177 565.138 L152.061 565.138 L152.061 571.018 L147.177 571.018 L147.177 565.138 Z" fill="#000000" fill-rule="nonzero" fill-opacity="1" /><path clip-path="url(#clip940)" d="M172.246 539.537 Q168.635 539.537 166.806 543.101 Q165.001 546.643 165.001 553.773 Q165.001 560.879 166.806 564.444 Q168.635 567.986 172.246 567.986 Q175.88 567.986 177.686 564.444 Q179.514 560.879 179.514 553.773 Q179.514 546.643 177.686 543.101 Q175.88 539.537 172.246 539.537 M172.246 535.833 Q178.056 535.833 181.112 540.439 Q184.19 545.023 184.19 553.773 Q184.19 562.499 181.112 567.106 Q178.056 571.689 172.246 571.689 Q166.436 571.689 163.357 567.106 Q160.302 562.499 160.302 553.773 Q160.302 545.023 163.357 540.439 Q166.436 535.833 172.246 535.833 Z" fill="#000000" fill-rule="nonzero" fill-opacity="1" /><path clip-path="url(#clip940)" d="M220.579 545.555 L210 556.18 L220.579 566.759 L217.824 569.56 L207.199 558.935 L196.575 569.56 L193.843 566.759 L204.399 556.18 L193.843 545.555 L196.575 542.754 L207.199 553.379 L217.824 542.754 L220.579 545.555 Z" fill="#000000" fill-rule="nonzero" fill-opacity="1" /><path clip-path="url(#clip940)" d="M232.94 567.083 L240.579 567.083 L240.579 540.717 L232.269 542.384 L232.269 538.125 L240.533 536.458 L245.209 536.458 L245.209 567.083 L252.847 567.083 L252.847 571.018 L232.94 571.018 L232.94 567.083 Z" fill="#000000" fill-rule="nonzero" fill-opacity="1" /><path clip-path="url(#clip940)" d="M272.292 539.537 Q268.681 539.537 266.852 543.101 Q265.046 546.643 265.046 553.773 Q265.046 560.879 266.852 564.444 Q268.681 567.986 272.292 567.986 Q275.926 567.986 277.732 564.444 Q279.56 560.879 279.56 553.773 Q279.56 546.643 277.732 543.101 Q275.926 539.537 272.292 539.537 M272.292 535.833 Q278.102 535.833 281.157 540.439 Q284.236 545.023 284.236 553.773 Q284.236 562.499 281.157 567.106 Q278.102 571.689 272.292 571.689 Q266.482 571.689 263.403 567.106 Q260.347 562.499 260.347 553.773 Q260.347 545.023 263.403 540.439 Q266.482 535.833 272.292 535.833 Z" fill="#000000" fill-rule="nonzero" fill-opacity="1" /><path clip-path="url(#clip940)" d="M284.236 515.528 L302.292 515.528 L302.292 517.145 L292.098 543.608 L288.129 543.608 L297.721 518.725 L284.236 518.725 L284.236 515.528 Z" fill="#000000" fill-rule="nonzero" fill-opacity="1" /><path clip-path="url(#clip940)" d="M129.862 259.071 L118.056 277.52 L129.862 277.52 L129.862 259.071 M128.635 254.997 L134.515 254.997 L134.515 277.52 L139.445 277.52 L139.445 281.409 L134.515 281.409 L134.515 289.557 L129.862 289.557 L129.862 281.409 L114.26 281.409 L114.26 276.895 L128.635 254.997 Z" fill="#000000" fill-rule="nonzero" fill-opacity="1" /><path clip-path="url(#clip940)" d="M147.177 283.678 L152.061 283.678 L152.061 289.557 L147.177 289.557 L147.177 283.678 Z" fill="#000000" fill-rule="nonzero" fill-opacity="1" /><path clip-path="url(#clip940)" d="M172.246 258.076 Q168.635 258.076 166.806 261.641 Q165.001 265.183 165.001 272.312 Q165.001 279.419 166.806 282.983 Q168.635 286.525 172.246 286.525 Q175.88 286.525 177.686 282.983 Q179.514 279.419 179.514 272.312 Q179.514 265.183 177.686 261.641 Q175.88 258.076 172.246 258.076 M172.246 254.372 Q178.056 254.372 181.112 258.979 Q184.19 263.562 184.19 272.312 Q184.19 281.039 181.112 285.645 Q178.056 290.229 172.246 290.229 Q166.436 290.229 163.357 285.645 Q160.302 281.039 160.302 272.312 Q160.302 263.562 163.357 258.979 Q166.436 254.372 172.246 254.372 Z" fill="#000000" fill-rule="nonzero" fill-opacity="1" /><path clip-path="url(#clip940)" d="M220.579 264.095 L210 274.72 L220.579 285.298 L217.824 288.099 L207.199 277.474 L196.575 288.099 L193.843 285.298 L204.399 274.72 L193.843 264.095 L196.575 261.294 L207.199 271.919 L217.824 261.294 L220.579 264.095 Z" fill="#000000" fill-rule="nonzero" fill-opacity="1" /><path clip-path="url(#clip940)" d="M232.94 285.622 L240.579 285.622 L240.579 259.257 L232.269 260.923 L232.269 256.664 L240.533 254.997 L245.209 254.997 L245.209 285.622 L252.847 285.622 L252.847 289.557 L232.94 289.557 L232.94 285.622 Z" fill="#000000" fill-rule="nonzero" fill-opacity="1" /><path clip-path="url(#clip940)" d="M272.292 258.076 Q268.681 258.076 266.852 261.641 Q265.046 265.183 265.046 272.312 Q265.046 279.419 266.852 282.983 Q268.681 286.525 272.292 286.525 Q275.926 286.525 277.732 282.983 Q279.56 279.419 279.56 272.312 Q279.56 265.183 277.732 261.641 Q275.926 258.076 272.292 258.076 M272.292 254.372 Q278.102 254.372 281.157 258.979 Q284.236 263.562 284.236 272.312 Q284.236 281.039 281.157 285.645 Q278.102 290.229 272.292 290.229 Q266.482 290.229 263.403 285.645 Q260.347 281.039 260.347 272.312 Q260.347 263.562 263.403 258.979 Q266.482 254.372 272.292 254.372 Z" fill="#000000" fill-rule="nonzero" fill-opacity="1" /><path clip-path="url(#clip940)" d="M284.236 234.067 L302.292 234.067 L302.292 235.684 L292.098 262.147 L288.129 262.147 L297.721 237.264 L284.236 237.264 L284.236 234.067 Z" fill="#000000" fill-rule="nonzero" fill-opacity="1" /><path clip-path="url(#clip940)" d="M42.4881 767.168 L64.0042 767.168 L64.0042 773.024 L42.679 773.024 Q37.6183 773.024 35.1038 774.998 Q32.5894 776.971 32.5894 780.918 Q32.5894 785.66 35.6131 788.397 Q38.6368 791.135 43.8567 791.135 L64.0042 791.135 L64.0042 797.023 L14.479 797.023 L14.479 791.135 L33.8944 791.135 Q30.6797 789.034 29.0883 786.201 Q27.4968 783.337 27.4968 779.613 Q27.4968 773.47 31.3163 770.319 Q35.1038 767.168 42.4881 767.168 Z" fill="#000000" fill-rule="nonzero" fill-opacity="1" /><path clip-path="url(#clip940)" d="M14.5426 741.419 Q21.8632 745.684 29.0246 747.752 Q36.186 749.821 43.5384 749.821 Q50.8908 749.821 58.1159 747.752 Q65.3091 745.652 72.5979 741.419 L72.5979 746.511 Q65.1182 751.285 57.8931 753.673 Q50.668 756.028 43.5384 756.028 Q36.4406 756.028 29.2474 753.673 Q22.0542 751.317 14.5426 746.511 L14.5426 741.419 Z" fill="#000000" fill-rule="nonzero" fill-opacity="1" /><path clip-path="url(#clip940)" d="M47.4215 709.272 L40.0691 710.672 Q32.5257 712.104 32.5257 717.77 Q32.5257 722.035 36.0269 723.976 Q40.4192 726.427 46.212 726.427 Q53.2143 726.427 56.5563 724.04 Q59.9619 721.621 59.9619 717.77 Q59.9619 713.505 53.1825 711.213 L47.4215 709.272 M37.682 705.993 L28.3562 702.842 L28.3562 697.622 L47.6761 704.147 L54.6466 702.874 Q56.2062 702.588 57.5111 701.474 Q59.0389 700.169 59.0389 699.15 L59.0389 696.349 L64.0042 696.349 L64.0042 699.85 Q64.0042 702.842 61.3306 705.516 Q59.9938 706.821 57.1929 707.362 Q60.7258 708.826 63.4949 711.818 Q64.7999 713.218 64.7999 717.77 Q64.7999 725.25 59.9619 728.878 Q54.9649 732.602 46.212 732.602 Q36.8544 732.602 32.4621 728.56 Q27.5605 724.072 27.5605 717.77 Q27.5605 707.871 37.682 705.993 Z" fill="#000000" fill-rule="nonzero" fill-opacity="1" /><path clip-path="url(#clip940)" d="M14.5426 688.01 L14.5426 682.918 Q22.0542 678.143 29.2474 675.788 Q36.4406 673.401 43.5384 673.401 Q50.668 673.401 57.8931 675.788 Q65.1182 678.143 72.5979 682.918 L72.5979 688.01 Q65.3091 683.777 58.1159 681.708 Q50.8908 679.608 43.5384 679.608 Q36.186 679.608 29.0246 681.708 Q21.8632 683.777 14.5426 688.01 Z" fill="#000000" fill-rule="nonzero" fill-opacity="1" /><polyline clip-path="url(#clip942)" style="stroke:#009af9; stroke-linecap:round; stroke-linejoin:round; stroke-width:4; stroke-opacity:1; fill:none" points="338.292,694.588 341.57,699.902 344.849,705.196 348.128,710.47 351.407,715.723 381.724,763.321 412.042,809.163 442.359,853.248 472.676,895.577 509.115,944.128 545.554,990.141 576.363,1027.06 607.172,1062.17 640.639,1098.26 674.105,1132.2 704.959,1161.59 735.812,1189.17 768.891,1216.71 801.969,1242.16 840.293,1269.03 878.617,1293.09 912.676,1312.12 946.734,1328.93 976.6,1341.84 1006.47,1353.04 1039.03,1363.32 1071.59,1371.56 1104.34,1377.81 1137.1,1382 1173.32,1384.24 1209.53,1383.97 1243.99,1381.38 1278.45,1376.52 1314.27,1369.06 1350.1,1359.14 1380.26,1348.88 1410.42,1336.89 1447.24,1319.89 1484.07,1300.29 1517.8,1280.06 1551.53,1257.66 1582.68,1235.04 1613.83,1210.56 1645.39,1183.87 1676.95,1155.28 1712.32,1120.98 1747.68,1084.29 1779.73,1048.97 1811.78,1011.69 1848.47,966.597 1885.16,918.931 1919.14,872.502 1953.11,823.868 1986.61,773.76 2020.1,721.509 2052.62,668.726 2085.14,613.921 2118.48,555.642 2151.82,495.239 2188.34,426.622 2224.87,355.456 2251.4,302.167 2277.93,247.533 2304.46,191.554 2330.99,134.231 2336.43,122.304 2341.87,110.321 2347.31,98.2818 2352.76,86.1857 "/>
</svg>
