<?xml version="1.0" encoding="utf-8"?>
<svg xmlns="http://www.w3.org/2000/svg" xmlns:xlink="http://www.w3.org/1999/xlink" width="600" height="400" viewBox="0 0 2400 1600">
<defs>
  <clipPath id="clip240">
    <rect x="0" y="0" width="2400" height="1600"/>
  </clipPath>
</defs>
<path clip-path="url(#clip240)" d="M0 1600 L2400 1600 L2400 0 L0 0  Z" fill="#ffffff" fill-rule="evenodd" fill-opacity="1"/>
<defs>
  <clipPath id="clip241">
    <rect x="480" y="0" width="1681" height="1600"/>
  </clipPath>
</defs>
<path clip-path="url(#clip240)" d="M252.501 1423.18 L2352.76 1423.18 L2352.76 47.2441 L252.501 47.2441  Z" fill="#ffffff" fill-rule="evenodd" fill-opacity="1"/>
<defs>
  <clipPath id="clip242">
    <rect x="252" y="47" width="2101" height="1377"/>
  </clipPath>
</defs>
<polyline clip-path="url(#clip242)" style="stroke:#000000; stroke-linecap:round; stroke-linejoin:round; stroke-width:2; stroke-opacity:0.1; fill:none" points="311.942,1423.18 311.942,47.2441 "/>
<polyline clip-path="url(#clip242)" style="stroke:#000000; stroke-linecap:round; stroke-linejoin:round; stroke-width:2; stroke-opacity:0.1; fill:none" points="807.285,1423.18 807.285,47.2441 "/>
<polyline clip-path="url(#clip242)" style="stroke:#000000; stroke-linecap:round; stroke-linejoin:round; stroke-width:2; stroke-opacity:0.1; fill:none" points="1302.63,1423.18 1302.63,47.2441 "/>
<polyline clip-path="url(#clip242)" style="stroke:#000000; stroke-linecap:round; stroke-linejoin:round; stroke-width:2; stroke-opacity:0.1; fill:none" points="1797.97,1423.18 1797.97,47.2441 "/>
<polyline clip-path="url(#clip242)" style="stroke:#000000; stroke-linecap:round; stroke-linejoin:round; stroke-width:2; stroke-opacity:0.1; fill:none" points="2293.31,1423.18 2293.31,47.2441 "/>
<polyline clip-path="url(#clip240)" style="stroke:#000000; stroke-linecap:round; stroke-linejoin:round; stroke-width:4; stroke-opacity:1; fill:none" points="252.501,1423.18 2352.76,1423.18 "/>
<polyline clip-path="url(#clip240)" style="stroke:#000000; stroke-linecap:round; stroke-linejoin:round; stroke-width:4; stroke-opacity:1; fill:none" points="311.942,1423.18 311.942,1404.28 "/>
<polyline clip-path="url(#clip240)" style="stroke:#000000; stroke-linecap:round; stroke-linejoin:round; stroke-width:4; stroke-opacity:1; fill:none" points="807.285,1423.18 807.285,1404.28 "/>
<polyline clip-path="url(#clip240)" style="stroke:#000000; stroke-linecap:round; stroke-linejoin:round; stroke-width:4; stroke-opacity:1; fill:none" points="1302.63,1423.18 1302.63,1404.28 "/>
<polyline clip-path="url(#clip240)" style="stroke:#000000; stroke-linecap:round; stroke-linejoin:round; stroke-width:4; stroke-opacity:1; fill:none" points="1797.97,1423.18 1797.97,1404.28 "/>
<polyline clip-path="url(#clip240)" style="stroke:#000000; stroke-linecap:round; stroke-linejoin:round; stroke-width:4; stroke-opacity:1; fill:none" points="2293.31,1423.18 2293.31,1404.28 "/>
<path clip-path="url(#clip240)" d="M316.189 1466.95 Q319.546 1467.66 321.421 1469.93 Q323.319 1472.2 323.319 1475.53 Q323.319 1480.65 319.801 1483.45 Q316.282 1486.25 309.801 1486.25 Q307.625 1486.25 305.31 1485.81 Q303.018 1485.39 300.565 1484.54 L300.565 1480.02 Q302.509 1481.16 304.824 1481.74 Q307.139 1482.32 309.662 1482.32 Q314.06 1482.32 316.352 1480.58 Q318.666 1478.84 318.666 1475.53 Q318.666 1472.48 316.514 1470.77 Q314.384 1469.03 310.565 1469.03 L306.537 1469.03 L306.537 1465.19 L310.75 1465.19 Q314.199 1465.19 316.027 1463.82 Q317.856 1462.43 317.856 1459.84 Q317.856 1457.18 315.958 1455.77 Q314.083 1454.33 310.565 1454.33 Q308.643 1454.33 306.444 1454.75 Q304.245 1455.16 301.606 1456.04 L301.606 1451.88 Q304.268 1451.14 306.583 1450.77 Q308.921 1450.39 310.981 1450.39 Q316.305 1450.39 319.407 1452.83 Q322.509 1455.23 322.509 1459.35 Q322.509 1462.22 320.865 1464.21 Q319.222 1466.18 316.189 1466.95 Z" fill="#000000" fill-rule="nonzero" fill-opacity="1" /><path clip-path="url(#clip240)" d="M810.294 1455.09 L798.489 1473.54 L810.294 1473.54 L810.294 1455.09 M809.067 1451.02 L814.947 1451.02 L814.947 1473.54 L819.878 1473.54 L819.878 1477.43 L814.947 1477.43 L814.947 1485.58 L810.294 1485.58 L810.294 1477.43 L794.693 1477.43 L794.693 1472.92 L809.067 1451.02 Z" fill="#000000" fill-rule="nonzero" fill-opacity="1" /><path clip-path="url(#clip240)" d="M1292.91 1451.02 L1311.26 1451.02 L1311.26 1454.96 L1297.19 1454.96 L1297.19 1463.43 Q1298.21 1463.08 1299.23 1462.92 Q1300.24 1462.73 1301.26 1462.73 Q1307.05 1462.73 1310.43 1465.9 Q1313.81 1469.08 1313.81 1474.49 Q1313.81 1480.07 1310.34 1483.17 Q1306.86 1486.25 1300.54 1486.25 Q1298.37 1486.25 1296.1 1485.88 Q1293.86 1485.51 1291.45 1484.77 L1291.45 1480.07 Q1293.53 1481.2 1295.75 1481.76 Q1297.98 1482.32 1300.45 1482.32 Q1304.46 1482.32 1306.79 1480.21 Q1309.13 1478.1 1309.13 1474.49 Q1309.13 1470.88 1306.79 1468.77 Q1304.46 1466.67 1300.45 1466.67 Q1298.58 1466.67 1296.7 1467.08 Q1294.85 1467.5 1292.91 1468.38 L1292.91 1451.02 Z" fill="#000000" fill-rule="nonzero" fill-opacity="1" /><path clip-path="url(#clip240)" d="M1798.38 1466.44 Q1795.23 1466.44 1793.38 1468.59 Q1791.55 1470.74 1791.55 1474.49 Q1791.55 1478.22 1793.38 1480.39 Q1795.23 1482.55 1798.38 1482.55 Q1801.52 1482.55 1803.35 1480.39 Q1805.21 1478.22 1805.21 1474.49 Q1805.21 1470.74 1803.35 1468.59 Q1801.52 1466.44 1798.38 1466.44 M1807.66 1451.78 L1807.66 1456.04 Q1805.9 1455.21 1804.09 1454.77 Q1802.31 1454.33 1800.55 1454.33 Q1795.92 1454.33 1793.47 1457.45 Q1791.04 1460.58 1790.69 1466.9 Q1792.06 1464.89 1794.12 1463.82 Q1796.18 1462.73 1798.65 1462.73 Q1803.86 1462.73 1806.87 1465.9 Q1809.9 1469.05 1809.9 1474.49 Q1809.9 1479.82 1806.76 1483.03 Q1803.61 1486.25 1798.38 1486.25 Q1792.38 1486.25 1789.21 1481.67 Q1786.04 1477.06 1786.04 1468.33 Q1786.04 1460.14 1789.93 1455.28 Q1793.82 1450.39 1800.37 1450.39 Q1802.13 1450.39 1803.91 1450.74 Q1805.71 1451.09 1807.66 1451.78 Z" fill="#000000" fill-rule="nonzero" fill-opacity="1" /><path clip-path="url(#clip240)" d="M2282.2 1451.02 L2304.43 1451.02 L2304.43 1453.01 L2291.88 1485.58 L2287 1485.58 L2298.8 1454.96 L2282.2 1454.96 L2282.2 1451.02 Z" fill="#000000" fill-rule="nonzero" fill-opacity="1" /><path clip-path="url(#clip240)" d="M1304.59 1539.24 Q1306.78 1535.29 1309.84 1533.41 Q1312.89 1531.54 1317.03 1531.54 Q1322.6 1531.54 1325.62 1535.45 Q1328.65 1539.33 1328.65 1546.53 L1328.65 1568.04 L1322.76 1568.04 L1322.76 1546.72 Q1322.76 1541.59 1320.95 1539.11 Q1319.13 1536.63 1315.41 1536.63 Q1310.86 1536.63 1308.21 1539.65 Q1305.57 1542.68 1305.57 1547.9 L1305.57 1568.04 L1299.68 1568.04 L1299.68 1546.72 Q1299.68 1541.56 1297.87 1539.11 Q1296.06 1536.63 1292.27 1536.63 Q1287.78 1536.63 1285.14 1539.68 Q1282.5 1542.71 1282.5 1547.9 L1282.5 1568.04 L1276.61 1568.04 L1276.61 1532.4 L1282.5 1532.4 L1282.5 1537.93 Q1284.5 1534.66 1287.3 1533.1 Q1290.1 1531.54 1293.95 1531.54 Q1297.84 1531.54 1300.54 1533.51 Q1303.28 1535.48 1304.59 1539.24 Z" fill="#000000" fill-rule="nonzero" fill-opacity="1" /><polyline clip-path="url(#clip242)" style="stroke:#000000; stroke-linecap:round; stroke-linejoin:round; stroke-width:2; stroke-opacity:0.1; fill:none" points="252.501,1009.13 2352.76,1009.13 "/>
<polyline clip-path="url(#clip242)" style="stroke:#000000; stroke-linecap:round; stroke-linejoin:round; stroke-width:2; stroke-opacity:0.1; fill:none" points="252.501,504.956 2352.76,504.956 "/>
<polyline clip-path="url(#clip240)" style="stroke:#000000; stroke-linecap:round; stroke-linejoin:round; stroke-width:4; stroke-opacity:1; fill:none" points="252.501,1423.18 252.501,47.2441 "/>
<polyline clip-path="url(#clip240)" style="stroke:#000000; stroke-linecap:round; stroke-linejoin:round; stroke-width:4; stroke-opacity:1; fill:none" points="252.501,1009.13 271.398,1009.13 "/>
<polyline clip-path="url(#clip240)" style="stroke:#000000; stroke-linecap:round; stroke-linejoin:round; stroke-width:4; stroke-opacity:1; fill:none" points="252.501,504.956 271.398,504.956 "/>
<path clip-path="url(#clip240)" d="M115.214 1028.92 L122.852 1028.92 L122.852 1002.56 L114.542 1004.22 L114.542 999.963 L122.806 998.297 L127.482 998.297 L127.482 1028.92 L135.121 1028.92 L135.121 1032.86 L115.214 1032.86 L115.214 1028.92 Z" fill="#000000" fill-rule="nonzero" fill-opacity="1" /><path clip-path="url(#clip240)" d="M154.565 1001.38 Q150.954 1001.38 149.125 1004.94 Q147.32 1008.48 147.32 1015.61 Q147.32 1022.72 149.125 1026.28 Q150.954 1029.82 154.565 1029.82 Q158.199 1029.82 160.005 1026.28 Q161.834 1022.72 161.834 1015.61 Q161.834 1008.48 160.005 1004.94 Q158.199 1001.38 154.565 1001.38 M154.565 997.672 Q160.375 997.672 163.431 1002.28 Q166.51 1006.86 166.51 1015.61 Q166.51 1024.34 163.431 1028.94 Q160.375 1033.53 154.565 1033.53 Q148.755 1033.53 145.676 1028.94 Q142.621 1024.34 142.621 1015.61 Q142.621 1006.86 145.676 1002.28 Q148.755 997.672 154.565 997.672 Z" fill="#000000" fill-rule="nonzero" fill-opacity="1" /><path clip-path="url(#clip240)" d="M166.51 991.773 L190.621 991.773 L190.621 994.97 L166.51 994.97 L166.51 991.773 Z" fill="#000000" fill-rule="nonzero" fill-opacity="1" /><path clip-path="url(#clip240)" d="M198.934 1004.86 L198.934 1001.4 Q200.364 1002.08 201.831 1002.44 Q203.298 1002.79 204.708 1002.79 Q208.47 1002.79 210.445 1000.27 Q212.438 997.735 212.72 992.582 Q211.629 994.199 209.956 995.064 Q208.282 995.93 206.25 995.93 Q202.037 995.93 199.574 993.39 Q197.129 990.833 197.129 986.413 Q197.129 982.087 199.686 979.473 Q202.244 976.858 206.495 976.858 Q211.366 976.858 213.924 980.601 Q216.501 984.325 216.501 991.434 Q216.501 998.074 213.341 1002.04 Q210.2 1005.99 204.877 1005.99 Q203.448 1005.99 201.981 1005.71 Q200.514 1005.43 198.934 1004.86 M206.495 992.958 Q209.053 992.958 210.539 991.209 Q212.043 989.46 212.043 986.413 Q212.043 983.385 210.539 981.636 Q209.053 979.868 206.495 979.868 Q203.937 979.868 202.432 981.636 Q200.947 983.385 200.947 986.413 Q200.947 989.46 202.432 991.209 Q203.937 992.958 206.495 992.958 Z" fill="#000000" fill-rule="nonzero" fill-opacity="1" /><path clip-path="url(#clip240)" d="M114.931 524.748 L122.57 524.748 L122.57 498.383 L114.26 500.05 L114.26 495.79 L122.524 494.124 L127.2 494.124 L127.2 524.748 L134.839 524.748 L134.839 528.684 L114.931 528.684 L114.931 524.748 Z" fill="#000000" fill-rule="nonzero" fill-opacity="1" /><path clip-path="url(#clip240)" d="M154.283 497.202 Q150.672 497.202 148.843 500.767 Q147.038 504.309 147.038 511.438 Q147.038 518.545 148.843 522.11 Q150.672 525.651 154.283 525.651 Q157.917 525.651 159.723 522.11 Q161.552 518.545 161.552 511.438 Q161.552 504.309 159.723 500.767 Q157.917 497.202 154.283 497.202 M154.283 493.499 Q160.093 493.499 163.149 498.105 Q166.227 502.688 166.227 511.438 Q166.227 520.165 163.149 524.772 Q160.093 529.355 154.283 529.355 Q148.473 529.355 145.394 524.772 Q142.339 520.165 142.339 511.438 Q142.339 502.688 145.394 498.105 Q148.473 493.499 154.283 493.499 Z" fill="#000000" fill-rule="nonzero" fill-opacity="1" /><path clip-path="url(#clip240)" d="M166.227 487.6 L190.339 487.6 L190.339 490.797 L166.227 490.797 L166.227 487.6 Z" fill="#000000" fill-rule="nonzero" fill-opacity="1" /><path clip-path="url(#clip240)" d="M207.134 485.719 Q204.577 485.719 203.072 487.468 Q201.586 489.217 201.586 492.264 Q201.586 495.292 203.072 497.06 Q204.577 498.809 207.134 498.809 Q209.692 498.809 211.178 497.06 Q212.683 495.292 212.683 492.264 Q212.683 489.217 211.178 487.468 Q209.692 485.719 207.134 485.719 M214.676 473.814 L214.676 477.275 Q213.247 476.597 211.78 476.24 Q210.332 475.883 208.902 475.883 Q205.141 475.883 203.147 478.422 Q201.172 480.961 200.89 486.095 Q202 484.459 203.674 483.594 Q205.348 482.71 207.36 482.71 Q211.592 482.71 214.037 485.287 Q216.501 487.845 216.501 492.264 Q216.501 496.59 213.943 499.204 Q211.385 501.819 207.134 501.819 Q202.263 501.819 199.686 498.095 Q197.11 494.352 197.11 487.261 Q197.11 480.604 200.27 476.654 Q203.429 472.685 208.752 472.685 Q210.181 472.685 211.629 472.968 Q213.096 473.25 214.676 473.814 Z" fill="#000000" fill-rule="nonzero" fill-opacity="1" /><path clip-path="url(#clip240)" d="M44.7161 779.279 L47.5806 779.279 L47.5806 806.206 Q53.6281 805.824 56.8109 802.577 Q59.9619 799.299 59.9619 793.474 Q59.9619 790.1 59.1344 786.949 Q58.3069 783.766 56.6518 780.647 L62.1899 780.647 Q63.5267 783.798 64.227 787.108 Q64.9272 790.419 64.9272 793.824 Q64.9272 802.354 59.9619 807.351 Q54.9967 812.317 46.5303 812.317 Q37.7774 812.317 32.6531 807.606 Q27.4968 802.864 27.4968 794.843 Q27.4968 787.649 32.1438 783.48 Q36.7589 779.279 44.7161 779.279 M42.9973 785.135 Q38.1912 785.199 35.3266 787.84 Q32.4621 790.45 32.4621 794.779 Q32.4621 799.681 35.2312 802.641 Q38.0002 805.569 43.0292 806.015 L42.9973 785.135 Z" fill="#000000" fill-rule="nonzero" fill-opacity="1" /><path clip-path="url(#clip240)" d="M33.8307 749.01 Q33.2578 749.996 33.0032 751.174 Q32.7167 752.32 32.7167 753.72 Q32.7167 758.686 35.9632 761.359 Q39.1779 764.001 45.2253 764.001 L64.0042 764.001 L64.0042 769.889 L28.3562 769.889 L28.3562 764.001 L33.8944 764.001 Q30.6479 762.155 29.0883 759.195 Q27.4968 756.235 27.4968 752.002 Q27.4968 751.397 27.5923 750.665 Q27.656 749.933 27.8151 749.041 L33.8307 749.01 Z" fill="#000000" fill-rule="nonzero" fill-opacity="1" /><path clip-path="url(#clip240)" d="M33.8307 723.356 Q33.2578 724.343 33.0032 725.52 Q32.7167 726.666 32.7167 728.066 Q32.7167 733.032 35.9632 735.705 Q39.1779 738.347 45.2253 738.347 L64.0042 738.347 L64.0042 744.235 L28.3562 744.235 L28.3562 738.347 L33.8944 738.347 Q30.6479 736.501 29.0883 733.541 Q27.4968 730.581 27.4968 726.348 Q27.4968 725.743 27.5923 725.011 Q27.656 724.279 27.8151 723.388 L33.8307 723.356 Z" fill="#000000" fill-rule="nonzero" fill-opacity="1" /><path clip-path="url(#clip240)" d="M32.4621 704.832 Q32.4621 709.542 36.1542 712.28 Q39.8145 715.017 46.212 715.017 Q52.6095 715.017 56.3017 712.311 Q59.9619 709.574 59.9619 704.832 Q59.9619 700.153 56.2698 697.416 Q52.5777 694.678 46.212 694.678 Q39.8781 694.678 36.186 697.416 Q32.4621 700.153 32.4621 704.832 M27.4968 704.832 Q27.4968 697.193 32.4621 692.832 Q37.4273 688.472 46.212 688.472 Q54.9649 688.472 59.9619 692.832 Q64.9272 697.193 64.9272 704.832 Q64.9272 712.502 59.9619 716.863 Q54.9649 721.191 46.212 721.191 Q37.4273 721.191 32.4621 716.863 Q27.4968 712.502 27.4968 704.832 Z" fill="#000000" fill-rule="nonzero" fill-opacity="1" /><path clip-path="url(#clip240)" d="M33.8307 658.107 Q33.2578 659.094 33.0032 660.272 Q32.7167 661.418 32.7167 662.818 Q32.7167 667.783 35.9632 670.457 Q39.1779 673.099 45.2253 673.099 L64.0042 673.099 L64.0042 678.987 L28.3562 678.987 L28.3562 673.099 L33.8944 673.099 Q30.6479 671.253 29.0883 668.292 Q27.4968 665.332 27.4968 661.099 Q27.4968 660.494 27.5923 659.762 Q27.656 659.03 27.8151 658.139 L33.8307 658.107 Z" fill="#000000" fill-rule="nonzero" fill-opacity="1" /><circle clip-path="url(#clip242)" cx="311.942" cy="86.1857" r="14.4" fill="#ff00ff" fill-rule="evenodd" fill-opacity="1" stroke="none"/>
<circle clip-path="url(#clip242)" cx="807.285" cy="404.939" r="14.4" fill="#ff00ff" fill-rule="evenodd" fill-opacity="1" stroke="none"/>
<circle clip-path="url(#clip242)" cx="1302.63" cy="730.696" r="14.4" fill="#ff00ff" fill-rule="evenodd" fill-opacity="1" stroke="none"/>
<circle clip-path="url(#clip242)" cx="1797.97" cy="1058.88" r="14.4" fill="#ff00ff" fill-rule="evenodd" fill-opacity="1" stroke="none"/>
<circle clip-path="url(#clip242)" cx="2293.31" cy="1384.24" r="14.4" fill="#ff00ff" fill-rule="evenodd" fill-opacity="1" stroke="none"/>
</svg>
