<?xml version="1.0" encoding="utf-8"?>
<svg xmlns="http://www.w3.org/2000/svg" xmlns:xlink="http://www.w3.org/1999/xlink" width="600" height="400" viewBox="0 0 2400 1600">
<defs>
  <clipPath id="clip820">
    <rect x="0" y="0" width="2400" height="1600"/>
  </clipPath>
</defs>
<path clip-path="url(#clip820)" d="M0 1600 L2400 1600 L2400 0 L0 0  Z" fill="#ffffff" fill-rule="evenodd" fill-opacity="1"/>
<defs>
  <clipPath id="clip821">
    <rect x="480" y="0" width="1681" height="1600"/>
  </clipPath>
</defs>
<path clip-path="url(#clip820)" d="M252.501 1423.18 L2352.76 1423.18 L2352.76 47.2441 L252.501 47.2441  Z" fill="#ffffff" fill-rule="evenodd" fill-opacity="1"/>
<defs>
  <clipPath id="clip822">
    <rect x="252" y="47" width="2101" height="1377"/>
  </clipPath>
</defs>
<polyline clip-path="url(#clip822)" style="stroke:#000000; stroke-linecap:round; stroke-linejoin:round; stroke-width:2; stroke-opacity:0.1; fill:none" points="311.942,1423.18 311.942,47.2441 "/>
<polyline clip-path="url(#clip822)" style="stroke:#000000; stroke-linecap:round; stroke-linejoin:round; stroke-width:2; stroke-opacity:0.1; fill:none" points="807.285,1423.18 807.285,47.2441 "/>
<polyline clip-path="url(#clip822)" style="stroke:#000000; stroke-linecap:round; stroke-linejoin:round; stroke-width:2; stroke-opacity:0.1; fill:none" points="1302.63,1423.18 1302.63,47.2441 "/>
<polyline clip-path="url(#clip822)" style="stroke:#000000; stroke-linecap:round; stroke-linejoin:round; stroke-width:2; stroke-opacity:0.1; fill:none" points="1797.97,1423.18 1797.97,47.2441 "/>
<polyline clip-path="url(#clip822)" style="stroke:#000000; stroke-linecap:round; stroke-linejoin:round; stroke-width:2; stroke-opacity:0.1; fill:none" points="2293.31,1423.18 2293.31,47.2441 "/>
<polyline clip-path="url(#clip822)" style="stroke:#000000; stroke-linecap:round; stroke-linejoin:round; stroke-width:2; stroke-opacity:0.1; fill:none" points="252.501,1009.51 2352.76,1009.51 "/>
<polyline clip-path="url(#clip822)" style="stroke:#000000; stroke-linecap:round; stroke-linejoin:round; stroke-width:2; stroke-opacity:0.1; fill:none" points="252.501,505.935 2352.76,505.935 "/>
<polyline clip-path="url(#clip820)" style="stroke:#000000; stroke-linecap:round; stroke-linejoin:round; stroke-width:4; stroke-opacity:1; fill:none" points="252.501,1423.18 2352.76,1423.18 "/>
<polyline clip-path="url(#clip820)" style="stroke:#000000; stroke-linecap:round; stroke-linejoin:round; stroke-width:4; stroke-opacity:1; fill:none" points="311.942,1423.18 311.942,1404.28 "/>
<polyline clip-path="url(#clip820)" style="stroke:#000000; stroke-linecap:round; stroke-linejoin:round; stroke-width:4; stroke-opacity:1; fill:none" points="807.285,1423.18 807.285,1404.28 "/>
<polyline clip-path="url(#clip820)" style="stroke:#000000; stroke-linecap:round; stroke-linejoin:round; stroke-width:4; stroke-opacity:1; fill:none" points="1302.63,1423.18 1302.63,1404.28 "/>
<polyline clip-path="url(#clip820)" style="stroke:#000000; stroke-linecap:round; stroke-linejoin:round; stroke-width:4; stroke-opacity:1; fill:none" points="1797.97,1423.18 1797.97,1404.28 "/>
<polyline clip-path="url(#clip820)" style="stroke:#000000; stroke-linecap:round; stroke-linejoin:round; stroke-width:4; stroke-opacity:1; fill:none" points="2293.31,1423.18 2293.31,1404.28 "/>
<path clip-path="url(#clip820)" d="M316.189 1466.95 Q319.546 1467.66 321.421 1469.93 Q323.319 1472.2 323.319 1475.53 Q323.319 1480.65 319.801 1483.45 Q316.282 1486.25 309.801 1486.25 Q307.625 1486.25 305.31 1485.81 Q303.018 1485.39 300.565 1484.54 L300.565 1480.02 Q302.509 1481.16 304.824 1481.74 Q307.139 1482.32 309.662 1482.32 Q314.06 1482.32 316.352 1480.58 Q318.666 1478.84 318.666 1475.53 Q318.666 1472.48 316.514 1470.77 Q314.384 1469.03 310.565 1469.03 L306.537 1469.03 L306.537 1465.19 L310.75 1465.19 Q314.199 1465.19 316.027 1463.82 Q317.856 1462.43 317.856 1459.84 Q317.856 1457.18 315.958 1455.77 Q314.083 1454.33 310.565 1454.33 Q308.643 1454.33 306.444 1454.75 Q304.245 1455.16 301.606 1456.04 L301.606 1451.88 Q304.268 1451.14 306.583 1450.77 Q308.921 1450.39 310.981 1450.39 Q316.305 1450.39 319.407 1452.83 Q322.509 1455.23 322.509 1459.35 Q322.509 1462.22 320.865 1464.21 Q319.222 1466.18 316.189 1466.95 Z" fill="#000000" fill-rule="nonzero" fill-opacity="1" /><path clip-path="url(#clip820)" d="M810.294 1455.09 L798.489 1473.54 L810.294 1473.54 L810.294 1455.09 M809.067 1451.02 L814.947 1451.02 L814.947 1473.54 L819.878 1473.54 L819.878 1477.43 L814.947 1477.43 L814.947 1485.58 L810.294 1485.58 L810.294 1477.43 L794.693 1477.43 L794.693 1472.92 L809.067 1451.02 Z" fill="#000000" fill-rule="nonzero" fill-opacity="1" /><path clip-path="url(#clip820)" d="M1292.91 1451.02 L1311.26 1451.02 L1311.26 1454.96 L1297.19 1454.96 L1297.19 1463.43 Q1298.21 1463.08 1299.23 1462.92 Q1300.24 1462.73 1301.26 1462.73 Q1307.05 1462.73 1310.43 1465.9 Q1313.81 1469.08 1313.81 1474.49 Q1313.81 1480.07 1310.34 1483.17 Q1306.86 1486.25 1300.54 1486.25 Q1298.37 1486.25 1296.1 1485.88 Q1293.86 1485.51 1291.45 1484.77 L1291.45 1480.07 Q1293.53 1481.2 1295.75 1481.76 Q1297.98 1482.32 1300.45 1482.32 Q1304.46 1482.32 1306.79 1480.21 Q1309.13 1478.1 1309.13 1474.49 Q1309.13 1470.88 1306.79 1468.77 Q1304.46 1466.67 1300.45 1466.67 Q1298.58 1466.67 1296.7 1467.08 Q1294.85 1467.5 1292.91 1468.38 L1292.91 1451.02 Z" fill="#000000" fill-rule="nonzero" fill-opacity="1" /><path clip-path="url(#clip820)" d="M1798.38 1466.44 Q1795.23 1466.44 1793.38 1468.59 Q1791.55 1470.74 1791.55 1474.49 Q1791.55 1478.22 1793.38 1480.39 Q1795.23 1482.55 1798.38 1482.55 Q1801.52 1482.55 1803.35 1480.39 Q1805.21 1478.22 1805.21 1474.49 Q1805.21 1470.74 1803.35 1468.59 Q1801.52 1466.44 1798.38 1466.44 M1807.66 1451.78 L1807.66 1456.04 Q1805.9 1455.21 1804.09 1454.77 Q1802.31 1454.33 1800.55 1454.33 Q1795.92 1454.33 1793.47 1457.45 Q1791.04 1460.58 1790.69 1466.9 Q1792.06 1464.89 1794.12 1463.82 Q1796.18 1462.73 1798.65 1462.73 Q1803.86 1462.73 1806.87 1465.9 Q1809.9 1469.05 1809.9 1474.49 Q1809.9 1479.82 1806.76 1483.03 Q1803.61 1486.25 1798.38 1486.25 Q1792.38 1486.25 1789.21 1481.67 Q1786.04 1477.06 1786.04 1468.33 Q1786.04 1460.14 1789.93 1455.28 Q1793.82 1450.39 1800.37 1450.39 Q1802.13 1450.39 1803.91 1450.74 Q1805.71 1451.09 1807.66 1451.78 Z" fill="#000000" fill-rule="nonzero" fill-opacity="1" /><path clip-path="url(#clip820)" d="M2282.2 1451.02 L2304.43 1451.02 L2304.43 1453.01 L2291.88 1485.58 L2287 1485.58 L2298.8 1454.96 L2282.2 1454.96 L2282.2 1451.02 Z" fill="#000000" fill-rule="nonzero" fill-opacity="1" /><path clip-path="url(#clip820)" d="M1304.59 1539.24 Q1306.78 1535.29 1309.84 1533.41 Q1312.89 1531.54 1317.03 1531.54 Q1322.6 1531.54 1325.62 1535.45 Q1328.65 1539.33 1328.65 1546.53 L1328.65 1568.04 L1322.76 1568.04 L1322.76 1546.72 Q1322.76 1541.59 1320.95 1539.11 Q1319.13 1536.63 1315.41 1536.63 Q1310.86 1536.63 1308.21 1539.65 Q1305.57 1542.68 1305.57 1547.9 L1305.57 1568.04 L1299.68 1568.04 L1299.68 1546.72 Q1299.68 1541.56 1297.87 1539.11 Q1296.06 1536.63 1292.27 1536.63 Q1287.78 1536.63 1285.14 1539.68 Q1282.5 1542.71 1282.5 1547.9 L1282.5 1568.04 L1276.61 1568.04 L1276.61 1532.4 L1282.5 1532.4 L1282.5 1537.93 Q1284.5 1534.66 1287.3 1533.1 Q1290.1 1531.54 1293.95 1531.54 Q1297.84 1531.54 1300.54 1533.51 Q1303.28 1535.48 1304.59 1539.24 Z" fill="#000000" fill-rule="nonzero" fill-opacity="1" /><polyline clip-path="url(#clip820)" style="stroke:#000000; stroke-linecap:round; stroke-linejoin:round; stroke-width:4; stroke-opacity:1; fill:none" points="252.501,1423.18 252.501,47.2441 "/>
<polyline clip-path="url(#clip820)" style="stroke:#000000; stroke-linecap:round; stroke-linejoin:round; stroke-width:4; stroke-opacity:1; fill:none" points="252.501,1009.51 271.398,1009.51 "/>
<polyline clip-path="url(#clip820)" style="stroke:#000000; stroke-linecap:round; stroke-linejoin:round; stroke-width:4; stroke-opacity:1; fill:none" points="252.501,505.935 271.398,505.935 "/>
<path clip-path="url(#clip820)" d="M115.214 1029.3 L122.852 1029.3 L122.852 1002.93 L114.542 1004.6 L114.542 1000.34 L122.806 998.674 L127.482 998.674 L127.482 1029.3 L135.121 1029.3 L135.121 1033.23 L115.214 1033.23 L115.214 1029.3 Z" fill="#000000" fill-rule="nonzero" fill-opacity="1" /><path clip-path="url(#clip820)" d="M154.565 1001.75 Q150.954 1001.75 149.125 1005.32 Q147.32 1008.86 147.32 1015.99 Q147.32 1023.1 149.125 1026.66 Q150.954 1030.2 154.565 1030.2 Q158.199 1030.2 160.005 1026.66 Q161.834 1023.1 161.834 1015.99 Q161.834 1008.86 160.005 1005.32 Q158.199 1001.75 154.565 1001.75 M154.565 998.049 Q160.375 998.049 163.431 1002.66 Q166.51 1007.24 166.51 1015.99 Q166.51 1024.72 163.431 1029.32 Q160.375 1033.91 154.565 1033.91 Q148.755 1033.91 145.676 1029.32 Q142.621 1024.72 142.621 1015.99 Q142.621 1007.24 145.676 1002.66 Q148.755 998.049 154.565 998.049 Z" fill="#000000" fill-rule="nonzero" fill-opacity="1" /><path clip-path="url(#clip820)" d="M166.51 992.151 L190.621 992.151 L190.621 995.348 L166.51 995.348 L166.51 992.151 Z" fill="#000000" fill-rule="nonzero" fill-opacity="1" /><path clip-path="url(#clip820)" d="M198.934 1005.24 L198.934 1001.78 Q200.364 1002.46 201.831 1002.81 Q203.298 1003.17 204.708 1003.17 Q208.47 1003.17 210.445 1000.65 Q212.438 998.113 212.72 992.96 Q211.629 994.577 209.956 995.442 Q208.282 996.307 206.25 996.307 Q202.037 996.307 199.574 993.768 Q197.129 991.21 197.129 986.791 Q197.129 982.465 199.686 979.851 Q202.244 977.236 206.495 977.236 Q211.366 977.236 213.924 980.979 Q216.501 984.703 216.501 991.812 Q216.501 998.451 213.341 1002.42 Q210.2 1006.37 204.877 1006.37 Q203.448 1006.37 201.981 1006.09 Q200.514 1005.81 198.934 1005.24 M206.495 993.336 Q209.053 993.336 210.539 991.587 Q212.043 989.837 212.043 986.791 Q212.043 983.763 210.539 982.013 Q209.053 980.246 206.495 980.246 Q203.937 980.246 202.432 982.013 Q200.947 983.763 200.947 986.791 Q200.947 989.837 202.432 991.587 Q203.937 993.336 206.495 993.336 Z" fill="#000000" fill-rule="nonzero" fill-opacity="1" /><path clip-path="url(#clip820)" d="M114.931 525.727 L122.57 525.727 L122.57 499.361 L114.26 501.028 L114.26 496.769 L122.524 495.102 L127.2 495.102 L127.2 525.727 L134.839 525.727 L134.839 529.662 L114.931 529.662 L114.931 525.727 Z" fill="#000000" fill-rule="nonzero" fill-opacity="1" /><path clip-path="url(#clip820)" d="M154.283 498.181 Q150.672 498.181 148.843 501.746 Q147.038 505.287 147.038 512.417 Q147.038 519.523 148.843 523.088 Q150.672 526.63 154.283 526.63 Q157.917 526.63 159.723 523.088 Q161.552 519.523 161.552 512.417 Q161.552 505.287 159.723 501.746 Q157.917 498.181 154.283 498.181 M154.283 494.477 Q160.093 494.477 163.149 499.084 Q166.227 503.667 166.227 512.417 Q166.227 521.144 163.149 525.75 Q160.093 530.334 154.283 530.334 Q148.473 530.334 145.394 525.75 Q142.339 521.144 142.339 512.417 Q142.339 503.667 145.394 499.084 Q148.473 494.477 154.283 494.477 Z" fill="#000000" fill-rule="nonzero" fill-opacity="1" /><path clip-path="url(#clip820)" d="M166.227 488.579 L190.339 488.579 L190.339 491.776 L166.227 491.776 L166.227 488.579 Z" fill="#000000" fill-rule="nonzero" fill-opacity="1" /><path clip-path="url(#clip820)" d="M207.134 486.698 Q204.577 486.698 203.072 488.447 Q201.586 490.196 201.586 493.243 Q201.586 496.271 203.072 498.039 Q204.577 499.788 207.134 499.788 Q209.692 499.788 211.178 498.039 Q212.683 496.271 212.683 493.243 Q212.683 490.196 211.178 488.447 Q209.692 486.698 207.134 486.698 M214.676 474.793 L214.676 478.253 Q213.247 477.576 211.78 477.219 Q210.332 476.861 208.902 476.861 Q205.141 476.861 203.147 479.4 Q201.172 481.939 200.89 487.074 Q202 485.438 203.674 484.573 Q205.348 483.689 207.36 483.689 Q211.592 483.689 214.037 486.265 Q216.501 488.823 216.501 493.243 Q216.501 497.569 213.943 500.183 Q211.385 502.797 207.134 502.797 Q202.263 502.797 199.686 499.073 Q197.11 495.331 197.11 488.24 Q197.11 481.582 200.27 477.632 Q203.429 473.664 208.752 473.664 Q210.181 473.664 211.629 473.946 Q213.096 474.228 214.676 474.793 Z" fill="#000000" fill-rule="nonzero" fill-opacity="1" /><path clip-path="url(#clip820)" d="M44.7161 779.279 L47.5806 779.279 L47.5806 806.206 Q53.6281 805.824 56.8109 802.577 Q59.9619 799.299 59.9619 793.474 Q59.9619 790.1 59.1344 786.949 Q58.3069 783.766 56.6518 780.647 L62.1899 780.647 Q63.5267 783.798 64.227 787.108 Q64.9272 790.419 64.9272 793.824 Q64.9272 802.354 59.9619 807.351 Q54.9967 812.317 46.5303 812.317 Q37.7774 812.317 32.6531 807.606 Q27.4968 802.864 27.4968 794.843 Q27.4968 787.649 32.1438 783.48 Q36.7589 779.279 44.7161 779.279 M42.9973 785.135 Q38.1912 785.199 35.3266 787.84 Q32.4621 790.45 32.4621 794.779 Q32.4621 799.681 35.2312 802.641 Q38.0002 805.569 43.0292 806.015 L42.9973 785.135 Z" fill="#000000" fill-rule="nonzero" fill-opacity="1" /><path clip-path="url(#clip820)" d="M33.8307 749.01 Q33.2578 749.996 33.0032 751.174 Q32.7167 752.32 32.7167 753.72 Q32.7167 758.686 35.9632 761.359 Q39.1779 764.001 45.2253 764.001 L64.0042 764.001 L64.0042 769.889 L28.3562 769.889 L28.3562 764.001 L33.8944 764.001 Q30.6479 762.155 29.0883 759.195 Q27.4968 756.235 27.4968 752.002 Q27.4968 751.397 27.5923 750.665 Q27.656 749.933 27.8151 749.041 L33.8307 749.01 Z" fill="#000000" fill-rule="nonzero" fill-opacity="1" /><path clip-path="url(#clip820)" d="M33.8307 723.356 Q33.2578 724.343 33.0032 725.52 Q32.7167 726.666 32.7167 728.066 Q32.7167 733.032 35.9632 735.705 Q39.1779 738.347 45.2253 738.347 L64.0042 738.347 L64.0042 744.235 L28.3562 744.235 L28.3562 738.347 L33.8944 738.347 Q30.6479 736.501 29.0883 733.541 Q27.4968 730.581 27.4968 726.348 Q27.4968 725.743 27.5923 725.011 Q27.656 724.279 27.8151 723.388 L33.8307 723.356 Z" fill="#000000" fill-rule="nonzero" fill-opacity="1" /><path clip-path="url(#clip820)" d="M32.4621 704.832 Q32.4621 709.542 36.1542 712.28 Q39.8145 715.017 46.212 715.017 Q52.6095 715.017 56.3017 712.311 Q59.9619 709.574 59.9619 704.832 Q59.9619 700.153 56.2698 697.416 Q52.5777 694.678 46.212 694.678 Q39.8781 694.678 36.186 697.416 Q32.4621 700.153 32.4621 704.832 M27.4968 704.832 Q27.4968 697.193 32.4621 692.832 Q37.4273 688.472 46.212 688.472 Q54.9649 688.472 59.9619 692.832 Q64.9272 697.193 64.9272 704.832 Q64.9272 712.502 59.9619 716.863 Q54.9649 721.191 46.212 721.191 Q37.4273 721.191 32.4621 716.863 Q27.4968 712.502 27.4968 704.832 Z" fill="#000000" fill-rule="nonzero" fill-opacity="1" /><path clip-path="url(#clip820)" d="M33.8307 658.107 Q33.2578 659.094 33.0032 660.272 Q32.7167 661.418 32.7167 662.818 Q32.7167 667.783 35.9632 670.457 Q39.1779 673.099 45.2253 673.099 L64.0042 673.099 L64.0042 678.987 L28.3562 678.987 L28.3562 673.099 L33.8944 673.099 Q30.6479 671.253 29.0883 668.292 Q27.4968 665.332 27.4968 661.099 Q27.4968 660.494 27.5923 659.762 Q27.656 659.03 27.8151 658.139 L33.8307 658.107 Z" fill="#000000" fill-rule="nonzero" fill-opacity="1" /><circle clip-path="url(#clip822)" cx="311.942" cy="86.1857" r="14.4" fill="#ff00ff" fill-rule="evenodd" fill-opacity="1" stroke="none"/>
<circle clip-path="url(#clip822)" cx="807.285" cy="406.339" r="14.4" fill="#ff00ff" fill-rule="evenodd" fill-opacity="1" stroke="none"/>
<circle clip-path="url(#clip822)" cx="1302.63" cy="731.41" r="14.4" fill="#ff00ff" fill-rule="evenodd" fill-opacity="1" stroke="none"/>
<circle clip-path="url(#clip822)" cx="1797.97" cy="1059.2" r="14.4" fill="#ff00ff" fill-rule="evenodd" fill-opacity="1" stroke="none"/>
<circle clip-path="url(#clip822)" cx="2293.31" cy="1384.24" r="14.4" fill="#ff00ff" fill-rule="evenodd" fill-opacity="1" stroke="none"/>
</svg>
